<svg viewBox="0 0 167 142" fill="none" xmlns="http://www.w3.org/2000/svg">
<g id="calendar" clip-path="url(#clip0)">
<path id="Vector" d="M166.447 0H7.7244V113.166H166.447V0Z" fill="url(#paint0_linear)"/>
<path id="Vector_2" d="M164.661 13.3703H9.11328V109.744H164.661V13.3703Z" fill="white"/>
<path id="Vector_3" d="M164.661 2.3532H9.11328V13.3703H164.661V2.3532Z" fill="#3BD5DF"/>
<path id="Vector_4" d="M162.876 20.3229H11.2957V104.395H162.876V20.3229Z" fill="url(#paint1_linear)"/>
<path id="Vector_5" opacity="0.5" d="M31.4336 21.8203H13.1805V37.5438H31.4336V21.8203Z" fill="#3BD5DF"/>
<path id="Vector_6" d="M49.8851 21.8203H31.632V37.5438H49.8851V21.8203Z" fill="white"/>
<path id="Vector_7" opacity="0.2" d="M68.3366 21.8203H50.0835V37.5438H68.3366V21.8203Z" fill="#3BD5DF"/>
<path id="Vector_8" d="M86.7881 21.8203H68.535V37.5438H86.7881V21.8203Z" fill="white"/>
<path id="Vector_9" d="M105.239 21.8203H86.9864V37.5438H105.239V21.8203Z" fill="white"/>
<path id="Vector_10" opacity="0.5" d="M123.691 21.8203H105.438V37.5438H123.691V21.8203Z" fill="#3BD5DF"/>
<path id="Vector_11" d="M142.143 21.8203H123.889V37.5438H142.143V21.8203Z" fill="white"/>
<path id="Vector_12" opacity="0.2" d="M160.594 21.8203H142.341V37.5438H160.594V21.8203Z" fill="#3BD5DF"/>
<path id="Vector_13" opacity="0.2" d="M31.4336 37.8647H13.1805V53.5882H31.4336V37.8647Z" fill="#3BD5DF"/>
<path id="Vector_14" opacity="0.2" d="M49.8851 37.8647H31.632V53.5882H49.8851V37.8647Z" fill="#3BD5DF"/>
<path id="Vector_15" d="M68.3366 37.8647H50.0835V53.5882H68.3366V37.8647Z" fill="white"/>
<path id="Vector_16" opacity="0.5" d="M86.7881 37.8647H68.535V53.5882H86.7881V37.8647Z" fill="#3BD5DF"/>
<path id="Vector_17" d="M105.239 37.8647H86.9864V53.5882H105.239V37.8647Z" fill="white"/>
<path id="Vector_18" opacity="0.2" d="M123.691 37.8647H105.438V53.5882H123.691V37.8647Z" fill="#3BD5DF"/>
<path id="Vector_19" opacity="0.5" d="M142.143 37.8647H123.889V53.5882H142.143V37.8647Z" fill="#3BD5DF"/>
<path id="Vector_20" d="M160.594 37.8647H142.341V53.5882H160.594V37.8647Z" fill="white"/>
<path id="Vector_21" d="M31.4336 53.6952H13.1805V69.4186H31.4336V53.6952Z" fill="white"/>
<path id="Vector_22" d="M49.8851 53.6952H31.632V69.4186H49.8851V53.6952Z" fill="white"/>
<path id="Vector_23" opacity="0.2" d="M68.3366 53.6952H50.0835V69.4186H68.3366V53.6952Z" fill="#3BD5DF"/>
<path id="Vector_24" d="M86.7881 53.6952H68.535V69.4186H86.7881V53.6952Z" fill="white"/>
<path id="Vector_25" opacity="0.2" d="M105.239 53.6952H86.9864V69.4186H105.239V53.6952Z" fill="#3BD5DF"/>
<path id="Vector_26" d="M123.691 53.6952H105.438V69.4186H123.691V53.6952Z" fill="white"/>
<path id="Vector_27" d="M142.143 53.6952H123.889V69.4186H142.143V53.6952Z" fill="white"/>
<path id="Vector_28" opacity="0.2" d="M160.594 53.6952H142.341V69.4186H160.594V53.6952Z" fill="#3BD5DF"/>
<path id="Vector_29" d="M31.4336 69.5256H13.1805V85.2491H31.4336V69.5256Z" fill="white"/>
<path id="Vector_30" opacity="0.5" d="M49.8851 69.5256H31.632V85.2491H49.8851V69.5256Z" fill="#3BD5DF"/>
<path id="Vector_31" opacity="0.5" d="M68.3366 69.5256H50.0835V85.2491H68.3366V69.5256Z" fill="#3BD5DF"/>
<path id="Vector_32" d="M86.7881 69.5256H68.535V85.2491H86.7881V69.5256Z" fill="white"/>
<path id="Vector_33" d="M105.239 69.5256H86.9864V85.2491H105.239V69.5256Z" fill="white"/>
<path id="Vector_34" opacity="0.5" d="M123.691 69.5256H105.438V85.2491H123.691V69.5256Z" fill="#3BD5DF"/>
<path id="Vector_35" d="M142.143 69.5256H123.889V85.2491H142.143V69.5256Z" fill="white"/>
<path id="Vector_36" opacity="0.5" d="M160.594 69.5256H142.341V85.2491H160.594V69.5256Z" fill="#3BD5DF"/>
<path id="Vector_37" opacity="0.5" d="M31.4336 85.57H13.1805V101.293H31.4336V85.57Z" fill="#3BD5DF"/>
<path id="Vector_38" opacity="0.2" d="M49.8851 85.57H31.632V101.293H49.8851V85.57Z" fill="#3BD5DF"/>
<path id="Vector_39" d="M68.3366 85.57H50.0835V101.293H68.3366V85.57Z" fill="white"/>
<path id="Vector_40" opacity="0.5" d="M86.7881 85.57H68.535V101.293H86.7881V85.57Z" fill="#3BD5DF"/>
<path id="Vector_41" opacity="0.2" d="M105.239 85.57H86.9864V101.293H105.239V85.57Z" fill="#3BD5DF"/>
<path id="Vector_42" d="M123.691 85.57H105.438V101.293H123.691V85.57Z" fill="white"/>
<path id="Vector_43" opacity="0.2" d="M142.143 85.57H123.889V101.293H142.143V85.57Z" fill="#3BD5DF"/>
<path id="Vector_44" d="M160.594 85.57H142.341V101.293H160.594V85.57Z" fill="white"/>
<path id="Vector_45" d="M20.2238 55.1926H14.6685V61.1825H20.2238V55.1926Z" fill="#69F0AE"/>
<path id="Vector_46" d="M75.3799 23.5317H69.8246V29.5216H75.3799V23.5317Z" fill="#69F0AE"/>
<path id="Vector_47" d="M74.7847 55.1926H69.2294V61.1825H74.7847V55.1926Z" fill="#69F0AE"/>
<path id="Vector_48" d="M93.6329 70.3813H88.0776V76.3712H93.6329V70.3813Z" fill="#69F0AE"/>
<path id="Vector_49" d="M130.337 55.1926H124.782V61.1825H130.337V55.1926Z" fill="#69F0AE"/>
<path id="Vector_50" d="M34.6953 141.201C53.4929 141.201 68.7314 124.771 68.7314 104.502C68.7314 84.2342 53.4929 67.8036 34.6953 67.8036C15.8978 67.8036 0.659302 84.2342 0.659302 104.502C0.659302 124.771 15.8978 141.201 34.6953 141.201Z" fill="url(#paint2_linear)"/>
<path id="Vector_51" d="M34.6954 140.211C52.9856 140.211 67.8128 124.224 67.8128 104.502C67.8128 84.7812 52.9856 68.794 34.6954 68.794C16.4051 68.794 1.57794 84.7812 1.57794 104.502C1.57794 124.224 16.4051 140.211 34.6954 140.211Z" fill="#3BD5DF"/>
<path id="Vector_52" d="M34.6953 133.515C49.5559 133.515 61.6028 120.526 61.6028 104.502C61.6028 88.4792 49.5559 75.4899 34.6953 75.4899C19.8348 75.4899 7.7879 88.4792 7.7879 104.502C7.7879 120.526 19.8348 133.515 34.6953 133.515Z" fill="white"/>
<path id="Vector_53" d="M34.6954 106.237C35.584 106.237 36.3044 105.461 36.3044 104.502C36.3044 103.544 35.584 102.767 34.6954 102.767C33.8067 102.767 33.0863 103.544 33.0863 104.502C33.0863 105.461 33.8067 106.237 34.6954 106.237Z" fill="url(#paint3_linear)"/>
<path id="minutearm" d="M43.3446 82.0334L34.6057 104.351L35.2418 104.64L43.9807 82.323L43.3446 82.0334Z" fill="#2196F3"/>
<path id="hourarm" d="M35.2256 104.58L34.6189 104.935L40.3681 116.343L40.9748 115.987L35.2256 104.58Z" fill="#2196F3"/>
<path id="Vector_56" d="M59.7635 105.991C60.1448 105.991 60.454 105.658 60.454 105.247C60.454 104.836 60.1448 104.502 59.7635 104.502C59.3822 104.502 59.0731 104.836 59.0731 105.247C59.0731 105.658 59.3822 105.991 59.7635 105.991Z" fill="#3BD5DF"/>
<path id="Vector_57" d="M13.879 91.6191C14.1267 91.1566 13.9797 90.5652 13.5508 90.2982C13.1218 90.0312 12.5734 90.1897 12.3257 90.6521C12.0781 91.1146 12.2251 91.706 12.654 91.973C13.0829 92.24 13.6314 92.0816 13.879 91.6191Z" fill="url(#paint6_linear)"/>
<path id="Vector_58" d="M13.7802 119.497C14.2092 119.23 14.3561 118.638 14.1085 118.176C13.8608 117.713 13.3124 117.555 12.8834 117.822C12.4545 118.089 12.3076 118.68 12.5552 119.143C12.8028 119.605 13.3513 119.764 13.7802 119.497Z" fill="url(#paint7_linear)"/>
<path id="Vector_59" d="M9.62914 106.214C10.1244 106.214 10.5259 105.781 10.5259 105.247C10.5259 104.713 10.1244 104.28 9.62914 104.28C9.13386 104.28 8.73236 104.713 8.73236 105.247C8.73236 105.781 9.13386 106.214 9.62914 106.214Z" fill="url(#paint8_linear)"/>
<path id="Vector_60" d="M22.7025 82.0545C23.1314 81.7875 23.2784 81.1961 23.0307 80.7336C22.7831 80.2712 22.2346 80.1127 21.8057 80.3797C21.3768 80.6467 21.2298 81.2381 21.4775 81.7006C21.7251 82.1631 22.2736 82.3215 22.7025 82.0545Z" fill="url(#paint9_linear)"/>
<path id="Vector_61" d="M35.1214 78.5843C35.5503 78.3172 35.6973 77.7259 35.4497 77.2634C35.202 76.8009 34.6536 76.6425 34.2246 76.9095C33.7957 77.1765 33.6487 77.7679 33.8964 78.2303C34.144 78.6928 34.6925 78.8513 35.1214 78.5843Z" fill="url(#paint10_linear)"/>
<path id="Vector_62" d="M47.5401 82.0556C47.969 81.7886 48.1159 81.1972 47.8683 80.7347C47.6207 80.2722 47.0722 80.1138 46.6433 80.3808C46.2144 80.6478 46.0674 81.2392 46.315 81.7017C46.5627 82.1641 47.1111 82.3226 47.5401 82.0556Z" fill="url(#paint11_linear)"/>
<path id="Vector_63" d="M56.7388 91.9748C57.1677 91.7077 57.3147 91.1164 57.0671 90.6539C56.8194 90.1914 56.271 90.0329 55.842 90.2999C55.4131 90.567 55.2662 91.1583 55.5138 91.6208C55.7614 92.0833 56.3099 92.2418 56.7388 91.9748Z" fill="url(#paint12_linear)"/>
<path id="Vector_64" d="M56.5098 119.499C56.9387 119.232 57.0857 118.641 56.8381 118.178C56.5904 117.716 56.042 117.557 55.613 117.824C55.1841 118.091 55.0371 118.683 55.2848 119.145C55.5324 119.607 56.0809 119.766 56.5098 119.499Z" fill="url(#paint13_linear)"/>
<path id="Vector_65" d="M47.08 129.169C47.5089 128.902 47.6559 128.311 47.4082 127.848C47.1606 127.386 46.6121 127.227 46.1832 127.494C45.7543 127.761 45.6073 128.353 45.8549 128.815C46.1026 129.278 46.6511 129.436 47.08 129.169Z" fill="url(#paint14_linear)"/>
<path id="Vector_66" d="M35.1204 132.146C35.5494 131.879 35.6963 131.288 35.4487 130.825C35.2011 130.363 34.6526 130.204 34.2237 130.471C33.7947 130.738 33.6478 131.33 33.8954 131.792C34.1431 132.255 34.6915 132.413 35.1204 132.146Z" fill="url(#paint15_linear)"/>
<path id="Vector_67" d="M23.1626 129.17C23.5915 128.903 23.7385 128.312 23.4909 127.849C23.2432 127.387 22.6948 127.228 22.2658 127.495C21.8369 127.762 21.69 128.354 21.9376 128.816C22.1852 129.279 22.7337 129.437 23.1626 129.17Z" fill="url(#paint16_linear)"/>
<path id="Vector_68" d="M34.6953 78.4655C35.0766 78.4655 35.3858 78.1322 35.3858 77.7211C35.3858 77.3099 35.0766 76.9766 34.6953 76.9766C34.314 76.9766 34.0049 77.3099 34.0049 77.7211C34.0049 78.1322 34.314 78.4655 34.6953 78.4655Z" fill="#69F0AE"/>
<path id="Vector_69" d="M47.7123 81.6806C47.9029 81.3245 47.7898 80.8692 47.4596 80.6637C47.1293 80.4581 46.7071 80.5801 46.5164 80.9361C46.3257 81.2922 46.4389 81.7475 46.7691 81.9531C47.0993 82.1587 47.5216 82.0367 47.7123 81.6806Z" fill="#69F0AE"/>
<path id="Vector_70" d="M56.5499 91.7567C56.8801 91.5511 56.9932 91.0958 56.8026 90.7397C56.6119 90.3836 56.1897 90.2616 55.8594 90.4672C55.5292 90.6728 55.416 91.1281 55.6067 91.4842C55.7974 91.8402 56.2196 91.9622 56.5499 91.7567Z" fill="#69F0AE"/>
<path id="Vector_71" d="M56.6589 119.032C56.8496 118.676 56.7364 118.221 56.4062 118.015C56.0759 117.81 55.6537 117.932 55.463 118.288C55.2724 118.644 55.3855 119.099 55.7157 119.305C56.046 119.51 56.4682 119.388 56.6589 119.032Z" fill="#69F0AE"/>
<path id="Vector_72" d="M46.9768 128.925C47.307 128.72 47.4202 128.265 47.2295 127.909C47.0389 127.552 46.6166 127.43 46.2864 127.636C45.9561 127.842 45.843 128.297 46.0336 128.653C46.2243 129.009 46.6466 129.131 46.9768 128.925Z" fill="#69F0AE"/>
<path id="Vector_73" d="M22.6211 81.9554C22.9514 81.7498 23.0645 81.2945 22.8739 80.9384C22.6832 80.5823 22.2609 80.4603 21.9307 80.6659C21.6005 80.8715 21.4873 81.3268 21.678 81.6829C21.8686 82.0389 22.2909 82.1609 22.6211 81.9554Z" fill="#69F0AE"/>
<path id="Vector_74" d="M13.7846 91.4846C13.9753 91.1285 13.8621 90.6732 13.5319 90.4677C13.2017 90.2621 12.7794 90.3841 12.5888 90.7402C12.3981 91.0962 12.5112 91.5515 12.8415 91.7571C13.1717 91.9627 13.594 91.8407 13.7846 91.4846Z" fill="#69F0AE"/>
<path id="Vector_75" d="M60.1902 106.109C60.6191 105.842 60.766 105.251 60.5184 104.789C60.2708 104.326 59.7223 104.168 59.2934 104.435C58.8644 104.702 58.7175 105.293 58.9651 105.756C59.2128 106.218 59.7612 106.376 60.1902 106.109Z" fill="#69F0AE"/>
<path id="Vector_76" d="M13.6771 119.304C14.0073 119.099 14.1205 118.643 13.9298 118.287C13.7391 117.931 13.3169 117.809 12.9866 118.015C12.6564 118.22 12.5433 118.676 12.7339 119.032C12.9246 119.388 13.3469 119.51 13.6771 119.304Z" fill="#69F0AE"/>
<path id="Vector_77" d="M23.3569 128.654C23.5476 128.298 23.4344 127.843 23.1042 127.637C22.774 127.431 22.3517 127.553 22.161 127.909C21.9704 128.265 22.0835 128.721 22.4138 128.926C22.744 129.132 23.1663 129.01 23.3569 128.654Z" fill="#69F0AE"/>
<path id="Vector_78" d="M9.6291 105.991C10.0104 105.991 10.3195 105.658 10.3195 105.247C10.3195 104.836 10.0104 104.502 9.6291 104.502C9.24778 104.502 8.93866 104.836 8.93866 105.247C8.93866 105.658 9.24778 105.991 9.6291 105.991Z" fill="#69F0AE"/>
<path id="Vector_79" d="M34.6953 132.026C35.0766 132.026 35.3858 131.693 35.3858 131.281C35.3858 130.87 35.0766 130.537 34.6953 130.537C34.314 130.537 34.0049 130.87 34.0049 131.281C34.0049 131.693 34.314 132.026 34.6953 132.026Z" fill="#69F0AE"/>
<path id="Vector_80" opacity="0.2" d="M9.1688 107.23C9.17058 100.837 11.1305 94.6231 14.7441 89.5544C18.3576 84.4858 23.4226 80.8457 29.152 79.1999C34.8814 77.554 40.9546 77.9944 46.4281 80.4526C51.9015 82.9109 56.4688 87.2494 59.4203 92.7942C57.972 89.1667 55.8521 85.8961 53.1904 83.1828C50.5288 80.4695 47.3815 78.3706 43.9413 77.0147C40.5011 75.6588 36.8403 75.0744 33.1833 75.2973C29.5263 75.5202 25.9499 76.5457 22.6734 78.311C19.3968 80.0763 16.4889 82.5443 14.1278 85.5637C11.7667 88.5831 10.0022 92.0904 8.94219 95.8709C7.88222 99.6513 7.54915 103.625 7.96339 107.549C8.37762 111.473 9.53044 115.265 11.3512 118.692C9.90687 115.072 9.16419 111.171 9.1688 107.23V107.23Z" fill="#3BD5DF"/>
<path id="Vector_81" d="M34.6954 105.743C35.3309 105.743 35.8461 105.188 35.8461 104.502C35.8461 103.817 35.3309 103.262 34.6954 103.262C34.0598 103.262 33.5446 103.817 33.5446 104.502C33.5446 105.188 34.0598 105.743 34.6954 105.743Z" fill="#69F0AE"/>
</g>
<defs>
<linearGradient id="paint0_linear" x1="87.0856" y1="113.166" x2="87.0856" y2="0" gradientUnits="userSpaceOnUse">
<stop stop-color="#808080" stop-opacity="0.25"/>
<stop offset="0.54" stop-color="#808080" stop-opacity="0.12"/>
<stop offset="1" stop-color="#808080" stop-opacity="0.1"/>
</linearGradient>
<linearGradient id="paint1_linear" x1="66041" y1="41047.7" x2="66041" y2="8007.21" gradientUnits="userSpaceOnUse">
<stop stop-color="#808080" stop-opacity="0.25"/>
<stop offset="0.54" stop-color="#808080" stop-opacity="0.12"/>
<stop offset="1" stop-color="#808080" stop-opacity="0.1"/>
</linearGradient>
<linearGradient id="paint2_linear" x1="11678.4" y1="48513.9" x2="11678.4" y2="23331.2" gradientUnits="userSpaceOnUse">
<stop stop-color="#808080" stop-opacity="0.25"/>
<stop offset="0.54" stop-color="#808080" stop-opacity="0.12"/>
<stop offset="1" stop-color="#808080" stop-opacity="0.1"/>
</linearGradient>
<linearGradient id="paint3_linear" x1="585.15" y1="1825.93" x2="585.15" y2="1769.61" gradientUnits="userSpaceOnUse">
<stop stop-color="#808080" stop-opacity="0.25"/>
<stop offset="0.54" stop-color="#808080" stop-opacity="0.12"/>
<stop offset="1" stop-color="#808080" stop-opacity="0.1"/>
</linearGradient>
<linearGradient id="paint4_linear" x1="1964.87" y1="11286.5" x2="1964.87" y2="8837.23" gradientUnits="userSpaceOnUse">
<stop stop-color="#808080" stop-opacity="0.25"/>
<stop offset="0.54" stop-color="#808080" stop-opacity="0.12"/>
<stop offset="1" stop-color="#808080" stop-opacity="0.1"/>
</linearGradient>
<linearGradient id="paint5_linear" x1="1300.07" y1="6627.48" x2="1300.07" y2="5956.61" gradientUnits="userSpaceOnUse">
<stop stop-color="#808080" stop-opacity="0.25"/>
<stop offset="0.54" stop-color="#808080" stop-opacity="0.12"/>
<stop offset="1" stop-color="#808080" stop-opacity="0.1"/>
</linearGradient>
<linearGradient id="paint6_linear" x1="-726.445" y1="1622.86" x2="-711.91" y2="1615.08" gradientUnits="userSpaceOnUse">
<stop stop-color="#808080" stop-opacity="0.25"/>
<stop offset="0.54" stop-color="#808080" stop-opacity="0.12"/>
<stop offset="1" stop-color="#808080" stop-opacity="0.1"/>
</linearGradient>
<linearGradient id="paint7_linear" x1="453.777" y1="1431.14" x2="453.777" y2="1413.68" gradientUnits="userSpaceOnUse">
<stop stop-color="#808080" stop-opacity="0.25"/>
<stop offset="0.54" stop-color="#808080" stop-opacity="0.12"/>
<stop offset="1" stop-color="#808080" stop-opacity="0.1"/>
</linearGradient>
<linearGradient id="paint8_linear" x1="-139.702" y1="1655.18" x2="-130.645" y2="1640.63" gradientUnits="userSpaceOnUse">
<stop stop-color="#808080" stop-opacity="0.25"/>
<stop offset="0.54" stop-color="#808080" stop-opacity="0.12"/>
<stop offset="1" stop-color="#808080" stop-opacity="0.1"/>
</linearGradient>
<linearGradient id="paint9_linear" x1="-1224.56" y1="1249.53" x2="-1208.35" y2="1249.53" gradientUnits="userSpaceOnUse">
<stop stop-color="#808080" stop-opacity="0.25"/>
<stop offset="0.54" stop-color="#808080" stop-opacity="0.12"/>
<stop offset="1" stop-color="#808080" stop-opacity="0.1"/>
</linearGradient>
<linearGradient id="paint10_linear" x1="-1109.09" y1="1231.55" x2="-1092.87" y2="1231.55" gradientUnits="userSpaceOnUse">
<stop stop-color="#808080" stop-opacity="0.25"/>
<stop offset="0.54" stop-color="#808080" stop-opacity="0.12"/>
<stop offset="1" stop-color="#808080" stop-opacity="0.1"/>
</linearGradient>
<linearGradient id="paint11_linear" x1="-1000.02" y1="1276.31" x2="-983.828" y2="1276.31" gradientUnits="userSpaceOnUse">
<stop stop-color="#808080" stop-opacity="0.25"/>
<stop offset="0.54" stop-color="#808080" stop-opacity="0.12"/>
<stop offset="1" stop-color="#808080" stop-opacity="0.1"/>
</linearGradient>
<linearGradient id="paint12_linear" x1="-926.068" y1="1375.91" x2="-909.854" y2="1375.91" gradientUnits="userSpaceOnUse">
<stop stop-color="#808080" stop-opacity="0.25"/>
<stop offset="0.54" stop-color="#808080" stop-opacity="0.12"/>
<stop offset="1" stop-color="#808080" stop-opacity="0.1"/>
</linearGradient>
<linearGradient id="paint13_linear" x1="-953.68" y1="1624.45" x2="-937.466" y2="1624.45" gradientUnits="userSpaceOnUse">
<stop stop-color="#808080" stop-opacity="0.25"/>
<stop offset="0.54" stop-color="#808080" stop-opacity="0.12"/>
<stop offset="1" stop-color="#808080" stop-opacity="0.1"/>
</linearGradient>
<linearGradient id="paint14_linear" x1="-1047.88" y1="1701.76" x2="-1031.68" y2="1701.76" gradientUnits="userSpaceOnUse">
<stop stop-color="#808080" stop-opacity="0.25"/>
<stop offset="0.54" stop-color="#808080" stop-opacity="0.12"/>
<stop offset="1" stop-color="#808080" stop-opacity="0.1"/>
</linearGradient>
<linearGradient id="paint15_linear" x1="-1158.77" y1="1715.72" x2="-1142.55" y2="1715.72" gradientUnits="userSpaceOnUse">
<stop stop-color="#808080" stop-opacity="0.25"/>
<stop offset="0.54" stop-color="#808080" stop-opacity="0.12"/>
<stop offset="1" stop-color="#808080" stop-opacity="0.1"/>
</linearGradient>
<linearGradient id="paint16_linear" x1="-1264.09" y1="1675.94" x2="-1247.9" y2="1675.94" gradientUnits="userSpaceOnUse">
<stop stop-color="#808080" stop-opacity="0.25"/>
<stop offset="0.54" stop-color="#808080" stop-opacity="0.12"/>
<stop offset="1" stop-color="#808080" stop-opacity="0.1"/>
</linearGradient>
<clipPath id="clip0">
<rect width="165.788" height="141.201" fill="white" transform="translate(0.659302)"/>
</clipPath>
</defs>
</svg>
