<svg width="817" height="343" viewBox="0 0 817 343" fill="none" xmlns="http://www.w3.org/2000/svg">
<g id="Friends">
<path id="Vector" d="M408.5 343C634.108 343 817 336.475 817 328.426C817 320.378 634.108 313.853 408.5 313.853C182.892 313.853 0 320.378 0 328.426C0 336.475 182.892 343 408.5 343Z" fill="#3F3D56"/>
<path id="Vector_2" d="M727.109 246.932C728.626 244.285 729.409 241.281 729.379 238.23C729.379 230.367 724.52 223.989 718.495 223.989C712.47 223.989 707.618 230.367 707.618 238.23C707.588 241.281 708.371 244.285 709.888 246.932C708.399 249.591 707.618 252.588 707.618 255.635C707.618 258.682 708.399 261.678 709.888 264.337C708.399 266.995 707.618 269.99 707.618 273.036C707.618 276.082 708.399 279.078 709.888 281.735C708.399 284.395 707.618 287.391 707.618 290.438C707.618 293.485 708.399 296.481 709.888 299.14C708.371 301.788 707.588 304.792 707.618 307.843C707.618 315.706 712.477 322.083 718.495 322.083C724.513 322.083 729.379 315.706 729.379 307.843C729.409 304.792 728.626 301.788 727.109 299.14C728.597 296.481 729.379 293.485 729.379 290.438C729.379 287.391 728.597 284.395 727.109 281.735C728.597 279.078 729.379 276.082 729.379 273.036C729.379 269.99 728.597 266.995 727.109 264.337C728.597 261.678 729.379 258.682 729.379 255.635C729.379 252.588 728.597 249.591 727.109 246.932V246.932Z" fill="#3F3D56"/>
<path id="Vector_3" d="M718.467 235.065C724.475 235.065 729.344 228.689 729.344 220.825C729.344 212.96 724.475 206.584 718.467 206.584C712.46 206.584 707.59 212.96 707.59 220.825C707.59 228.689 712.46 235.065 718.467 235.065Z" fill="#3F3D56"/>
<path id="Vector_4" d="M718.467 217.66C724.475 217.66 729.344 211.284 729.344 203.42C729.344 195.555 724.475 189.179 718.467 189.179C712.46 189.179 707.59 195.555 707.59 203.42C707.59 211.284 712.46 217.66 718.467 217.66Z" fill="#3F3D56"/>
<path id="Vector_5" d="M677.742 84.3187C676.255 82.427 674.901 80.4352 673.688 78.3574L702.28 73.6661L671.356 73.8951C668.391 67.4428 666.773 60.4536 666.603 53.3549C666.432 46.2562 667.712 39.1974 670.363 32.6102L711.845 54.1235L673.591 26.0104C677.171 19.8121 681.989 14.4175 687.746 10.1631C693.503 5.90871 700.075 2.88574 707.052 1.28272C714.029 -0.3203 721.262 -0.468997 728.299 0.84589C735.336 2.16078 742.026 4.91105 747.953 8.92521C753.881 12.9394 758.917 18.1313 762.748 24.1773C766.58 30.2233 769.124 36.9936 770.223 44.0661C771.322 51.1386 770.951 58.3616 769.135 65.2847C767.318 72.2077 764.094 78.6823 759.664 84.3048C761.986 87.248 763.978 90.4361 765.606 93.8123L728.497 113.098L768.063 99.8222C770.841 108.033 771.527 116.807 770.059 125.35C768.591 133.892 765.016 141.934 759.657 148.748C765.707 156.433 769.471 165.665 770.519 175.388C771.567 185.111 769.857 194.932 765.585 203.729C761.313 212.527 754.65 219.944 746.359 225.134C738.069 230.323 728.485 233.075 718.703 233.075C708.922 233.075 699.338 230.323 691.047 225.134C682.756 219.944 676.094 212.527 671.821 203.729C667.549 194.932 665.839 185.111 666.887 175.388C667.936 165.665 671.7 156.433 677.749 148.748C670.523 139.564 666.594 128.218 666.594 116.533C666.594 104.848 670.523 93.5026 677.749 84.3187H677.742Z" fill="#57B894"/>
<path id="Vector_6" opacity="0.1" d="M770.84 116.533C770.858 128.221 766.927 139.573 759.685 148.748C765.734 156.433 769.498 165.665 770.547 175.388C771.595 185.111 769.885 194.932 765.613 203.729C761.34 212.527 754.678 219.944 746.387 225.134C738.096 230.323 728.512 233.075 718.731 233.075C708.949 233.075 699.365 230.323 691.075 225.134C682.784 219.944 676.122 212.527 671.849 203.729C667.577 194.932 665.867 185.111 666.915 175.388C667.963 165.665 671.727 156.433 677.777 148.748C670.759 139.886 770.84 110.69 770.84 116.533Z" fill="black"/>
<path id="Vector_7" d="M683.781 4.85786H133.219C125.391 4.85786 119.045 11.2025 119.045 19.029V307.142C119.045 314.968 125.391 321.313 133.219 321.313H683.781C691.609 321.313 697.955 314.968 697.955 307.142V19.029C697.955 11.2025 691.609 4.85786 683.781 4.85786Z" fill="#F2F2F2"/>
<path id="Vector_8" d="M119.392 20.4724H305.421V321.66H133.566C129.807 321.66 126.201 320.167 123.543 317.509C120.885 314.852 119.392 311.247 119.392 307.489V20.4724Z" fill="#FFB36E"/>
<path id="Vector_9" d="M697.955 19.0289V27.0722H119.045V19.0289C119.045 17.1683 119.411 15.3259 120.124 13.607C120.836 11.888 121.88 10.3263 123.197 9.01094C124.513 7.69558 126.075 6.6524 127.795 5.94099C129.515 5.22958 131.358 4.8639 133.219 4.86481H683.781C685.642 4.8639 687.485 5.22958 689.205 5.94099C690.924 6.6524 692.487 7.69558 693.803 9.01094C695.12 10.3263 696.164 11.888 696.876 13.607C697.589 15.3259 697.955 17.1683 697.955 19.0289V19.0289Z" fill="#3F3D56"/>
<path id="Vector_10" d="M133.969 20.4724C136.269 20.4724 138.133 18.6082 138.133 16.3086C138.133 14.0089 136.269 12.1447 133.969 12.1447C131.668 12.1447 129.804 14.0089 129.804 16.3086C129.804 18.6082 131.668 20.4724 133.969 20.4724Z" fill="#63FFFF"/>
<path id="Vector_11" d="M144.381 20.4724C146.681 20.4724 148.545 18.6082 148.545 16.3086C148.545 14.0089 146.681 12.1447 144.381 12.1447C142.08 12.1447 140.216 14.0089 140.216 16.3086C140.216 18.6082 142.08 20.4724 144.381 20.4724Z" fill="#63FFFF"/>
<path id="Vector_12" d="M154.793 20.4724C157.093 20.4724 158.958 18.6082 158.958 16.3086C158.958 14.0089 157.093 12.1447 154.793 12.1447C152.493 12.1447 150.628 14.0089 150.628 16.3086C150.628 18.6082 152.493 20.4724 154.793 20.4724Z" fill="#63FFFF"/>
<path id="Friend1Info" opacity="0.3" d="M663.776 64.6235H424.632C424.156 64.6235 423.771 65.0088 423.771 65.484V71.3967C423.771 71.872 424.156 72.2573 424.632 72.2573H663.776C664.251 72.2573 664.637 71.872 664.637 71.3967V65.484C664.637 65.0088 664.251 64.6235 663.776 64.6235Z" fill="#42D8E4"/>
<path id="Friend1Select" d="M660.305 79.1971H611.355C610.879 79.1971 610.494 79.5824 610.494 80.0576V95.6861C610.494 96.1613 610.879 96.5466 611.355 96.5466H660.305C660.781 96.5466 661.166 96.1613 661.166 95.6861V80.0576C661.166 79.5824 660.781 79.1971 660.305 79.1971Z" fill="#FFB36E"/>
<path id="Friend2Info" opacity="0.3" d="M663.776 157.45H424.632C424.156 157.45 423.771 157.836 423.771 158.311V164.224C423.771 164.699 424.156 165.084 424.632 165.084H663.776C664.251 165.084 664.637 164.699 664.637 164.224V158.311C664.637 157.836 664.251 157.45 663.776 157.45Z" fill="#42D8E4"/>
<path id="Friend2Select" d="M660.305 172.024H611.355C610.879 172.024 610.494 172.409 610.494 172.885V188.513C610.494 188.988 610.879 189.373 611.355 189.373H660.305C660.781 189.373 661.166 188.988 661.166 188.513V172.885C661.166 172.409 660.781 172.024 660.305 172.024Z" fill="#FFB36E"/>
<path id="Friend3Info" opacity="0.3" d="M663.776 251.832H424.632C424.156 251.832 423.771 252.217 423.771 252.692V258.605C423.771 259.08 424.156 259.466 424.632 259.466H663.776C664.251 259.466 664.637 259.08 664.637 258.605V252.692C664.637 252.217 664.251 251.832 663.776 251.832Z" fill="#42D8E4"/>
<path id="Friend3Select" opacity="0.55" d="M660.305 266.405H611.355C610.879 266.405 610.494 266.791 610.494 267.266V282.894C610.494 283.37 610.879 283.755 611.355 283.755H660.305C660.781 283.755 661.166 283.37 661.166 282.894V267.266C661.166 266.791 660.781 266.405 660.305 266.405Z" fill="#FFB36E"/>
<g id="Friend2">
<path id="Vector_13" d="M371.496 207.778C390.48 207.778 405.869 192.392 405.869 173.412C405.869 154.432 390.48 139.046 371.496 139.046C352.511 139.046 337.122 154.432 337.122 173.412C337.122 192.392 352.511 207.778 371.496 207.778Z" fill="#3F3D56"/>
<path id="Vector_14" d="M401.829 191.539C401.792 191.622 401.743 191.699 401.684 191.768C401.309 192.387 400.904 192.987 400.469 193.565C396.657 198.841 391.42 202.921 385.371 205.328C384.774 205.578 384.164 205.807 383.546 206.022C382.974 205.564 382.444 205.055 381.963 204.502C380.529 202.874 379.569 200.884 379.187 198.749C378.272 198.926 377.342 199.014 376.41 199.013C376.318 199.02 376.225 199.02 376.132 199.013C368.983 198.888 362.847 193.655 360.105 186.188L359.994 185.869C358.322 181.005 358.133 175.753 359.452 170.782V170.782C359.487 170.615 359.542 170.449 359.591 170.289C361.937 162.232 368.129 156.361 375.494 155.896C375.723 155.896 375.952 155.896 376.188 155.896C376.424 155.896 376.563 155.896 376.75 155.896H377.083C386.413 156.236 393.923 165.258 394.27 176.542C396.177 177.794 397.687 179.564 398.622 181.643C399.558 183.723 399.881 186.027 399.553 188.284C400.483 189.238 401.252 190.337 401.829 191.539Z" fill="#192534"/>
<path id="Vector_15" opacity="0.1" d="M401.684 191.768C401.309 192.387 400.904 192.987 400.469 193.565C399.966 192.663 399.343 191.835 398.616 191.101C398.695 190.529 398.737 189.952 398.74 189.373C398.74 187.387 398.246 185.431 397.302 183.683C396.358 181.935 394.994 180.449 393.333 179.359C392.951 167.839 385.115 158.637 375.515 158.637C368.657 158.637 362.708 163.315 359.716 170.185C359.64 170.365 359.57 170.539 359.487 170.726C359.237 171.323 359.015 171.927 358.793 172.558C359.038 171.29 359.379 170.042 359.813 168.825L359.91 168.728C362.583 161.364 368.552 156.139 375.563 155.826C375.792 155.826 376.021 155.826 376.257 155.826C376.493 155.826 376.632 155.826 376.82 155.826H377.153C386.35 156.382 393.715 165.362 394.069 176.528C395.98 177.776 397.494 179.545 398.432 181.626C399.371 183.706 399.695 186.012 399.365 188.27C400.34 189.289 401.125 190.473 401.684 191.768V191.768Z" fill="black"/>
<path id="Vector_16" d="M365.463 181.913C365.549 182.616 365.468 183.329 365.227 183.995C364.818 184.946 363.839 185.799 364.11 186.771C364.247 187.076 364.455 187.344 364.715 187.554C364.976 187.764 365.282 187.909 365.609 187.979C368.601 188.992 371.856 188.388 375.022 188.527C376.076 188.619 377.135 188.656 378.194 188.638C379.259 188.614 380.289 188.255 381.137 187.611C379.493 186.812 377.94 185.837 376.507 184.703C376.159 184.445 375.844 184.144 375.57 183.808C374.982 182.856 374.698 181.747 374.758 180.629C374.758 179.526 374.758 178.422 374.758 177.326C372.495 177.326 370.239 177.291 367.976 177.291C367.282 177.291 365.04 177.118 364.783 177.902C364.658 178.291 365.144 179.436 365.221 179.873C365.337 180.548 365.418 181.229 365.463 181.913V181.913Z" fill="#A0616A"/>
<path id="Vector_17" opacity="0.1" d="M365.463 181.913C365.549 182.616 365.468 183.329 365.227 183.995C364.818 184.946 363.839 185.799 364.11 186.771C364.247 187.076 364.455 187.344 364.715 187.554C364.976 187.764 365.282 187.909 365.609 187.979C368.601 188.992 371.856 188.388 375.022 188.527C376.076 188.619 377.135 188.656 378.194 188.638C379.259 188.614 380.289 188.255 381.137 187.611C379.493 186.812 377.94 185.837 376.507 184.703C376.159 184.445 375.844 184.144 375.57 183.808C374.982 182.856 374.698 181.747 374.758 180.629C374.758 179.526 374.758 178.422 374.758 177.326C372.495 177.326 370.239 177.291 367.976 177.291C367.282 177.291 365.04 177.118 364.783 177.902C364.658 178.291 365.144 179.436 365.221 179.873C365.337 180.548 365.418 181.229 365.463 181.913V181.913Z" fill="black"/>
<path id="Vector_18" d="M370.114 180.914C374.519 180.914 378.09 177.344 378.09 172.94C378.09 168.536 374.519 164.966 370.114 164.966C365.709 164.966 362.139 168.536 362.139 172.94C362.139 177.344 365.709 180.914 370.114 180.914Z" fill="#A0616A"/>
<path id="Vector_19" d="M385.239 196.07C385.239 196.286 385.198 196.515 385.163 196.764C384.905 198.058 384.526 199.324 384.032 200.547C383.739 201.376 383.386 202.183 382.977 202.962C382.678 203.496 382.282 203.989 381.963 204.509L381.505 205.252C381.213 205.752 380.964 206.277 380.762 206.82C379.423 207.163 378.062 207.411 376.688 207.563C375.345 207.724 373.993 207.805 372.641 207.806C365.387 207.806 357.564 205.925 352.018 202.08C352.018 202.08 352.83 201.518 352.712 201.386C352.712 201.067 352.677 200.755 352.677 200.436C352.669 199.614 352.803 198.797 353.073 198.02C353.309 197.277 353.721 196.601 354.274 196.05C354.968 195.356 355.898 194.925 356.641 194.259C357.59 193.341 358.261 192.175 358.578 190.893V190.893C358.751 190.338 358.876 189.748 358.994 189.179C359.1 188.401 359.315 187.642 359.633 186.924C359.677 186.832 359.728 186.744 359.785 186.66C359.891 186.482 360.017 186.317 360.16 186.167C360.868 185.477 361.696 184.922 362.604 184.529C363.36 184.141 364.422 183.836 364.95 184.481V184.529C365.122 184.926 365.269 185.335 365.387 185.751C365.811 186.625 366.991 186.736 367.948 186.716C371.336 186.645 374.716 186.362 378.069 185.869L379.693 185.605C380.866 185.411 381.685 186.438 382.345 187.437C384.052 190.012 385.496 192.975 385.239 196.07Z" fill="#FFDA88"/>
<path id="Vector_20" opacity="0.1" d="M360.882 196.612C360.139 196.778 359.709 197.528 359.362 198.208C358.704 199.326 358.415 200.622 358.536 201.914C358.516 202.421 358.57 202.928 358.696 203.42C358.824 203.915 359.137 204.342 359.57 204.613" stroke="black" stroke-miterlimit="10"/>
<path id="Vector_21" d="M380.797 169.42C381.399 167.066 378.018 164.168 373.245 162.948C368.472 161.729 364.115 162.648 363.513 165.002C362.911 167.357 366.292 170.254 371.065 171.474C375.838 172.694 380.195 171.774 380.797 169.42Z" fill="#192534"/>
<path id="Vector_22" opacity="0.1" d="M371.509 169.803C367.268 168.721 364.131 166.333 363.874 164.14C363.677 164.387 363.535 164.674 363.457 164.98C362.853 167.333 366.234 170.227 371.003 171.448C375.771 172.669 380.131 171.746 380.721 169.366C380.788 169.103 380.806 168.83 380.776 168.561C379.506 170.31 375.667 170.865 371.509 169.803Z" fill="black"/>
<path id="Vector_23" d="M385.448 201.726C385.448 202.934 385.448 204.134 385.371 205.328C384.774 205.578 384.164 205.807 383.546 206.022C382.636 206.338 381.709 206.602 380.769 206.813C379.43 207.156 378.069 207.404 376.695 207.556C376.452 204.683 375.903 201.914 376.174 198.999C376.399 196.766 377.167 194.622 378.409 192.753C378.896 191.935 379.594 191.261 380.429 190.803C380.846 190.582 381.318 190.484 381.789 190.52C382.26 190.557 382.71 190.728 383.088 191.011C383.56 191.504 383.891 192.116 384.046 192.781C384.514 194.083 384.89 195.416 385.17 196.771C385.17 196.917 385.219 197.077 385.24 197.229C385.432 198.72 385.501 200.224 385.448 201.726V201.726Z" fill="#A0616A"/>
</g>
<g id="Friend3">
<path id="Vector_24" d="M405.862 267.793C405.878 273.541 404.446 279.2 401.697 284.248C401.392 284.803 401.073 285.365 400.712 285.92C400.674 286.003 400.625 286.08 400.566 286.149C400.192 286.768 399.786 287.368 399.351 287.947C396.714 291.603 393.375 294.698 389.529 297.052L389.328 297.19C388.064 297.949 386.754 298.628 385.406 299.224C385.031 299.39 384.642 299.55 384.254 299.709C383.865 299.869 383.504 300.015 383.115 300.14C382.921 300.223 382.713 300.292 382.511 300.362C382.488 300.359 382.465 300.359 382.442 300.362C382.019 300.515 381.581 300.646 381.151 300.778L380.825 300.855C380.436 300.973 380.047 301.07 379.659 301.153C378.317 301.496 376.953 301.745 375.577 301.896C374.243 302.057 372.901 302.138 371.558 302.138C371.419 302.138 371.28 302.138 371.141 302.138C369.279 302.133 367.42 301.961 365.588 301.625L365.255 301.569C364.915 301.514 364.561 301.444 364.235 301.361L363.589 301.215C362.904 301.065 362.228 300.88 361.562 300.66C360.206 300.254 358.878 299.76 357.585 299.182L357.439 299.12C355.546 298.262 353.736 297.233 352.032 296.045C351.887 295.96 351.748 295.865 351.615 295.761C346.817 292.34 342.978 287.744 340.469 282.413C337.96 277.081 336.864 271.195 337.287 265.318C337.71 259.441 339.637 253.772 342.884 248.854C346.131 243.937 350.588 239.937 355.827 237.239C361.066 234.541 366.911 233.235 372.8 233.447C378.69 233.658 384.426 235.381 389.458 238.448C394.489 241.516 398.647 245.826 401.532 250.963C404.417 256.101 405.932 261.894 405.932 267.786L405.862 267.793Z" fill="#3F3D56"/>
<path id="Vector_25" d="M379.811 259.514C379.729 261.392 378.926 263.165 377.568 264.465C376.21 265.764 374.403 266.49 372.523 266.49C370.643 266.49 368.836 265.764 367.478 264.465C366.12 263.165 365.316 261.392 365.234 259.514C365.234 259.396 365.234 259.278 365.234 259.167C365.234 257.235 366.002 255.381 367.369 254.015C368.736 252.648 370.59 251.88 372.523 251.88C374.456 251.88 376.31 252.648 377.677 254.015C379.043 255.381 379.811 257.235 379.811 259.167C379.804 259.278 379.811 259.396 379.811 259.514Z" fill="#192534"/>
<path id="Vector_26" opacity="0.1" d="M379.811 259.514C379.729 261.392 378.926 263.165 377.568 264.465C376.21 265.764 374.403 266.49 372.523 266.49C370.643 266.49 368.836 265.764 367.478 264.465C366.12 263.165 365.316 261.392 365.234 259.514C365.234 259.396 365.234 259.278 365.234 259.167C367.291 257.485 369.866 256.566 372.523 256.566C375.18 256.566 377.755 257.485 379.811 259.167C379.804 259.278 379.811 259.396 379.811 259.514Z" fill="black"/>
<path id="Vector_27" d="M372.516 280.236C378.876 280.236 384.032 275.082 384.032 268.723C384.032 262.365 378.876 257.21 372.516 257.21C366.156 257.21 361 262.365 361 268.723C361 275.082 366.156 280.236 372.516 280.236Z" fill="#192534"/>
<path id="Vector_28" d="M365.54 257.904C365.541 256.138 366.184 254.432 367.348 253.103C368.512 251.774 370.119 250.913 371.87 250.68C370.839 250.54 369.79 250.623 368.793 250.922C367.796 251.221 366.875 251.73 366.092 252.415C365.308 253.1 364.68 253.944 364.249 254.891C363.819 255.839 363.596 256.867 363.596 257.908C363.596 258.948 363.819 259.976 364.249 260.924C364.68 261.871 365.308 262.715 366.092 263.4C366.875 264.085 367.796 264.594 368.793 264.893C369.79 265.192 370.839 265.275 371.87 265.135C370.118 264.902 368.51 264.039 367.346 262.709C366.181 261.379 365.539 259.672 365.54 257.904V257.904Z" fill="#192534"/>
<path id="Vector_29" d="M359.522 273.401C358.197 272.231 357.342 270.62 357.116 268.867C356.891 267.115 357.309 265.34 358.293 263.872C358.048 264.089 357.816 264.321 357.599 264.566C356.938 265.28 356.427 266.119 356.095 267.033C355.763 267.947 355.618 268.918 355.667 269.89C355.716 270.861 355.96 271.813 356.382 272.689C356.805 273.564 357.398 274.347 358.128 274.99C358.857 275.634 359.708 276.125 360.63 276.434C361.552 276.744 362.527 276.866 363.497 276.794C364.467 276.721 365.413 276.456 366.278 276.012C367.144 275.569 367.913 274.957 368.538 274.213C368.751 273.971 368.948 273.716 369.128 273.449C367.793 274.606 366.083 275.238 364.316 275.229C362.549 275.22 360.846 274.57 359.522 273.401V273.401Z" fill="#192534"/>
<path id="Vector_30" d="M366.491 283.325C365.891 283.443 365.311 283.646 364.769 283.928C363.811 284.622 363.846 286.01 364.131 287.142C364.783 289.723 366.38 292.201 368.823 293.255C370.336 293.813 371.948 294.05 373.557 293.949C375.299 293.949 377.271 293.714 378.354 292.339C378.841 291.615 379.174 290.797 379.332 289.938C379.867 287.856 380.408 285.705 380.214 283.554C379.159 283.644 377.979 283.706 377.146 283.04C376.313 282.374 376.125 281.104 375.758 280.049C375.718 279.879 375.622 279.728 375.487 279.619C375.335 279.55 375.166 279.526 375.001 279.549C373.893 279.597 372.783 279.55 371.683 279.411C370.989 279.32 369.309 278.606 368.795 279.209C368.42 279.647 368.656 280.979 368.365 281.597C368.183 281.994 367.923 282.352 367.601 282.649C367.28 282.945 366.902 283.175 366.491 283.325V283.325Z" fill="#FFC1C7"/>
<path id="Vector_31" opacity="0.05" d="M366.491 283.325C365.891 283.443 365.311 283.646 364.769 283.928C363.811 284.622 363.846 286.01 364.131 287.142C364.783 289.723 366.38 292.201 368.823 293.255C370.336 293.813 371.948 294.05 373.557 293.949C375.299 293.949 377.271 293.714 378.354 292.339C378.841 291.615 379.174 290.797 379.332 289.938C379.867 287.856 380.408 285.705 380.214 283.554C379.159 283.644 377.979 283.706 377.146 283.04C376.313 282.374 376.125 281.104 375.758 280.049C375.718 279.879 375.622 279.728 375.487 279.619C375.335 279.55 375.166 279.526 375.001 279.549C373.893 279.597 372.783 279.55 371.683 279.411C370.989 279.32 369.309 278.606 368.795 279.209C368.42 279.647 368.656 280.979 368.365 281.597C368.183 281.994 367.923 282.352 367.601 282.649C367.28 282.945 366.902 283.175 366.491 283.325V283.325Z" fill="black"/>
<path id="Vector_32" d="M372.356 282.332C376.803 282.332 380.408 278.728 380.408 274.282C380.408 269.836 376.803 266.232 372.356 266.232C367.909 266.232 364.304 269.836 364.304 274.282C364.304 278.728 367.909 282.332 372.356 282.332Z" fill="#FFC1C7"/>
<path id="Vector_33" d="M390.008 291.722C389.953 291.791 389.897 291.874 389.835 291.944L389.495 292.388C387.78 294.442 386.392 296.748 385.378 299.224C385.003 299.39 384.615 299.55 384.226 299.709C383.837 299.869 383.476 300.015 383.088 300.14C382.893 300.223 382.685 300.292 382.484 300.362C382.461 300.359 382.437 300.359 382.414 300.362C381.991 300.515 381.554 300.646 381.123 300.778L380.797 300.855C380.408 300.973 380.02 301.07 379.631 301.153C378.29 301.496 376.926 301.745 375.549 301.896C374.216 302.057 372.874 302.138 371.53 302.138C371.391 302.138 371.253 302.138 371.114 302.138C369.251 302.133 367.393 301.961 365.561 301.625L365.227 301.569C364.887 301.514 364.533 301.444 364.207 301.361L363.562 301.215C362.877 301.065 362.2 300.88 361.535 300.66C361.721 299.497 362.239 298.413 363.027 297.537C361.465 295.671 358.897 294.935 357.238 293.172C357.093 293.005 356.959 292.828 356.835 292.645C356.749 292.512 356.677 292.37 356.62 292.221C356.571 292.104 356.54 291.98 356.53 291.854C356.478 291.598 356.457 291.337 356.467 291.076C356.426 289.105 356.516 286.857 358.043 285.622C358.793 285.097 359.637 284.72 360.528 284.511C362.078 284.026 363.587 283.418 365.04 282.693C365.173 283.003 365.262 283.33 365.304 283.665C365.443 284.47 365.429 285.316 365.616 286.114C365.98 287.538 366.861 288.775 368.087 289.584C369.31 290.385 370.703 290.891 372.155 291.063C373.585 291.271 374.723 290.528 376.07 290.022C376.666 289.831 377.217 289.519 377.687 289.105C378.295 288.404 378.62 287.501 378.597 286.572C378.597 285.656 378.492 284.74 378.548 283.797C378.549 283.701 378.561 283.605 378.583 283.512C378.585 283.271 378.662 283.036 378.804 282.841C378.946 282.645 379.145 282.499 379.374 282.422C379.634 282.401 379.895 282.449 380.131 282.561L382.727 283.554C383.852 283.943 384.935 284.443 385.961 285.046C387.095 285.782 388.048 286.765 388.749 287.921C389.45 289.077 389.88 290.376 390.008 291.722V291.722Z" fill="#63FFFF"/>
<path id="Vector_34" opacity="0.1" d="M365.526 301.632L365.193 301.576C364.853 301.521 364.499 301.451 364.172 301.368L363.527 301.222C362.842 301.072 362.165 300.887 361.5 300.667C360.144 300.261 358.815 299.767 357.523 299.189C356.872 297.075 356.637 294.855 356.828 292.652C356.913 291.707 357.108 290.775 357.411 289.876C358.869 291.264 361.354 290.48 363.006 291.59C363.454 291.907 363.82 292.325 364.075 292.811C364.537 293.701 364.852 294.659 365.005 295.65C365.109 296.191 365.207 296.739 365.29 297.287C365.29 297.385 365.29 297.461 365.29 297.544C365.29 297.628 365.29 297.718 365.29 297.808C365.345 298.197 365.394 298.599 365.415 298.995C365.526 299.89 365.526 300.75 365.526 301.632Z" fill="black"/>
<path id="Vector_35" d="M365.193 301.576C364.853 301.521 364.499 301.451 364.172 301.368L363.527 301.222C362.842 301.072 362.166 300.887 361.5 300.667C360.144 300.261 358.815 299.767 357.523 299.189L357.377 299.127C356.58 296.792 356.279 294.318 356.495 291.861C356.595 290.974 356.785 290.099 357.064 289.251C358.522 290.639 361.007 289.869 362.659 290.979C363.296 291.437 363.779 292.075 364.047 292.811C364.317 293.524 364.519 294.261 364.651 295.011C364.804 295.823 364.95 296.635 365.047 297.461C365.069 297.575 365.08 297.692 365.082 297.808C365.082 297.884 365.082 297.981 365.082 298.058C365.082 298.134 365.082 298.252 365.082 298.356C365.214 299.418 365.207 300.501 365.193 301.576Z" fill="#63FFFF"/>
<path id="Vector_36" opacity="0.1" d="M389.3 297.19C388.036 297.949 386.727 298.628 385.378 299.224C385.003 299.39 384.615 299.55 384.226 299.709C383.837 299.869 383.476 300.015 383.088 300.14C382.893 300.223 382.685 300.292 382.484 300.362C382.461 300.359 382.437 300.359 382.414 300.362C381.991 300.514 381.554 300.646 381.123 300.778L380.797 300.855C380.797 300.237 380.797 299.598 380.866 298.974C380.915 298.481 380.971 297.988 381.04 297.496C381.04 297.405 381.04 297.315 381.075 297.225C381.081 297.167 381.081 297.109 381.075 297.052C381.158 296.58 381.248 296.101 381.338 295.629C381.482 294.636 381.797 293.676 382.269 292.791C382.529 292.314 382.897 291.905 383.344 291.597C384.997 290.486 387.509 291.243 388.898 289.883C389.171 290.689 389.359 291.522 389.46 292.367C389.648 293.974 389.594 295.6 389.3 297.19V297.19Z" fill="black"/>
<path id="Vector_37" d="M389.501 297.052L389.3 297.19C388.036 297.949 386.726 298.628 385.378 299.224C385.003 299.39 384.615 299.55 384.226 299.709C383.837 299.869 383.476 300.015 383.088 300.14C382.893 300.223 382.685 300.292 382.484 300.362C382.461 300.359 382.437 300.359 382.414 300.362C381.991 300.514 381.554 300.646 381.123 300.778C381.123 299.959 381.123 299.147 381.193 298.335C381.193 298.127 381.193 297.912 381.248 297.704C381.248 297.614 381.248 297.51 381.248 297.419C381.248 297.329 381.248 297.267 381.248 297.204C381.352 296.455 381.477 295.726 381.63 294.99C381.762 294.24 381.964 293.503 382.234 292.791C382.502 292.054 382.986 291.416 383.622 290.958C385.274 289.848 387.787 290.604 389.175 289.23C389.473 290.102 389.669 291.006 389.758 291.923C389.945 293.635 389.858 295.366 389.501 297.052V297.052Z" fill="#63FFFF"/>
<path id="Vector_38" d="M372.197 273.151C377.533 273.151 381.859 270.267 381.859 266.711C381.859 263.154 377.533 260.271 372.197 260.271C366.86 260.271 362.534 263.154 362.534 266.711C362.534 270.267 366.86 273.151 372.197 273.151Z" fill="#192534"/>
<path id="Vector_39" opacity="0.05" d="M364.165 300.397C364.165 300.542 364.165 300.695 364.165 300.855C364.165 301.014 364.165 301.16 364.165 301.313C364.163 301.331 364.163 301.35 364.165 301.368V301.368L363.52 301.222C363.509 301.1 363.509 300.977 363.52 300.855C363.519 300.211 363.657 299.575 363.924 298.989C364.191 298.404 364.581 297.882 365.068 297.461C365.131 297.394 365.204 297.335 365.283 297.287C365.656 296.985 366.079 296.75 366.532 296.594C366.949 296.433 367.391 296.348 367.837 296.344C367.897 296.337 367.958 296.337 368.018 296.344C368.129 296.337 368.24 296.337 368.351 296.344H368.122C367.059 296.456 366.073 296.949 365.345 297.732C365.265 297.807 365.192 297.89 365.13 297.981C364.575 298.672 364.239 299.513 364.165 300.397V300.397Z" fill="black"/>
<path id="Vector_40" d="M371.232 300.855C371.231 301.289 371.18 301.722 371.079 302.145C369.216 302.14 367.358 301.968 365.526 301.632L365.193 301.576C364.853 301.521 364.499 301.451 364.172 301.368V301.313C364.172 301.16 364.172 301.014 364.172 300.855C364.172 300.695 364.172 300.542 364.172 300.397C364.231 299.465 364.548 298.569 365.089 297.808C365.15 297.712 365.223 297.624 365.304 297.544C365.627 297.14 366.044 296.821 366.519 296.614C366.883 296.441 367.281 296.351 367.685 296.351C367.731 296.344 367.778 296.344 367.824 296.351C367.918 296.344 368.013 296.344 368.108 296.351C369.864 296.649 371.232 298.551 371.232 300.855Z" fill="#63FFFF"/>
<path id="Vector_41" opacity="0.05" d="M383.088 300.14C382.893 300.223 382.685 300.292 382.484 300.362C382.384 299.368 381.948 298.437 381.248 297.725L381.04 297.517C380.347 296.895 379.479 296.5 378.555 296.385H378.326C378.432 296.379 378.539 296.379 378.645 296.385C378.707 296.379 378.77 296.379 378.833 296.385C379.281 296.396 379.724 296.48 380.144 296.635C380.478 296.75 380.798 296.903 381.095 297.093C381.173 297.133 381.243 297.184 381.304 297.246C381.777 297.587 382.179 298.018 382.485 298.515C382.791 299.011 382.996 299.564 383.088 300.14V300.14Z" fill="black"/>
<path id="Vector_42" d="M382.484 300.362C382.461 300.359 382.437 300.359 382.414 300.362C381.991 300.514 381.554 300.646 381.123 300.778L380.797 300.855C380.408 300.973 380.02 301.07 379.631 301.153C378.29 301.496 376.926 301.744 375.549 301.896V301.896C375.479 301.546 375.444 301.19 375.445 300.834C375.445 298.53 376.833 296.628 378.576 296.364C378.668 296.357 378.761 296.357 378.853 296.364C378.897 296.358 378.942 296.358 378.985 296.364C379.393 296.363 379.797 296.453 380.165 296.628C380.511 296.781 380.826 296.995 381.095 297.26C381.172 297.317 381.241 297.382 381.304 297.454C382 298.271 382.414 299.291 382.484 300.362Z" fill="#63FFFF"/>
<path id="Vector_43" opacity="0.1" d="M372.197 272.512C367.018 272.512 362.791 269.806 362.541 266.398C362.541 266.503 362.541 266.607 362.541 266.718C362.541 270.278 366.873 273.158 372.21 273.158C377.548 273.158 381.873 270.278 381.873 266.718C381.873 266.607 381.873 266.503 381.873 266.398C381.595 269.806 377.368 272.512 372.197 272.512Z" fill="black"/>
</g>
<g id="Friend1Pic">
<path id="Vector_44" d="M337.122 80.592C337.11 86.3367 338.542 91.9924 341.287 97.0393C341.599 97.6015 341.918 98.1636 342.272 98.7118C342.312 98.7948 342.364 98.8719 342.425 98.9408C342.807 99.5546 343.222 100.148 343.667 100.717C345.109 102.723 346.772 104.559 348.624 106.193C348.967 106.522 349.329 106.833 349.706 107.123C350.896 108.116 352.158 109.019 353.483 109.822L353.691 109.961C354.954 110.718 356.262 111.399 357.606 112.002L358.765 112.48C359.147 112.64 359.508 112.793 359.903 112.918C360.098 112.994 360.299 113.063 360.507 113.133H360.604C361.026 113.285 361.456 113.424 361.896 113.549L362.215 113.625C362.604 113.743 362.999 113.848 363.388 113.924C363.916 114.063 364.436 114.181 364.978 114.278C365.79 114.437 366.63 114.576 367.463 114.673C368.796 114.833 370.138 114.912 371.482 114.909H371.891C373.754 114.898 375.612 114.724 377.444 114.389C377.556 114.378 377.668 114.359 377.777 114.333C378.118 114.278 378.472 114.208 378.798 114.125C379.02 114.084 379.221 114.035 379.443 113.979C380.138 113.827 380.832 113.646 381.47 113.431C381.88 113.299 382.282 113.174 382.685 113.036C383.497 112.751 384.309 112.446 385.087 112.099C385.208 112.059 385.326 112.01 385.441 111.953L385.593 111.884C386.621 111.421 387.62 110.905 388.592 110.336C389.418 109.864 390.223 109.351 391.001 108.809H391.049C391.176 108.735 391.297 108.652 391.41 108.559C396.215 105.142 400.059 100.547 402.573 95.2155C405.088 89.8839 406.188 83.9951 405.768 78.1155C405.348 72.2359 403.422 66.5631 400.176 61.6427C396.929 56.7222 392.471 52.7195 387.23 50.0195C381.989 47.3195 376.141 46.013 370.249 46.2256C364.357 46.4381 358.619 48.1626 353.586 51.2333C348.553 54.3039 344.395 58.6174 341.512 63.759C338.628 68.9006 337.117 74.6974 337.122 80.592V80.592Z" fill="#3F3D56"/>
<path id="Vector_45" d="M379.124 94.2079C379.631 94.654 379.983 95.2493 380.131 95.9082C379.131 96.1719 378.111 95.6791 377.181 95.2142C374.292 93.8598 371.244 92.8781 368.108 92.2925C367.857 92.2692 367.617 92.1781 367.414 92.0288C367.257 91.8164 367.175 91.5572 367.183 91.2929C367.19 91.0286 367.286 90.7746 367.456 90.5715C367.803 90.2106 368.455 90.2592 368.927 90.2383C370.809 90.1421 372.689 90.4434 374.446 91.1226C376.203 91.8018 377.797 92.8436 379.124 94.1801V94.2079Z" fill="#63FFFF"/>
<path id="Vector_46" d="M368.969 91.4459C368.761 91.9657 368.45 92.4383 368.056 92.8354C367.661 93.2324 367.19 93.5458 366.671 93.7568C366.109 93.9581 365.505 93.9928 364.936 94.1524C364.645 94.2131 364.371 94.3406 364.138 94.5249C363.904 94.7091 363.716 94.9451 363.589 95.2142C363.513 95.4565 363.478 95.7098 363.485 95.9637C363.395 98.3579 363.326 100.822 364.283 103.042C365.109 104.944 366.623 106.443 368.122 107.865C369.871 109.538 371.725 111.231 374.029 111.981C375.376 112.418 376.965 112.467 378.083 111.599C378.521 111.219 378.902 110.777 379.214 110.287C379.994 109.267 380.646 108.155 381.158 106.977C382.109 104.534 381.79 101.8 381.456 99.1976C381.454 99.043 381.395 98.8946 381.29 98.7812C381.145 98.691 380.971 98.6611 380.804 98.698C380.208 98.7585 379.608 98.6303 379.088 98.3315C378.569 98.0326 378.156 97.5782 377.909 97.0324C377.766 96.537 377.712 96.02 377.75 95.5056L377.798 92.5354C377.822 92.2166 377.784 91.8963 377.687 91.5916C377.414 91.0966 376.974 90.7151 376.445 90.5159C374.822 89.704 373.131 89.0375 371.391 88.5242C370.628 88.3021 370.045 87.9274 369.705 88.7463C369.365 89.5652 369.365 90.5853 368.969 91.4459Z" fill="#FBBEBE"/>
<path id="Vector_47" opacity="0.1" d="M368.969 91.4459C368.761 91.9657 368.45 92.4383 368.056 92.8354C367.661 93.2324 367.19 93.5458 366.671 93.7568C366.109 93.9581 365.505 93.9928 364.936 94.1524C364.645 94.2131 364.371 94.3406 364.138 94.5249C363.904 94.7091 363.716 94.9451 363.589 95.2142C363.513 95.4565 363.478 95.7098 363.485 95.9637C363.395 98.3579 363.326 100.822 364.283 103.042C365.109 104.944 366.623 106.443 368.122 107.865C369.871 109.538 371.725 111.231 374.029 111.981C375.376 112.418 376.965 112.467 378.083 111.599C378.521 111.219 378.902 110.777 379.214 110.287C379.994 109.267 380.646 108.155 381.158 106.977C382.109 104.534 381.79 101.8 381.456 99.1976C381.454 99.043 381.395 98.8946 381.29 98.7812C381.145 98.691 380.971 98.6611 380.804 98.698C380.208 98.7585 379.608 98.6303 379.088 98.3315C378.569 98.0326 378.156 97.5782 377.909 97.0324C377.766 96.537 377.712 96.02 377.75 95.5056L377.798 92.5354C377.822 92.2166 377.784 91.8963 377.687 91.5916C377.414 91.0966 376.974 90.7151 376.445 90.5159C374.822 89.704 373.131 89.0375 371.391 88.5242C370.628 88.3021 370.045 87.9274 369.705 88.7463C369.365 89.5652 369.365 90.5853 368.969 91.4459Z" fill="black"/>
<path id="Vector_48" d="M377.007 93.854C382.014 93.854 386.072 89.7961 386.072 84.7906C386.072 79.785 382.014 75.7272 377.007 75.7272C372 75.7272 367.942 79.785 367.942 84.7906C367.942 89.7961 372 93.854 377.007 93.854Z" fill="#FBBEBE"/>
<path id="Vector_49" d="M364.964 114.319C365.776 114.479 366.616 114.618 367.449 114.715C368.782 114.874 370.125 114.953 371.468 114.951H371.877C373.74 114.94 375.598 114.765 377.43 114.431C377.543 114.419 377.654 114.401 377.764 114.375C378.104 114.319 378.458 114.25 378.784 114.167C379.006 114.125 379.207 114.077 379.43 114.021C380.124 113.868 380.818 113.688 381.456 113.473C381.866 113.341 382.269 113.216 382.671 113.077C383.483 112.793 384.296 112.487 385.073 112.14C384.873 111.523 384.708 110.895 384.58 110.26C384.356 108.902 384.268 107.526 384.316 106.151C384.316 105.048 384.365 103.951 384.316 102.855C384.334 101.965 384.205 101.079 383.935 100.232C383.797 99.8082 383.576 99.4165 383.285 99.0793C382.995 98.7421 382.639 98.4662 382.241 98.2677C381.207 97.8097 379.652 97.5737 378.631 98.0872C378.515 98.1499 378.403 98.2219 378.298 98.3024C378.076 98.4882 377.904 98.7268 377.798 98.9964C377.465 99.8291 377.104 100.669 376.785 101.502C376.579 102.082 376.307 102.636 375.973 103.153C375.469 103.834 374.766 104.341 373.962 104.606C373.158 104.871 372.291 104.88 371.482 104.631C371.38 104.598 371.28 104.559 371.183 104.514C369.795 103.951 368.525 102.737 367.074 103.063C366.673 103.17 366.301 103.367 365.987 103.638C365.673 103.91 365.425 104.25 365.262 104.631C365.242 104.671 365.226 104.713 365.214 104.756C364.922 105.482 364.753 106.251 364.714 107.033C364.504 109.463 364.588 111.909 364.964 114.319V114.319Z" fill="#F2F2F2"/>
<path id="Vector_50" d="M348.624 106.214C348.967 106.543 349.329 106.854 349.707 107.144C350.896 108.137 352.158 109.04 353.483 109.843L353.691 109.982C354.954 110.739 356.262 111.42 357.606 112.022L358.765 112.501C359.147 112.661 359.508 112.814 359.903 112.938C360.098 113.015 360.299 113.084 360.507 113.154H360.604C361.026 113.306 361.456 113.445 361.896 113.57L362.215 113.646C362.604 113.764 362.999 113.868 363.388 113.945C363.916 114.084 364.436 114.201 364.978 114.299C365.79 114.458 366.63 114.597 367.463 114.694C368.796 114.854 370.138 114.932 371.482 114.93H371.891C373.754 114.919 375.612 114.745 377.444 114.41C377.556 114.399 377.668 114.38 377.777 114.354C378.118 114.299 378.472 114.229 378.798 114.146C379.02 114.104 379.221 114.056 379.443 114C380.138 113.848 380.832 113.667 381.47 113.452C381.88 113.32 382.282 113.195 382.685 113.056C383.497 112.772 384.309 112.467 385.087 112.12C385.208 112.079 385.326 112.031 385.441 111.974L385.593 111.904C386.621 111.442 387.62 110.926 388.592 110.357C389.274 108.54 389.853 106.687 390.327 104.805C390.324 104.768 390.324 104.731 390.327 104.694C389.245 102.772 388.287 100.773 387.211 98.8506C386.905 98.1269 386.413 97.4967 385.785 97.0239C385.158 96.5511 384.416 96.2524 383.636 96.158C382.884 95.91 382.102 95.7652 381.311 95.7277C380.861 95.6858 380.416 95.6093 379.978 95.4987C379.075 95.2975 378.076 95.1031 377.743 95.4987C377.728 95.5091 377.717 95.5227 377.708 95.5383C377.7 95.5539 377.695 95.5712 377.694 95.5889C377.569 96.0551 377.626 96.5512 377.854 96.9769C378.006 97.4141 378.208 97.8721 378.312 98.2469C378.374 98.4257 378.409 98.6128 378.416 98.802C378.441 99.6149 378.413 100.429 378.333 101.238C378.138 102.418 377.486 103.459 377.18 104.604C377.042 105.145 376.972 105.707 376.882 106.255C376.689 107.494 376.366 108.708 375.917 109.878C375.836 110.127 375.717 110.361 375.563 110.572C374.994 111.266 374.05 111.002 373.154 110.87C372.502 110.315 372.537 109.33 372.46 108.497C372.269 107.098 371.842 105.742 371.197 104.486L370.961 103.986C370.267 102.55 369.573 101.12 368.92 99.6765C368.08 97.886 367.213 95.8387 367.907 93.9858C368.108 93.4306 368.434 92.9379 368.656 92.4035C368.693 92.325 368.723 92.2438 368.747 92.1607C368.811 91.956 368.846 91.7435 368.851 91.5291C368.875 91.3375 368.86 91.1428 368.805 90.9576C368.75 90.7724 368.657 90.6007 368.532 90.4535C368.495 90.3968 368.447 90.3474 368.393 90.3077C368.37 90.2831 368.341 90.2641 368.309 90.2522C368.081 90.1208 367.824 90.046 367.561 90.0339C367.298 90.0218 367.036 90.0729 366.796 90.1828C366.522 90.2823 366.256 90.4005 365.998 90.5367C364.635 91.3043 363.321 92.1549 362.062 93.0836C361.693 93.3029 361.405 93.6367 361.243 94.0344C361.214 94.2981 361.17 94.5599 361.111 94.8186C360.917 95.3113 360.327 95.4571 359.82 95.5681C357.725 96.0519 355.75 96.9581 354.017 98.2313C352.284 99.5045 350.829 101.118 349.741 102.973C349.373 103.569 349.084 104.211 348.88 104.881C348.757 105.317 348.671 105.763 348.624 106.214V106.214Z" fill="#63FFFF"/>
<path id="Vector_51" d="M380.998 79.6759C379.77 80.932 377.805 80.9806 376.049 80.9529L376.105 80.2589L373.64 81.1402C374.281 80.6655 374.829 80.0775 375.258 79.4053C375.086 79.2778 374.882 79.2027 374.669 79.1891C374.455 79.1756 374.243 79.2241 374.057 79.3289C373.687 79.5436 373.379 79.8495 373.161 80.2172C372.461 81.2653 372.016 82.4623 371.86 83.713C371.705 84.9636 371.844 86.2333 372.266 87.4208C372.015 87.5441 371.736 87.5994 371.457 87.5811C371.178 87.5628 370.909 87.4716 370.676 87.3167C370.214 86.9994 369.858 86.5493 369.656 86.0259C369.51 85.6927 369.358 85.3319 369.01 85.2C368.861 85.1634 368.703 85.1775 368.562 85.2404C368.422 85.3032 368.306 85.4111 368.233 85.547C368.087 85.8163 368.029 86.1244 368.066 86.4284C368.115 87.1224 368.636 87.8163 368.761 88.5103C368.886 89.2043 369.913 89.7595 369.371 90.2245C368.737 90.4632 368.074 90.6194 367.4 90.6894C367.267 90.6493 367.145 90.5771 367.046 90.4791C366.946 90.3812 366.873 90.2603 366.831 90.1273C366.283 88.9198 366.477 87.511 366.137 86.2271C365.821 85.208 365.338 84.2487 364.707 83.3887C364.555 83.1259 364.373 82.8815 364.165 82.6601C363.947 82.5004 363.767 82.2941 363.638 82.0563C363.548 81.8064 363.721 81.4387 363.985 81.4872C363.554 81.0701 363.09 80.6894 362.597 80.3491C363.083 79.7384 363.555 79.1138 363.985 78.4892C364.145 78.2672 364.311 77.9965 364.193 77.7536C364.126 77.6404 364.03 77.547 363.916 77.483L362.687 76.6502C362.687 76.0672 363.846 76.2824 364.027 75.7341C364.071 75.5895 364.071 75.4346 364.027 75.29L363.596 73.7216L365.234 74.4642C365.424 74.5731 365.641 74.6238 365.859 74.6099C366.289 74.5474 366.498 74.0408 366.553 73.6036C366.509 73.1662 366.566 72.7245 366.72 72.3128C367.463 72.3128 368.205 72.3128 368.941 72.3128C368.989 71.9417 368.892 71.5662 368.67 71.2649L374.14 70.9595C375.07 70.8537 376.011 70.9195 376.917 71.1538C377.205 71.29 377.521 71.3611 377.84 71.3621C378.152 71.3621 378.472 71.0359 378.381 70.7305C379.202 71.1934 379.952 71.7706 380.61 72.4447C380.785 72.6571 380.999 72.8338 381.241 72.9651C381.364 73.0285 381.503 73.0538 381.64 73.0377C381.778 73.0216 381.907 72.9649 382.012 72.8749C382.164 72.7153 382.234 72.4308 382.456 72.4169C382.678 72.403 382.706 72.5279 382.789 72.632C383.102 73.0338 383.357 73.4777 383.546 73.9506C383.939 73.8972 384.324 73.7946 384.691 73.6452C384.52 73.8281 384.408 74.0589 384.371 74.3068C384.333 74.5547 384.373 74.808 384.483 75.0332C384.663 75.4982 384.996 75.8937 385.219 76.3379C385.437 76.8182 385.585 77.3279 385.656 77.8508C385.767 78.5031 385.767 79.329 385.191 79.6482C384.917 79.7424 384.623 79.7585 384.341 79.6948C384.059 79.631 383.801 79.4899 383.594 79.2873C382.269 78.3435 382.026 78.6211 380.998 79.6759Z" fill="#192534"/>
<path id="Vector_52" d="M349.707 107.144C350.896 108.137 352.158 109.04 353.483 109.843L353.691 109.982C354.954 110.739 356.262 111.42 357.606 112.022L358.765 112.501C359.147 112.661 359.508 112.814 359.903 112.938C360.098 113.015 360.299 113.084 360.507 113.154C360.264 112.46 360.105 111.766 359.89 111.072C359.317 109.218 358.294 107.535 356.912 106.172C355.718 104.978 353.816 103.237 352.053 104.291C351.515 104.653 351.046 105.107 350.664 105.631C350.326 106.017 350.037 106.443 349.804 106.901C349.769 106.963 349.741 107.047 349.707 107.144Z" fill="#63FFFF"/>
<path id="Vector_53" d="M382.713 113.07C383.525 112.786 384.337 112.48 385.114 112.133C385.236 112.093 385.354 112.045 385.469 111.988L385.621 111.918C386.649 111.456 387.648 110.94 388.62 110.371C389.446 109.899 390.251 109.385 391.029 108.844H391.077C391.015 108.07 391.015 107.293 391.077 106.519C391.117 106.26 391.1 105.994 391.029 105.742C390.932 105.542 390.8 105.361 390.64 105.207C390.538 105.105 390.443 104.996 390.355 104.881C389.571 104 388.932 103.049 387.579 103.188C386.225 103.327 385.059 104.493 384.49 105.79C384.428 105.915 384.376 106.045 384.337 106.179C383.95 107.385 383.648 108.616 383.435 109.864C383.254 110.634 383.025 111.377 382.859 112.147C382.817 112.432 382.754 112.751 382.713 113.07Z" fill="#63FFFF"/>
</g>
<path id="Vector_54" d="M226.24 317.538L225.935 317.704L226.24 317.538Z" fill="url(#paint0_linear)"/>
<path id="Vector_55" d="M183.599 280.056C180.92 287.773 184.051 300.299 185.501 305.886C186.463 309.928 187.099 314.04 187.403 318.183C190.668 318.739 194.01 318.663 197.246 317.961L194.9 306.448C196.573 299.626 194.9 281.402 194.9 281.402C194.9 281.402 198.697 274.358 199.065 263.622C199.391 253.06 201.994 249.646 202.077 249.535C207.443 252.311 214.266 282.298 214.266 282.298C213.704 289.564 214.377 300.744 216.613 306.781C217.968 310.616 218.54 314.685 218.292 318.745C218.727 319.057 219.223 319.271 219.748 319.371C220.273 319.472 220.814 319.457 221.333 319.328C224.526 318.815 228.357 316.06 228.357 316.06C228.357 316.06 227.129 283.443 226.233 282.186C225.338 280.93 226.233 273.914 226.233 273.914L224.776 262.505C224.776 262.505 224.998 243.164 222.874 239.812C221.041 236.911 220.618 231.824 220.534 230.485C220.534 230.277 220.534 230.159 220.534 230.159L217.3 226.279C217.3 226.279 185.987 223.934 183.634 226.279C183.058 226.855 182.704 228.167 182.489 229.819C181.843 234.892 182.586 243.164 182.586 243.164C182.586 243.164 183.523 249.313 184.87 255.572C185.675 259.333 185.675 263.221 184.87 266.981C185.298 271.381 184.866 275.821 183.599 280.056Z" fill="#575A89"/>
<path id="Vector_56" d="M185.529 329.086C186.917 330.932 195.15 330.147 196.545 329.571C197.399 329.224 197.336 327.614 197.107 325.963C196.962 324.908 196.746 323.832 196.656 323.048C196.434 321.036 197.35 316.955 197.35 316.955C197.35 316.955 195.504 318.912 195.06 316.955C194.956 316.582 194.752 316.244 194.471 315.977C194.19 315.711 193.841 315.526 193.463 315.442C192.506 315.152 191.476 315.216 190.562 315.622C189.104 316.247 186.681 317.593 187.091 319.412C187.702 321.979 185.522 325.657 185.522 325.657C185.128 326.15 184.913 326.762 184.913 327.392C184.913 328.023 185.128 328.635 185.522 329.127L185.529 329.086Z" fill="#CBCEDA"/>
<path id="Vector_57" opacity="0.1" d="M185.529 329.086C186.917 330.932 195.15 330.147 196.545 329.571C197.399 329.225 197.336 327.614 197.107 325.963C196.226 326.372 194.719 326.719 192.248 326.483C191.665 326.43 191.078 326.412 190.492 326.428C188.713 326.512 186.929 326.477 185.154 326.324C184.956 326.774 184.886 327.27 184.952 327.758C185.018 328.245 185.218 328.705 185.529 329.086V329.086Z" fill="black"/>
<path id="Vector_58" opacity="0.1" d="M214.218 282.298C213.656 289.563 214.329 300.743 216.564 306.781C217.92 310.616 218.491 314.685 218.244 318.745C218.678 319.057 219.175 319.271 219.7 319.371C220.225 319.472 220.765 319.457 221.284 319.328C220.59 314.616 217.737 294.296 215.891 278.245C214.555 267.127 210.463 256.519 203.986 247.383L202.029 249.535C207.394 252.331 214.218 282.298 214.218 282.298Z" fill="black"/>
<path id="Vector_59" d="M188.889 164.786L190.277 171.497L196.969 182.732L205.215 179.214C205.215 179.214 216.425 167.471 209.38 165.792C208.535 165.615 207.738 165.26 207.04 164.751C206.437 164.27 205.956 163.652 205.638 162.949C205.321 162.245 205.176 161.476 205.215 160.705C205.269 159.041 205.659 157.406 206.36 155.896L191.929 151.378C192.519 153.274 192.867 155.238 192.963 157.221C193.074 161.149 191.61 163.085 190.416 164.008C189.963 164.366 189.444 164.63 188.889 164.786V164.786Z" fill="#FBBEBE"/>
<path id="Vector_60" opacity="0.1" d="M191.929 151.378C192.519 153.274 192.867 155.238 192.963 157.221C193.223 157.536 193.504 157.832 193.803 158.11C195.913 160.133 198.723 161.264 201.647 161.267C202.845 161.27 204.035 161.08 205.173 160.705C205.228 159.041 205.617 157.406 206.319 155.896L191.929 151.378Z" fill="black"/>
<path id="Vector_61" opacity="0.1" d="M188.889 164.786L190.277 171.497L196.969 182.732L205.215 179.214C205.215 179.214 216.425 167.471 209.38 165.792C208.535 165.615 207.738 165.26 207.04 164.751C208.311 168.221 203.063 175.522 203.063 175.522C202.452 176.417 201.05 175.855 201.05 175.855C197.663 175.341 191.436 165.619 190.423 164.002C189.969 164.363 189.447 164.629 188.889 164.786V164.786Z" fill="black"/>
<path id="Vector_62" opacity="0.1" d="M182.426 229.798C184.412 230.249 195.4 232.685 199.565 232.074C204.153 231.38 213.066 230.957 213.066 230.957C213.066 230.957 218.744 231.262 220.486 230.464C220.486 230.256 220.486 230.138 220.486 230.138L217.251 226.259C217.251 226.259 185.939 223.913 183.586 226.259C182.996 226.855 182.642 228.167 182.426 229.798Z" fill="black"/>
<path id="Vector_63" d="M203.035 175.735C203.035 175.735 208.935 167.567 206.707 164.382L216.675 168.469C216.675 168.469 222.672 167.741 224.838 176.693C225.185 178.182 225.311 179.713 225.213 181.238C225.154 183.608 225.719 185.951 226.851 188.033C229.315 192.953 228.753 204.244 223.721 205.382C218.688 206.52 216.897 205.937 216.897 205.937C216.897 205.937 217.591 226.396 220.479 228.748C223.367 231.101 213.066 230.539 213.066 230.539C213.066 230.539 204.153 230.983 199.565 231.656C194.976 232.329 182.121 229.304 182.121 229.304C182.121 229.304 184.023 220.698 184.689 215.216C185.356 209.733 186.931 198.074 186.931 198.074L175.52 182.626C175.52 182.626 173.507 173.292 180.552 169.156C187.598 165.02 190.27 164 190.27 164C190.27 164 197.35 175.527 201.043 176.089C201.022 176.075 202.424 176.637 203.035 175.735Z" fill="#3F3D56"/>
<path id="Vector_64" opacity="0.1" d="M216.12 179.096C216.12 179.096 216.231 182.788 215.558 184.245C214.884 185.702 212.427 193.746 212.427 193.746H218.015C218.015 193.746 214.995 190.505 215.238 188.936C215.481 187.368 216.12 179.096 216.12 179.096Z" fill="black"/>
<path id="Vector_65" d="M199.565 206.938C199.565 206.938 211.913 203.919 213.066 201.345C214.218 198.77 217.39 193.017 217.39 193.017L216.085 191.261L210.081 195.973C210.081 195.973 202.924 201.678 199.565 202.219C196.205 202.76 199.565 206.938 199.565 206.938Z" fill="#FBBEBE"/>
<path id="Vector_66" opacity="0.05" d="M199.565 206.938C199.565 206.938 211.913 203.919 213.066 201.345C214.218 198.77 217.39 193.017 217.39 193.017L216.085 191.261L210.081 195.973C210.081 195.973 202.924 201.678 199.565 202.219C196.205 202.76 199.565 206.938 199.565 206.938Z" fill="black"/>
<path id="Vector_67" d="M188.889 192.406V199.103H189.965C195.284 199.103 200.516 200.457 205.166 203.038L207.186 204.155L207.728 204.461L211.198 196.653L207.957 193.746H207.79C206.992 193.822 203.563 194.113 202.112 193.621C200.661 193.128 199.016 191.664 194.942 192.705C192.942 193.218 191.228 195.481 189.284 194.787L188.889 192.406Z" fill="#FBBEBE"/>
<path id="Vector_68" opacity="0.1" d="M178.095 180.22L175.86 182.732V188.853C175.86 188.853 177.762 208.083 183.801 210.207C189.84 212.33 200.62 208.978 200.62 208.978C200.62 208.978 203.396 201.601 202.098 201.15C200.8 200.699 190.589 198.007 190.589 198.007C190.589 198.007 190.728 186.729 188.507 183.377C188.507 183.377 189.965 172.864 184.932 172.642C179.9 172.42 178.095 180.22 178.095 180.22Z" fill="black"/>
<path id="Vector_69" d="M177.762 180.1L175.52 182.613V188.733C175.52 188.733 177.422 207.964 183.461 210.087C189.5 212.211 200.259 208.859 200.259 208.859C200.259 208.859 203.035 201.482 201.744 201.031C200.453 200.58 190.228 197.887 190.228 197.887C190.228 197.887 190.374 186.61 188.146 183.258C188.146 183.258 189.597 172.744 184.564 172.522C179.532 172.3 177.762 180.1 177.762 180.1Z" fill="#3F3D56"/>
<g id="ManHead">
<path id="Vector_70" d="M190.249 149.525C190.248 151.782 190.916 153.99 192.17 155.867C193.424 157.744 195.206 159.208 197.292 160.072C199.378 160.936 201.674 161.162 203.888 160.722C206.102 160.281 208.136 159.194 209.733 157.597C211.329 156 212.415 153.966 212.854 151.752C213.294 149.538 213.066 147.243 212.2 145.158C211.335 143.073 209.87 141.292 207.991 140.04C206.113 138.787 203.905 138.12 201.647 138.123C200.148 138.117 198.662 138.407 197.276 138.978C195.89 139.549 194.63 140.389 193.571 141.449C192.511 142.509 191.672 143.768 191.102 145.155C190.532 146.541 190.242 148.026 190.249 149.525V149.525Z" fill="#FBBEBE"/>
<path id="Vector_71" opacity="0.1" d="M193.38 154.369C193.282 153.635 193.37 152.888 193.637 152.197C193.778 151.857 194.027 151.572 194.345 151.387C194.664 151.201 195.034 151.125 195.4 151.17C196.358 151.392 196.788 152.641 197.711 152.939C198.118 153.021 198.54 152.962 198.909 152.771C199.277 152.581 199.57 152.27 199.738 151.892C200.059 151.122 200.192 150.287 200.127 149.456C200.127 148.526 200.127 147.589 200.127 146.68C200.127 145.771 200.162 144.563 200.786 143.765C201.571 142.773 203.403 142.335 204.625 142.377C205.439 142.383 206.221 142.698 206.811 143.258C207.11 143.558 207.473 143.786 207.871 143.928C208.27 144.07 208.695 144.121 209.116 144.077C209.488 144.021 209.836 143.861 210.121 143.615C210.406 143.37 210.616 143.049 210.726 142.689C210.723 142.678 210.723 142.666 210.726 142.655C209.775 141.401 208.574 140.358 207.2 139.591C205.825 138.825 204.307 138.35 202.741 138.199C201.174 138.047 199.593 138.221 198.097 138.711C196.601 139.2 195.223 139.993 194.048 141.041C192.874 142.088 191.929 143.368 191.274 144.798C190.618 146.229 190.266 147.78 190.239 149.353C190.212 150.926 190.511 152.488 191.117 153.94C191.723 155.392 192.624 156.703 193.762 157.79C193.567 156.658 193.44 155.516 193.38 154.369V154.369Z" fill="black"/>
<path id="Vector_72" d="M209.13 143.744C209.501 143.686 209.849 143.525 210.133 143.28C210.418 143.035 210.628 142.715 210.74 142.356C210.83 141.995 210.81 141.607 210.914 141.253C211.177 140.372 212.115 139.913 212.739 139.247C214.003 137.908 213.919 135.708 213.024 134.105C212.33 132.807 210.941 131.718 209.449 131.967C208.547 132.127 207.762 132.772 206.846 132.828C205.962 132.766 205.107 132.49 204.354 132.023C202.414 131.144 200.233 130.951 198.169 131.475C197.535 131.601 196.946 131.899 196.469 132.335C196.144 132.741 195.843 133.165 195.566 133.605C194.518 134.938 192.651 135.194 190.992 135.493C189.333 135.791 187.452 136.451 186.904 138.054C186.543 139.108 186.904 140.26 187.098 141.364C187.172 141.592 187.157 141.84 187.056 142.058C186.799 142.488 186.147 142.308 185.668 142.412C184.731 142.606 184.488 143.8 184.453 144.785C184.412 145.889 184.384 146.992 184.363 148.096C184.304 148.608 184.368 149.128 184.551 149.61C184.733 150.093 185.028 150.526 185.411 150.871L189.104 155.306C190.742 157.277 192.477 159.567 192.151 162.107C192.922 162.454 193.845 161.781 194.102 160.969C194.275 160.132 194.232 159.265 193.977 158.45C193.678 157.01 193.483 155.552 193.394 154.085C193.296 153.35 193.384 152.604 193.651 151.912C193.791 151.57 194.041 151.284 194.361 151.098C194.681 150.913 195.054 150.838 195.421 150.885C196.378 151.107 196.809 152.35 197.732 152.655C198.139 152.735 198.56 152.675 198.929 152.485C199.297 152.295 199.589 151.985 199.759 151.607C200.08 150.837 200.213 150.002 200.148 149.171V146.395C200.148 145.382 200.182 144.313 200.807 143.481C201.591 142.488 203.424 142.058 204.646 142.093C205.459 142.106 206.238 142.42 206.832 142.974C207.134 143.265 207.497 143.485 207.894 143.618C208.292 143.751 208.714 143.794 209.13 143.744V143.744Z" fill="#3F3D56"/>
</g>
<path id="Vector_73" opacity="0.1" d="M206.555 178.818L203.084 193.204C203.084 193.204 200.293 193.183 206.555 178.818Z" fill="black"/>
<path id="Vector_74" opacity="0.1" d="M194.588 176.417C194.588 176.417 199.176 183.926 197.364 191.684L196.51 191.747C196.51 191.747 198.058 188.159 194.588 176.417Z" fill="black"/>
<path id="Vector_75" opacity="0.1" d="M191.679 218.902C191.679 218.902 186.05 217.043 185.64 221.359C185.64 221.359 186.702 218.396 191.679 218.902Z" fill="black"/>
<path id="Vector_76" opacity="0.1" d="M207.957 194.079C207.957 194.079 209.074 201.907 207.061 205.037C210.22 206.154 213.575 206.61 216.918 206.376L217.612 194.079H207.957Z" fill="black"/>
<path id="Vector_77" opacity="0.1" d="M207.2 204.155L207.741 204.461L211.212 196.653L207.971 193.746H207.797C207.839 194.12 208.741 200.845 207.2 204.155Z" fill="black"/>
<path id="Vector_78" d="M207.957 193.626C207.957 193.626 209.074 201.454 207.061 204.584C210.221 205.697 213.576 206.153 216.918 205.923L220.833 193.626H207.957Z" fill="#3F3D56"/>
<path id="Vector_79" d="M217.612 324.325C217.677 324.883 217.925 325.404 218.319 325.805C218.712 326.205 219.228 326.464 219.785 326.539C222.818 326.997 230.134 328.149 231.981 329.03C234.334 330.147 243.615 329.363 244.059 328.246C244.122 328.023 244.14 327.79 244.113 327.56C244.085 327.33 244.013 327.108 243.899 326.907C243.583 326.223 243.058 325.656 242.4 325.29C242.177 325.171 241.945 325.071 241.706 324.991C239.956 324.408 236.659 323.173 235.764 321.875C235.764 321.875 231.648 318.273 230.475 316.323C230.254 315.94 229.942 315.618 229.567 315.384C229.191 315.15 228.764 315.013 228.323 314.984C227.344 314.942 226.24 315.435 225.81 317.579C225.81 317.579 220.444 320.64 218.993 317.954C218.993 317.954 218.764 322.076 217.876 323.208C217.644 323.531 217.549 323.932 217.612 324.325V324.325Z" fill="#CBCEDA"/>
<path id="Vector_80" opacity="0.1" d="M217.612 324.325C217.677 324.883 217.925 325.404 218.319 325.804C218.712 326.205 219.228 326.464 219.785 326.539C222.818 326.997 230.134 328.149 231.981 329.03C234.334 330.147 243.615 329.363 244.059 328.246C244.122 328.023 244.14 327.79 244.113 327.56C244.085 327.33 244.013 327.108 243.899 326.907C243.583 326.223 243.058 325.656 242.4 325.29C240.887 326.296 237.541 327.281 230.141 326.122C223.089 325.026 219.597 323.943 217.897 323.215C217.659 323.533 217.557 323.932 217.612 324.325Z" fill="black"/>
<path id="Vector_81" opacity="0.1" d="M187.112 141.496C187.112 141.496 187.112 141.461 187.112 141.447C186.897 140.617 186.783 139.764 186.772 138.907C186.825 139.6 186.925 140.289 187.07 140.968C187.121 141.139 187.135 141.319 187.112 141.496Z" fill="black"/>
<path id="Vector_82" opacity="0.1" d="M193.637 151.961C193.461 152.367 193.367 152.803 193.359 153.245C193.309 152.637 193.405 152.026 193.637 151.461C193.778 151.12 194.028 150.834 194.348 150.649C194.668 150.463 195.04 150.388 195.407 150.434C196.365 150.656 196.795 151.905 197.718 152.204C198.125 152.285 198.547 152.226 198.915 152.036C199.284 151.845 199.576 151.535 199.745 151.156C200.066 150.386 200.2 149.551 200.134 148.72C200.134 147.79 200.134 146.853 200.134 145.944C200.134 145.035 200.168 143.828 200.793 143.029C201.578 142.037 203.41 141.6 204.632 141.641C205.446 141.648 206.227 141.963 206.818 142.523C207.117 142.822 207.479 143.051 207.878 143.192C208.277 143.334 208.702 143.385 209.123 143.342C209.495 143.286 209.844 143.126 210.129 142.88C210.414 142.635 210.623 142.314 210.733 141.954C210.823 141.593 210.803 141.204 210.907 140.85C211.171 139.969 212.108 139.511 212.732 138.845C213.323 138.199 213.658 137.36 213.676 136.485C213.724 137.002 213.664 137.523 213.502 138.016C213.34 138.509 213.078 138.964 212.732 139.351C212.108 140.045 211.171 140.476 210.907 141.35C210.803 141.711 210.823 142.093 210.733 142.453C210.623 142.813 210.413 143.134 210.128 143.379C209.843 143.625 209.495 143.785 209.123 143.841C208.701 143.885 208.275 143.834 207.876 143.691C207.477 143.548 207.116 143.317 206.818 143.016C206.226 142.458 205.445 142.144 204.632 142.134C203.41 142.093 201.578 142.53 200.793 143.522C200.168 144.32 200.141 145.424 200.134 146.437C200.127 147.45 200.134 148.304 200.134 149.213C200.199 150.042 200.066 150.874 199.745 151.642C199.579 152.022 199.286 152.334 198.917 152.525C198.548 152.716 198.125 152.774 197.718 152.69C196.781 152.391 196.365 151.149 195.407 150.927C195.039 150.879 194.665 150.954 194.345 151.141C194.024 151.328 193.775 151.617 193.637 151.961V151.961Z" fill="black"/>
<path id="Vector_83" opacity="0.1" d="M184.446 148.887C184.652 149.461 184.976 149.986 185.397 150.427L189.09 154.862C190.645 156.729 192.29 158.887 192.165 161.274C192.054 159.088 190.534 157.11 189.09 155.361L185.397 150.927C185.014 150.581 184.719 150.149 184.537 149.666C184.354 149.183 184.29 148.664 184.349 148.151C184.349 148.399 184.382 148.647 184.446 148.887V148.887Z" fill="black"/>
<path id="Vector_84" opacity="0.1" d="M194.088 160.525C194.149 160.329 194.186 160.126 194.199 159.921C194.228 160.292 194.191 160.666 194.088 161.024C193.831 161.836 192.915 162.509 192.137 162.156C192.159 161.995 192.171 161.832 192.172 161.67C192.578 161.769 193.006 161.704 193.365 161.49C193.723 161.276 193.983 160.929 194.088 160.525V160.525Z" fill="black"/>
<path id="Vector_85" opacity="0.1" d="M231.245 317.344C231.245 317.344 230.079 319.425 225.845 317.586Z" fill="black"/>
<path id="Vector_86" opacity="0.1" d="M195.434 317.836C195.434 317.836 191.783 322.139 187.181 319.224Z" fill="black"/>
<path id="Vector_87" opacity="0.1" d="M184.807 266.981C184.807 266.981 187.382 268.591 187.473 269.514C187.563 270.437 186.14 268.82 186.14 268.82L184.807 266.981Z" fill="black"/>
<path id="Vector_88" opacity="0.1" d="M183.787 279.341C184.683 280.09 185.799 280.526 186.966 280.583C188.896 280.667 188.736 283.179 187.473 282.429C186.167 281.495 184.935 280.463 183.787 279.341V279.341Z" fill="black"/>
<path id="Vector_89" opacity="0.1" d="M183.294 280.951C183.294 280.951 184.536 287.037 185.543 285.865Z" fill="black"/>
<path id="Vector_90" d="M57.8147 319.065C59.8971 315.241 57.5301 310.556 54.8368 307.149C52.1436 303.742 48.8603 300.209 48.9297 295.844C49.0339 289.598 55.6629 285.906 60.9591 282.596C64.8918 280.142 68.5177 277.227 71.7599 273.914C73.1166 272.639 74.2395 271.135 75.0779 269.473C76.1746 267.03 76.1399 264.254 76.0705 261.582C75.8391 252.667 75.3995 243.763 74.7517 234.871" stroke="#3F3D56" stroke-width="4" stroke-miterlimit="10"/>
<path id="Vector_91" d="M84.8236 234.385C84.7498 232.754 84.2659 231.167 83.4166 229.772C82.5674 228.378 81.3801 227.219 79.9646 226.404L77.785 230.714L77.8475 225.495C75.8717 224.918 73.7636 224.983 71.8271 225.681C69.8906 226.379 68.2258 227.673 67.0726 229.378C65.9194 231.083 65.3375 233.11 65.4106 235.166C65.4838 237.223 66.2082 239.203 67.4796 240.822C68.7509 242.44 70.5035 243.613 72.4847 244.172C74.4658 244.731 76.5732 244.646 78.5031 243.93C80.4329 243.214 82.0856 241.904 83.2228 240.189C84.3599 238.473 84.9229 236.441 84.8305 234.385H84.8236Z" fill="#57B894"/>
<path id="Vector_92" d="M67.4494 300.306C66.4275 302.286 64.7559 303.855 62.7147 304.75C60.6735 305.644 58.3868 305.81 56.2378 305.22C54.0888 304.629 52.2081 303.318 50.9109 301.507C49.6138 299.695 48.9789 297.492 49.1128 295.268C49.2466 293.044 50.1411 290.933 51.6463 289.29C53.1514 287.647 55.1758 286.571 57.3801 286.242C59.5844 285.913 61.8347 286.352 63.7539 287.485C65.673 288.618 67.1444 290.376 67.9214 292.464L61.8338 297.412L68.5322 295.865C68.5298 297.41 68.1585 298.933 67.4494 300.306V300.306Z" fill="#57B894"/>
<path id="Vector_93" d="M62.639 281.395C60.2184 281.566 57.8215 280.826 55.9195 279.319C54.0175 277.813 52.7481 275.649 52.3609 273.254C51.9737 270.859 52.4967 268.406 53.8271 266.377C55.1574 264.348 57.1989 262.89 59.5501 262.29L59.4946 266.301L61.7019 261.936C62.9801 261.874 64.2581 262.064 65.4624 262.497C66.6668 262.929 67.7738 263.595 68.7199 264.457C69.6661 265.318 70.4327 266.358 70.9759 267.517C71.519 268.675 71.8279 269.93 71.8849 271.208C71.9419 272.332 71.801 273.457 71.4684 274.532C70.883 276.446 69.7207 278.132 68.1403 279.361C66.5599 280.589 64.6386 281.3 62.639 281.395V281.395Z" fill="#57B894"/>
<path id="Vector_94" d="M86.2883 265.663C84.7927 265.719 83.3043 265.429 81.9393 264.815C80.5743 264.201 79.3695 263.281 78.4189 262.125C77.4683 260.969 76.7975 259.61 76.4589 258.152C76.1203 256.694 76.123 255.178 76.4668 253.722C76.8105 252.266 77.4861 250.909 78.4408 249.756C79.3956 248.604 80.6036 247.688 81.9708 247.079C83.3379 246.47 84.8273 246.185 86.3227 246.246C87.8181 246.308 89.2792 246.713 90.5919 247.432L88.8705 252.151L92.4175 248.75C94.3146 250.488 95.4454 252.906 95.5619 255.475C95.6082 256.377 95.5264 257.282 95.319 258.161C94.8329 260.222 93.6887 262.069 92.0593 263.423C90.43 264.776 88.4042 265.563 86.2883 265.663Z" fill="#57B894"/>
<path id="Vector_95" opacity="0.1" d="M83.5117 236.981C81.2627 237.223 79.0762 237.924 76.8202 238.063C74.5643 238.202 72.0862 237.661 70.6563 235.912C69.8927 234.968 69.504 233.767 68.8584 232.74C68.2419 231.78 67.3979 230.986 66.4012 230.429C65.8134 231.658 65.4905 232.996 65.4533 234.357C65.4162 235.718 65.6656 237.072 66.1855 238.331C66.7054 239.589 67.4842 240.725 68.4712 241.663C69.4583 242.601 70.6316 243.322 71.9151 243.778C73.1985 244.233 74.5635 244.414 75.9214 244.309C77.2794 244.203 78.5999 243.813 79.7974 243.164C80.995 242.516 82.0427 241.623 82.8727 240.543C83.7027 239.463 84.2964 238.221 84.6154 236.897C84.2498 236.911 83.8819 236.939 83.5117 236.981Z" fill="black"/>
<path id="Vector_96" opacity="0.1" d="M86.2883 265.663C84.6081 265.748 82.9346 265.396 81.4315 264.64C79.9283 263.885 78.6471 262.752 77.7131 261.354C76.7791 259.955 76.2244 258.337 76.1031 256.66C75.9819 254.982 76.2984 253.302 77.0215 251.783C77.7945 252.303 78.4593 252.967 78.979 253.74C79.6731 254.788 80.0965 256.003 80.9087 256.96C82.4288 258.744 85.018 259.327 87.3711 259.223C89.7242 259.119 91.9941 258.445 94.3125 258.23C94.6387 258.23 94.965 258.182 95.2982 258.175C94.8104 260.23 93.6682 262.072 92.0433 263.422C90.4184 264.773 88.3987 265.559 86.2883 265.663V265.663Z" fill="black"/>
<path id="Vector_97" opacity="0.1" d="M62.639 281.395C60.9739 281.481 59.3148 281.137 57.8212 280.396C56.3276 279.655 55.0499 278.542 54.1107 277.165C53.1716 275.787 52.6027 274.192 52.4588 272.531C52.3149 270.87 52.6008 269.201 53.2889 267.682C54.0983 268.209 54.8042 268.879 55.3713 269.66C56.128 270.729 56.6 271.957 57.4885 272.943C59.1336 274.775 61.8962 275.42 64.3813 275.358C66.8663 275.295 69.1222 274.719 71.517 274.532C70.9288 276.453 69.7591 278.145 68.1691 279.374C66.5791 280.604 64.647 281.31 62.639 281.395V281.395Z" fill="black"/>
<path id="Vector_98" opacity="0.1" d="M67.4493 300.306C66.3954 302.661 64.4489 304.501 62.038 305.421C59.6271 306.342 56.9494 306.266 54.5939 305.213C52.2384 304.159 50.398 302.213 49.4777 299.803C48.5573 297.392 48.6324 294.715 49.6863 292.36C50.4921 292.884 51.213 293.527 51.8243 294.269C52.7544 295.393 53.3653 296.677 54.4342 297.739C56.4264 299.696 59.6403 300.514 62.5071 300.577C64.1584 300.585 65.8087 300.494 67.4493 300.306Z" fill="black"/>
<path id="Vector_99" d="M43.1198 314.665C43.1198 314.665 50.8109 314.464 53.1015 312.777C55.3922 311.091 64.9018 309.161 65.4988 311.806C66.0958 314.45 77.0562 324.991 68.3725 325.033C59.6889 325.074 48.2078 323.645 45.8894 322.257C43.571 320.869 43.1198 314.665 43.1198 314.665Z" fill="#656380"/>
<path id="Vector_100" opacity="0.2" d="M68.56 324.11C59.8763 324.186 48.3883 322.764 46.0768 321.334C44.3137 320.258 43.6126 316.407 43.3766 314.637H43.1198C43.1198 314.637 43.6057 320.834 45.8964 322.271C48.187 323.707 59.7028 325.102 68.3795 325.047C70.8853 325.047 71.753 324.138 71.7044 322.819C71.3782 323.603 70.455 324.096 68.56 324.11Z" fill="black"/>
</g>
<defs>
<linearGradient id="paint0_linear" x1="226.088" y1="317.704" x2="226.088" y2="317.538" gradientUnits="userSpaceOnUse">
<stop stop-color="#808080" stop-opacity="0.25"/>
<stop offset="0.54" stop-color="#808080" stop-opacity="0.12"/>
<stop offset="1" stop-color="#808080" stop-opacity="0.1"/>
</linearGradient>
</defs>
</svg>
