<svg width="636" height="421" viewBox="0 0 636 421" fill="none" xmlns="http://www.w3.org/2000/svg">
<g id="undraw_Booking_re_gw4j 1">
<path id="Vector" d="M611.139 281.742C606.547 286.757 600.852 290.49 594.671 293.389H594.664C594.082 293.664 593.501 293.932 592.912 294.186H592.905L592.897 294.193L592.89 294.186H592.882C592.882 294.187 592.882 294.188 592.882 294.189C592.881 294.19 592.881 294.19 592.88 294.191C592.879 294.192 592.879 294.192 592.878 294.193C592.877 294.193 592.876 294.193 592.875 294.193H592.867L592.86 294.186C592.852 294.193 592.852 294.193 592.845 294.186L592.838 294.193L592.83 294.186H592.823C592.815 294.193 592.815 294.193 592.808 294.186H592.8C588.663 295.974 584.415 297.493 580.082 298.731C554.6 305.957 527.818 307.355 501.722 302.822C501.223 302.733 500.731 302.643 500.231 302.554V242.116C500.723 241.907 501.223 241.699 501.722 241.498C504.98 240.149 508.278 238.909 511.615 237.779C516.416 236.14 521.284 234.734 526.219 233.562C542.321 229.667 558.934 228.324 575.452 229.583C578.457 229.806 581.454 230.129 584.443 230.552C590.698 231.423 597.258 232.943 603.028 235.581H603.036C603.878 235.976 604.706 236.386 605.526 236.826C610.655 239.605 614.979 243.427 617.618 248.666C618.566 250.547 619.248 252.551 619.646 254.619V254.634C619.795 255.35 619.899 256.072 619.981 256.788C620.921 265.61 617.26 275.051 611.139 281.742Z" fill="#EBFBFC"/>
<path id="Vector_2" d="M619.981 256.788C619.908 256.806 619.833 256.816 619.757 256.817C606.987 257.376 594.234 258.206 581.498 259.306H581.476C581.424 259.314 581.379 259.314 581.327 259.321C568.251 260.454 555.202 261.872 542.181 263.576C541.629 263.65 541.085 263.725 540.54 263.792C531.535 264.992 522.547 266.323 513.576 267.786C509.617 268.434 505.666 269.11 501.722 269.813C501.223 269.902 500.731 269.984 500.231 270.081V267.823C500.731 267.726 501.23 267.644 501.722 267.555C514.858 265.23 528.038 263.201 541.264 261.467C544.589 261.02 547.918 260.598 551.253 260.2C560.885 259.038 570.532 258.034 580.193 257.19C580.902 257.13 581.603 257.071 582.311 257.011C594.679 255.961 607.064 255.163 619.467 254.619C619.527 254.617 619.587 254.622 619.646 254.634C620.839 254.739 621.092 256.527 619.981 256.788Z" fill="white"/>
<path id="Vector_3" d="M593.461 291.99C577.552 292.107 561.879 285.365 550.626 274.204C547.451 271.043 544.653 267.525 542.288 263.72C541.53 262.504 539.755 263.845 540.507 265.051C549.246 279.059 563.804 289.039 579.853 292.708C584.411 293.74 589.074 294.239 593.747 294.194C595.173 294.183 594.878 291.98 593.461 291.99V291.99Z" fill="white"/>
<path id="Vector_4" d="M526.219 233.562C526.151 233.771 526.029 233.959 525.866 234.107C525.702 234.255 525.503 234.357 525.287 234.404C521.642 235.359 518.119 236.734 514.791 238.502C509.931 241.068 505.518 244.402 501.722 248.375C501.521 248.576 501.327 248.777 501.141 248.986C500.827 249.314 500.529 249.649 500.231 249.992V246.743C500.708 246.237 501.208 245.737 501.722 245.26C504.719 242.393 508.039 239.882 511.615 237.779C516.416 236.14 521.284 234.734 526.219 233.562Z" fill="white"/>
<path id="Vector_5" d="M604.347 234.994C594.227 239.341 585.76 246.803 580.177 256.294C580.064 256.565 580.062 256.871 580.173 257.143C580.283 257.416 580.497 257.634 580.767 257.75C581.04 257.857 581.343 257.856 581.614 257.746C581.885 257.636 582.104 257.426 582.224 257.159C587.553 248.195 595.592 241.155 605.183 237.053C606.499 236.491 605.666 234.431 604.347 234.994L604.347 234.994Z" fill="white"/>
<path id="Vector_6" d="M634.854 171.708C633.124 178.28 629.807 184.234 625.684 189.666L625.677 189.674C625.296 190.18 624.901 190.694 624.491 191.186V191.194C621.629 194.718 618.539 198.051 615.24 201.171C603.381 212.466 589.986 222.031 575.452 229.583C552.588 241.52 527.032 248.576 501.722 248.979C501.529 248.986 501.335 248.986 501.141 248.986C500.835 248.994 500.529 248.994 500.231 248.994V215.127C500.716 214.203 501.215 213.279 501.722 212.363C508.3 200.534 516.321 189.566 525.601 179.711C525.824 179.465 526.055 179.219 526.287 178.981C529.775 175.3 533.433 171.795 537.26 168.467C551.983 155.529 568.997 145.458 587.425 138.774C593.367 136.642 599.882 134.936 606.219 134.601C607.151 134.549 608.076 134.526 609.007 134.534C614.845 134.616 620.443 135.994 625.222 139.407C626.933 140.635 628.468 142.092 629.785 143.736C630.247 144.31 630.672 144.899 631.082 145.502V145.51C636.017 152.886 637.165 162.938 634.854 171.708Z" fill="#EBFBFC"/>
<path id="Vector_7" d="M631.082 145.502V145.51C631.026 145.558 630.967 145.6 630.903 145.636C619.869 152.052 608.975 158.701 598.22 165.583C598.205 165.591 598.198 165.598 598.183 165.606C598.14 165.636 598.095 165.663 598.048 165.688C586.993 172.766 576.093 180.084 565.351 187.639C564.903 187.952 564.449 188.273 563.994 188.593C556.576 193.831 549.236 199.181 541.972 204.643C528.255 214.971 514.838 225.681 501.722 236.773C501.223 237.191 500.731 237.615 500.231 238.04V235.142C500.723 234.717 501.223 234.292 501.722 233.875C506.747 229.635 511.817 225.455 516.93 221.334C518.459 220.105 519.994 218.875 521.53 217.661C535.173 206.804 549.121 196.352 563.375 186.306H563.383C566.186 184.331 568.994 182.374 571.807 180.434C579.799 174.935 587.88 169.567 596.051 164.332C596.639 163.952 597.236 163.572 597.832 163.192C608.292 156.515 618.888 150.057 629.62 143.818C629.673 143.786 629.728 143.759 629.785 143.736C630.903 143.289 631.954 144.764 631.082 145.502Z" fill="white"/>
<path id="Vector_8" d="M623.961 188.991C609.927 196.48 592.914 197.786 577.762 193.128C573.481 191.803 569.368 189.986 565.506 187.715C564.269 186.99 563.321 189.002 564.547 189.72C578.797 198.068 596.326 200.146 612.244 195.944C616.76 194.742 621.121 193.019 625.238 190.809C626.497 190.138 625.211 188.323 623.961 188.991V188.991Z" fill="white"/>
<path id="Vector_9" d="M518.959 216.254C518.264 212.353 518.026 208.385 518.249 204.429C518.751 195.408 521.515 186.657 526.286 178.982C529.779 175.303 533.438 171.797 537.262 168.467C537.298 168.685 537.277 168.908 537.201 169.115C537.124 169.322 536.995 169.506 536.825 169.648C534.042 172.186 531.563 175.039 529.436 178.148C521.841 189.228 518.876 202.836 521.174 216.069C521.212 216.219 521.21 216.377 521.169 216.526C521.128 216.675 521.049 216.811 520.941 216.921C520.781 217.06 520.588 217.154 520.381 217.196C520.173 217.237 519.959 217.223 519.758 217.155C519.558 217.088 519.379 216.969 519.239 216.811C519.098 216.653 519.002 216.461 518.959 216.254V216.254Z" fill="white"/>
<path id="Vector_10" d="M607.112 133.462C600.171 142.011 596.14 152.551 595.607 163.547C595.633 163.84 595.774 164.111 595.998 164.301C596.223 164.491 596.513 164.585 596.807 164.562C597.098 164.531 597.366 164.389 597.555 164.166C597.744 163.942 597.84 163.655 597.822 163.363C598.375 152.951 602.222 142.983 608.809 134.898C609.713 133.789 608.018 132.352 607.112 133.462Z" fill="white"/>
<path id="Vector_11" d="M529.91 157.946V157.953C529.858 158.594 529.798 159.227 529.731 159.861V159.876C529.212 164.384 528.403 168.854 527.308 173.258C526.786 175.419 526.219 177.565 525.601 179.711C525.526 179.987 525.444 180.262 525.362 180.531V180.538C523.541 186.78 521.366 192.912 518.847 198.906C514.211 209.941 508.474 220.481 501.722 230.365C501.238 231.088 500.738 231.811 500.231 232.526V115.838C500.731 115.809 501.223 115.809 501.722 115.823C501.961 115.823 502.199 115.831 502.438 115.846C504.541 115.956 506.619 116.36 508.611 117.045C509.312 117.276 509.99 117.537 510.661 117.828C518.794 121.39 525.183 129.243 527.956 137.879C530.036 144.347 530.454 151.15 529.91 157.946Z" fill="#EBFBFC"/>
<path id="Vector_12" d="M510.661 117.828C510.643 117.901 510.616 117.971 510.579 118.036C507.56 123.901 504.607 129.795 501.722 135.719C501.223 136.739 500.723 137.768 500.231 138.788V133.722C500.723 132.708 501.22 131.695 501.722 130.681C503.951 126.166 506.218 121.67 508.521 117.194C508.547 117.142 508.577 117.092 508.611 117.045C509.297 116.062 510.996 116.733 510.661 117.828Z" fill="white"/>
<path id="Vector_13" d="M530.148 159.145C530.014 159.384 529.88 159.622 529.731 159.861C527.542 163.674 524.936 167.232 521.962 170.471C516.251 176.665 509.373 181.671 501.722 185.203C501.23 185.441 500.731 185.665 500.231 185.873V183.452C500.731 183.228 501.23 182.997 501.722 182.759C512.797 177.479 521.996 168.947 528.091 158.303C528.179 158.151 528.298 158.02 528.441 157.918C528.584 157.817 528.748 157.747 528.92 157.714C529.093 157.68 529.27 157.685 529.441 157.726C529.612 157.767 529.772 157.845 529.91 157.953C530.004 158.016 530.085 158.096 530.147 158.19C530.21 158.284 530.254 158.389 530.276 158.5C530.298 158.611 530.298 158.725 530.276 158.835C530.254 158.946 530.211 159.052 530.148 159.145V159.145Z" fill="white"/>
<path id="Vector_14" d="M501.722 24.5894V81.2195H500.231V80.6159H1.491V81.2195H0V24.5894C0.00640264 18.0698 2.6004 11.8191 7.21269 7.20913C11.825 2.59911 18.0788 0.00639948 24.6015 0H477.121C483.643 0.00639948 489.897 2.59911 494.51 7.20913C499.122 11.8191 501.716 18.0698 501.722 24.5894V24.5894Z" fill="#3BD5DF"/>
<path id="Vector_15" d="M477.121 0H24.6015C18.0788 0.00639948 11.825 2.59911 7.21269 7.20913C2.6004 11.8191 0.00640264 18.0698 0 24.5894V347.977C0.00640264 354.497 2.6004 360.747 7.21269 365.357C11.825 369.967 18.0788 372.56 24.6015 372.566H477.121C483.643 372.56 489.897 369.967 494.51 365.357C499.122 360.747 501.716 354.497 501.722 347.977V24.5894C501.716 18.0698 499.122 11.8191 494.51 7.20913C489.897 2.59911 483.643 0.00639948 477.121 0V0ZM500.231 347.977C500.223 354.101 497.786 359.972 493.454 364.302C489.121 368.632 483.248 371.068 477.121 371.076H24.6015C18.4746 371.068 12.6009 368.632 8.26855 364.302C3.93618 359.972 1.49882 354.101 1.491 347.977V24.5894C1.49882 18.4655 3.93618 12.5947 8.26855 8.26447C12.6009 3.93424 18.4746 1.49808 24.6015 1.49027H477.121C483.248 1.49808 489.121 3.93424 493.454 8.26447C497.786 12.5947 500.223 18.4655 500.231 24.5894V347.977Z" fill="#CBCBCB"/>
<path id="Vector_16" d="M101.388 55.5124C109.623 55.5124 116.298 48.8402 116.298 40.6097C116.298 32.3792 109.623 25.7071 101.388 25.7071C93.1536 25.7071 86.4781 32.3792 86.4781 40.6097C86.4781 48.8402 93.1536 55.5124 101.388 55.5124Z" fill="white"/>
<path id="Vector_17" d="M400.334 55.5124C408.569 55.5124 415.244 48.8402 415.244 40.6097C415.244 32.3792 408.569 25.7071 400.334 25.7071C392.1 25.7071 385.424 32.3792 385.424 40.6097C385.424 48.8402 392.1 55.5124 400.334 55.5124Z" fill="white"/>
<path id="bluebox1" d="M144.467 206.776H55.7697C52.0121 206.772 48.4096 205.278 45.7526 202.622C43.0955 199.966 41.6009 196.366 41.5967 192.61V150.709C41.6009 146.953 43.0955 143.352 45.7526 140.697C48.4096 138.041 52.0121 136.547 55.7697 136.543H144.467C148.224 136.547 151.827 138.041 154.484 140.697C157.141 143.352 158.635 146.953 158.64 150.709V192.61C158.635 196.366 157.141 199.966 154.484 202.622C151.827 205.278 148.224 206.772 144.467 206.776V206.776Z" fill="#3BD5DF"/>
<path id="bluebox2" d="M295.355 206.776H206.658C202.9 206.772 199.298 205.278 196.641 202.622C193.984 199.966 192.489 196.366 192.485 192.61V150.709C192.489 146.953 193.984 143.352 196.641 140.697C199.298 138.041 202.9 136.547 206.658 136.543H295.355C299.113 136.547 302.715 138.041 305.372 140.697C308.029 143.352 309.524 146.953 309.528 150.709V192.61C309.524 196.366 308.029 199.966 305.372 202.622C302.715 205.278 299.113 206.772 295.355 206.776V206.776Z" fill="#3BD5DF"/>
<path id="Vector_18" d="M295.355 315.037H206.658C202.787 315.033 199.075 313.494 196.337 310.757C193.6 308.021 192.06 304.311 192.056 300.442V258.541C192.06 254.671 193.6 250.961 196.337 248.225C199.075 245.489 202.787 243.95 206.658 243.945H295.355C299.226 243.95 302.938 245.489 305.676 248.225C308.413 250.961 309.953 254.671 309.958 258.541V300.442C309.953 304.311 308.413 308.021 305.676 310.757C302.938 313.494 299.226 315.033 295.355 315.037V315.037Z" fill="#F2F2F2"/>
<path id="Vector_19" d="M144.176 315.037H55.4789C51.6074 315.033 47.8957 313.494 45.1582 310.757C42.4206 308.021 40.8807 304.311 40.8764 300.442V258.541C40.8807 254.671 42.4206 250.961 45.1582 248.225C47.8957 245.489 51.6074 243.95 55.4789 243.945H144.176C148.047 243.95 151.759 245.489 154.497 248.225C157.234 250.961 158.774 254.671 158.778 258.541V300.442C158.774 304.311 157.234 308.021 154.497 310.757C151.759 313.494 148.047 315.033 144.176 315.037V315.037Z" fill="#F2F2F2"/>
<path id="Vector_20" d="M446.243 315.037H357.546C353.675 315.033 349.963 313.494 347.226 310.757C344.488 308.021 342.948 304.311 342.944 300.442V258.541C342.948 254.671 344.488 250.961 347.226 248.225C349.963 245.489 353.675 243.95 357.546 243.945H446.243C450.115 243.95 453.827 245.489 456.564 248.225C459.302 250.961 460.842 254.671 460.846 258.541V300.442C460.842 304.311 459.302 308.021 456.564 310.757C453.827 313.494 450.115 315.033 446.243 315.037V315.037Z" fill="#F2F2F2"/>
<path id="Vector_21" d="M446.243 206.86H357.546C353.675 206.856 349.963 205.317 347.226 202.58C344.488 199.844 342.948 196.134 342.944 192.265V150.364C342.948 146.494 344.488 142.784 347.226 140.048C349.963 137.312 353.675 135.773 357.546 135.768H446.243C450.115 135.773 453.827 137.312 456.564 140.048C459.302 142.784 460.842 146.494 460.846 150.364V192.265C460.842 196.134 459.302 199.844 456.564 202.58C453.827 205.317 450.115 206.856 446.243 206.86Z" fill="#F2F2F2"/>
<path id="Check1" d="M100.118 195.699C113.401 195.699 124.169 184.936 124.169 171.659C124.169 158.383 113.401 147.62 100.118 147.62C86.8351 147.62 76.067 158.383 76.067 171.659C76.067 184.936 86.8351 195.699 100.118 195.699Z" fill="white"/>
<path id="Vector_22" d="M97.7342 180.83C97.193 180.831 96.6663 180.656 96.2333 180.331L96.2065 180.311L90.5543 175.986C90.2921 175.786 90.0721 175.536 89.9067 175.25C89.7413 174.965 89.6338 174.65 89.5903 174.323C89.5468 173.996 89.5683 173.663 89.6534 173.345C89.7385 173.026 89.8856 172.727 90.0862 172.466C90.2869 172.204 90.5373 171.984 90.823 171.819C91.1087 171.654 91.4241 171.547 91.7513 171.504C92.0784 171.461 92.4108 171.482 92.7296 171.568C93.0483 171.653 93.3471 171.8 93.6088 172.001L97.2699 174.807L105.922 163.53C106.122 163.268 106.372 163.049 106.658 162.884C106.944 162.719 107.259 162.612 107.586 162.569C107.913 162.525 108.245 162.547 108.563 162.632C108.882 162.718 109.181 162.865 109.442 163.065L109.389 163.138L109.444 163.066C109.972 163.472 110.317 164.07 110.404 164.73C110.491 165.389 110.313 166.057 109.908 166.585L99.732 179.85C99.4966 180.156 99.194 180.403 98.8475 180.573C98.501 180.743 98.1201 180.831 97.7342 180.83Z" fill="#3BD5DF"/>
<path id="Check2" d="M251.436 195.353C264.719 195.353 275.487 184.591 275.487 171.314C275.487 158.038 264.719 147.275 251.436 147.275C238.153 147.275 227.385 158.038 227.385 171.314C227.385 184.591 238.153 195.353 251.436 195.353Z" fill="white"/>
<path id="Vector_23" d="M249.052 180.485C248.511 180.486 247.984 180.311 247.551 179.986L247.524 179.966L241.872 175.641C241.343 175.236 240.997 174.638 240.91 173.978C240.823 173.318 241.001 172.65 241.406 172.122C241.811 171.594 242.41 171.248 243.07 171.16C243.73 171.073 244.398 171.251 244.927 171.656L248.588 174.462L257.239 163.184C257.44 162.923 257.69 162.703 257.976 162.539C258.261 162.374 258.577 162.267 258.904 162.223C259.23 162.18 259.563 162.202 259.881 162.287C260.2 162.372 260.498 162.519 260.76 162.72L260.706 162.793L260.762 162.721C261.289 163.127 261.635 163.725 261.722 164.384C261.809 165.044 261.631 165.712 261.226 166.24L251.05 179.505C250.814 179.811 250.512 180.058 250.165 180.228C249.819 180.398 249.438 180.486 249.052 180.485V180.485Z" fill="#3BD5DF"/>
<path id="Vector_24" d="M413.986 284.752C414.776 283.889 415.367 282.863 415.717 281.746C416.068 280.629 416.169 279.449 416.014 278.29C415.859 277.13 415.451 276.018 414.82 275.032C414.188 274.047 413.348 273.212 412.359 272.586L398.931 200.925L382.601 206.977L400.935 275.515C399.993 277.246 399.719 279.262 400.166 281.181C400.612 283.1 401.747 284.789 403.355 285.928C404.964 287.066 406.935 287.575 408.894 287.359C410.853 287.142 412.665 286.215 413.986 284.752V284.752Z" fill="#A0616A"/>
<path id="arm" d="M283.684 175.405C283.724 175.85 283.73 176.297 283.7 176.743L315.451 201.168L324.455 197.472L331.811 210.325L316.507 218.416C315.271 219.069 313.856 219.305 312.474 219.086C311.093 218.867 309.82 218.207 308.846 217.203L277.109 184.5C275.429 184.879 273.674 184.737 272.076 184.094C270.479 183.451 269.115 182.338 268.166 180.901C267.217 179.465 266.728 177.773 266.765 176.053C266.801 174.332 267.361 172.663 268.369 171.267C269.378 169.872 270.787 168.817 272.411 168.242C274.034 167.667 275.794 167.599 277.456 168.048C279.119 168.498 280.605 169.442 281.717 170.756C282.83 172.07 283.516 173.691 283.683 175.405H283.684Z" fill="#A0616A"/>
<path id="Vector_25" d="M357.861 411.946H348.722L344.374 384.161L357.864 384.162L357.861 411.946Z" fill="#A0616A"/>
<path id="Vector_26" d="M360.193 420.801L330.723 420.8V420.428C330.722 418.922 331.019 417.431 331.596 416.04C332.172 414.649 333.017 413.385 334.082 412.321C335.147 411.256 336.412 410.412 337.803 409.835C339.195 409.259 340.687 408.963 342.193 408.963H342.194L360.193 408.964L360.193 420.801Z" fill="#2F2E41"/>
<path id="Vector_27" d="M392.155 411.946H383.015L378.667 384.161L392.157 384.162L392.155 411.946Z" fill="#A0616A"/>
<path id="Vector_28" d="M394.486 420.801L365.016 420.8V420.428C365.016 418.922 365.312 417.431 365.889 416.04C366.465 414.649 367.31 413.385 368.375 412.321C369.44 411.256 370.705 410.412 372.097 409.835C373.488 409.259 374.98 408.963 376.486 408.963H376.487L394.486 408.964L394.486 420.801Z" fill="#2F2E41"/>
<path id="Vector_29" d="M346.824 406.454C345.99 406.455 345.185 406.145 344.568 405.583C343.951 405.022 343.566 404.25 343.488 403.42L335.524 296.352L335.9 296.322L390.71 291.819L390.725 292.208L395.082 403.122C395.099 403.572 395.025 404.022 394.864 404.443C394.703 404.864 394.459 405.249 394.146 405.573C393.833 405.898 393.457 406.156 393.042 406.333C392.627 406.509 392.18 406.6 391.729 406.6H380.982C380.18 406.604 379.403 406.319 378.794 405.796C378.185 405.274 377.785 404.55 377.667 403.757L363.073 314.158C363.059 314.066 363.01 313.982 362.937 313.924C362.863 313.866 362.771 313.837 362.677 313.844C362.584 313.85 362.497 313.892 362.432 313.96C362.368 314.029 362.332 314.119 362.332 314.212L361.67 402.677C361.663 403.532 361.33 404.351 360.74 404.969C360.149 405.587 359.345 405.956 358.491 406.002L347.004 406.449C346.944 406.453 346.884 406.454 346.824 406.454Z" fill="#2F2E41"/>
<path id="Vector_30" d="M356.18 161.042C366.292 161.042 374.49 152.848 374.49 142.741C374.49 132.633 366.292 124.44 356.18 124.44C346.067 124.44 337.869 132.633 337.869 142.741C337.869 152.848 346.067 161.042 356.18 161.042Z" fill="#A0616A"/>
<path id="Vector_31" d="M359.724 303.181C351.721 303.157 343.757 302.069 336.041 299.946C335.298 299.73 334.653 299.264 334.213 298.628C333.774 297.992 333.567 297.224 333.628 296.454C336.093 259.425 336.673 230.69 331.49 210.809C329.28 202.335 330.283 193.411 334.241 186.324C340.198 175.659 351.146 169.168 362.824 169.392C363.382 169.402 363.946 169.422 364.515 169.451C382.237 170.363 396.047 186.389 395.3 205.174L391.735 294.716C391.722 295.369 391.516 296.004 391.142 296.54C390.769 297.076 390.244 297.49 389.636 297.729C380.073 301.325 369.941 303.172 359.724 303.181Z" fill="#FED57E"/>
<path id="Vector_32" d="M334.503 217.684L320.787 200.885C320.397 200.407 320.114 199.851 319.959 199.254C319.803 198.657 319.778 198.033 319.885 197.426C319.992 196.818 320.229 196.241 320.58 195.733C320.93 195.225 321.386 194.799 321.916 194.483L340.495 183.418C342.953 181.436 346.097 180.508 349.238 180.84C352.379 181.171 355.26 182.734 357.25 185.186C359.239 187.637 360.175 190.777 359.852 193.917C359.528 197.057 357.972 199.941 355.525 201.936L341.004 217.862C340.588 218.318 340.079 218.679 339.511 218.92C338.943 219.162 338.33 219.278 337.713 219.261C337.096 219.244 336.49 219.094 335.936 218.822C335.382 218.55 334.893 218.162 334.503 217.684V217.684Z" fill="#FED57E"/>
<path id="Vector_33" d="M377.649 215.576C377.085 215.324 376.583 214.953 376.176 214.49C375.769 214.026 375.466 213.48 375.29 212.889L369.115 192.245C367.775 189.386 367.624 186.113 368.695 183.143C369.766 180.173 371.971 177.749 374.828 176.402C377.685 175.055 380.959 174.896 383.933 175.959C386.907 177.022 389.338 179.22 390.693 182.072L402.633 200.096C402.974 200.61 403.2 201.192 403.295 201.802C403.391 202.411 403.354 203.034 403.186 203.628C403.019 204.222 402.726 204.773 402.327 205.243C401.928 205.714 401.432 206.093 400.873 206.354L381.225 215.546C380.666 215.808 380.058 215.946 379.44 215.951C378.823 215.956 378.212 215.828 377.649 215.576V215.576Z" fill="#FED57E"/>
<path id="Vector_34" d="M365.228 157.757L351.655 154.652C350.255 154.332 348.573 153.721 348.379 152.299C348.118 150.387 350.87 149.056 350.616 147.144C350.37 145.291 347.863 145.053 346.076 144.506C344.411 143.922 343.039 142.714 342.249 141.137C341.46 139.56 341.316 137.737 341.847 136.056C339.913 138.78 335.494 139.013 332.986 136.806C330.477 134.599 329.996 130.595 331.502 127.613C332.316 126.148 333.464 124.896 334.854 123.959C336.243 123.022 337.834 122.425 339.497 122.218C342.841 121.839 346.223 122.469 349.206 124.027C349.405 121.916 352.042 121.06 354.163 121.041C358.57 121.092 362.852 122.516 366.412 125.113C369.972 127.71 372.633 131.351 374.026 135.531C376.629 143.915 374.888 153.106 367.604 158.012L365.228 157.757Z" fill="#2F2E41"/>
<path id="Vector_35" d="M501.937 421H217.901C217.703 421 217.513 420.921 217.373 420.782C217.234 420.642 217.155 420.452 217.155 420.255C217.155 420.057 217.234 419.868 217.373 419.728C217.513 419.588 217.703 419.51 217.901 419.51H501.937C502.134 419.51 502.324 419.588 502.464 419.728C502.604 419.868 502.682 420.057 502.682 420.255C502.682 420.452 502.604 420.642 502.464 420.782C502.324 420.921 502.134 421 501.937 421Z" fill="#E7E7E7"/>
</g>
</svg>
