<svg width="787" height="653" viewBox="0 0 787 653" fill="none" xmlns="http://www.w3.org/2000/svg">
<g id="undraw_events_2p66 1" clip-path="url(#clip0)">
<path id="Vector" opacity="0.1" d="M735.035 360.825C704.807 409.751 710.471 476.403 723.748 528.958C728.189 546.554 733.308 565.13 729.51 584.822C724.864 608.902 707.928 627.811 690.789 638.64C659.542 658.333 623.861 657.786 597.878 637.197C575.441 619.413 560.665 588.394 537.756 571.563C499.451 543.391 446.85 560.466 401.177 586.796C368.879 605.379 333.328 629.026 303.475 615.637C282.472 606.235 269.375 579.709 263.262 550.844C260.312 536.908 258.527 521.684 251.763 511.067C247.737 504.756 242.203 500.532 236.465 497.066C184.101 465.477 113.253 491.888 62.7553 456.116C28.6474 431.963 9.25852 382.075 2.88519 328.73C-3.48814 275.385 1.75233 218.305 8.31311 162.106C12.9831 122.15 19.2994 79.4059 40.2612 46.9113C62.4375 12.5411 97.393 -2.82962 127.776 0.432075C158.16 3.69377 184.541 22.9541 207.28 46.4954C235.699 75.9159 261.331 113.491 298.112 122.982C323.165 129.449 350.525 121.963 377.167 117.731C421.65 110.653 465.514 112.683 509.068 115.342C550.763 117.886 592.711 121.05 631.563 135.727C659.053 146.124 680.153 167.765 705.809 181.84C722.533 191.013 741.401 192.179 756.983 204.41C776.177 219.48 792.787 247.294 785.101 282.455C777.774 315.903 751.075 334.862 735.035 360.825Z" fill="#63DDFF"/>
<path id="Vector_2" d="M541.562 250.237C541.562 250.237 623.877 181.228 642.182 146.434C660.487 111.64 683.788 81.6566 683.788 81.6566" stroke="#535461" stroke-width="2" stroke-miterlimit="10"/>
<path id="Vector_3" d="M672.965 159.44L637.357 151.408C637.357 151.408 645.76 188.983 672.965 159.44Z" fill="#63DDFF"/>
<path id="Vector_4" d="M618.555 121.082L639.044 151.783C639.044 151.783 598.987 154.678 618.555 121.082Z" fill="#63DDFF"/>
<path id="Vector_5" d="M686.975 130.582L654.432 124.874C654.432 124.874 674.872 155.983 686.975 130.582Z" fill="#63DDFF"/>
<path id="Vector_6" d="M638.816 103.143L654.847 124.148C654.847 124.148 626.469 126.839 638.816 103.143Z" fill="#63DDFF"/>
<path id="Vector_7" d="M671.261 98.9599C671.261 98.9599 698.972 100.281 702.232 102.931C705.492 105.581 698.099 121.115 687.561 118.579C677.023 116.043 671.261 98.9599 671.261 98.9599Z" fill="#63DDFF"/>
<path id="Vector_8" d="M660.185 74.1791C660.185 74.1791 671.506 94.8175 671.082 98.7479C670.658 102.678 653.828 107.09 650.43 92.2245C647.031 77.3593 660.185 74.1791 660.185 74.1791Z" fill="#63DDFF"/>
<path id="Vector_9" d="M695.389 89.9417C696.671 85.8816 694.42 81.5509 690.362 80.2688C686.304 78.9866 681.975 81.2386 680.694 85.2987C679.412 89.3588 681.663 93.6895 685.721 94.9717C689.779 96.2538 694.108 94.0018 695.389 89.9417Z" fill="#FFD037"/>
<path id="Vector_10" d="M683.327 82.008C684.608 77.9479 682.357 73.6172 678.299 72.3351C674.241 71.0529 669.913 73.3049 668.631 77.365C667.35 81.4251 669.601 85.7559 673.659 87.038C677.717 88.3201 682.045 86.0681 683.327 82.008Z" fill="#FFD037"/>
<path id="Vector_11" d="M284.811 520.754C284.811 520.754 298.022 481.435 214.273 434.034C214.273 434.034 129.235 409.221 137.931 324.009C137.931 324.009 39.9026 395.864 106.236 487.395C172.569 578.927 229.823 558.949 229.823 558.949L284.811 520.754Z" fill="#63DDFF"/>
<path id="Vector_12" d="M259.277 538.514C259.277 538.514 218.413 494.327 179.244 477.243C171.419 473.72 164.229 468.929 157.964 463.063C132.992 440.231 122.104 405.78 128.542 372.551L137.956 324.009" stroke="#535461" stroke-width="2" stroke-miterlimit="10"/>
<path id="Vector_13" d="M622.402 27.0721H157.353V567.315H622.402V27.0721Z" fill="url(#paint0_linear)"/>
<path id="Vector_14" d="M616.99 33.359H162.772V561.012H616.99V33.359Z" fill="#F7F7FD"/>
<path id="Vector_15" d="M305.031 92.8361H190.206V101.985H305.031V92.8361Z" fill="#E2E2EC"/>
<path id="Vector_16" d="M386.32 115.203H190.206V124.352H386.32V115.203Z" fill="#E2E2EC"/>
<path id="Vector_17" d="M595.238 84.0947H513.746V154.45H595.238V84.0947Z" fill="white"/>
<path id="Vector_18" d="M594.806 84.5024V154.042H514.12V84.5024H594.806ZM595.621 83.687H513.305V154.857H595.621V83.687Z" fill="#E2E2EC"/>
<path id="Vector_19" d="M512.931 84.0947H431.438V154.45H512.931V84.0947Z" fill="white"/>
<path id="Vector_20" d="M512.49 84.5024V154.042H431.805V84.5024H512.49ZM513.305 83.687H430.99V154.857H513.305V83.687Z" fill="#E2E2EC"/>
<path id="Day1" d="M595.238 155.265H513.746V225.62H595.238V155.265Z" fill="white"/>
<path id="Vector_21" d="M594.806 155.673V225.212H514.12V155.673H594.806ZM595.621 154.857H513.305V226.027H595.621V154.857Z" fill="#E2E2EC"/>
<path id="Vector_22" d="M512.931 155.265H431.438V225.62H512.931V155.265Z" fill="white"/>
<path id="Vector_23" d="M512.49 155.673V225.212H431.805V155.673H512.49ZM513.305 154.857H430.99V226.027H513.305V154.857Z" fill="#E2E2EC"/>
<path id="Vector_24" d="M430.623 155.265H349.131V225.62H430.623V155.265Z" fill="white"/>
<path id="Vector_25" d="M430.216 155.673V225.212H349.531V155.673H430.216ZM431.031 154.857H348.716V226.027H431.031V154.857Z" fill="#E2E2EC"/>
<path id="Vector_26" d="M348.316 155.265H266.824V225.62H348.316V155.265Z" fill="white"/>
<path id="Vector_27" d="M347.909 155.673V225.212H267.223V155.673H347.909ZM348.724 154.857H266.408V226.027H348.724V154.857Z" fill="#E2E2EC"/>
<path id="Day3No" d="M266.009 155.265H184.517V225.62H266.009V155.265Z" fill="white"/>
<path id="Vector_28" d="M265.602 155.673V225.212H184.916V155.673H265.602ZM266.417 154.857H184.101V226.027H266.417V154.857Z" fill="#E2E2EC"/>
<path id="Vector_29" d="M595.238 226.427H513.746V296.782H595.238V226.427Z" fill="white"/>
<path id="Vector_30" d="M594.806 226.843V296.382H514.12V226.843H594.806ZM595.621 226.027H513.305V297.198H595.621V226.027Z" fill="#E2E2EC"/>
<path id="Vector_31" d="M512.931 226.427H431.438V296.782H512.931V226.427Z" fill="white"/>
<path id="Vector_32" d="M512.49 226.843V296.382H431.805V226.843H512.49ZM513.305 226.027H430.99V297.198H513.305V226.027Z" fill="#E2E2EC"/>
<path id="Vector_33" d="M430.623 226.427H349.131V296.782H430.623V226.427Z" fill="white"/>
<path id="Vector_34" d="M430.216 226.843V296.382H349.531V226.843H430.216ZM431.031 226.027H348.716V297.198H431.031V226.027Z" fill="#E2E2EC"/>
<path id="Day5No" d="M348.316 226.427H266.824V296.782H348.316V226.427Z" fill="white"/>
<path id="Vector_35" d="M347.909 226.843V296.382H267.223V226.843H347.909ZM348.724 226.027H266.408V297.198H348.724V226.027Z" fill="#E2E2EC"/>
<path id="Vector_36" d="M266.009 226.427H184.517V296.782H266.009V226.427Z" fill="white"/>
<path id="Vector_37" d="M265.602 226.843V296.382H184.916V226.843H265.602ZM266.417 226.027H184.101V297.198H266.417V226.027Z" fill="#E2E2EC"/>
<path id="Day2" d="M595.238 297.597H513.746V367.952H595.238V297.597Z" fill="white"/>
<path id="Vector_38" d="M594.806 298.005V367.544H514.12V298.005H594.806ZM595.621 297.19H513.305V368.36H595.621V297.19Z" fill="#E2E2EC"/>
<path id="Vector_39" d="M512.931 297.597H431.438V367.952H512.931V297.597Z" fill="white"/>
<path id="Vector_40" d="M512.49 298.005V367.544H431.805V298.005H512.49ZM513.305 297.19H430.99V368.36H513.305V297.19Z" fill="#E2E2EC"/>
<path id="Vector_41" d="M430.623 297.597H349.131V367.952H430.623V297.597Z" fill="white"/>
<path id="Vector_42" d="M430.216 298.005V367.544H349.531V298.005H430.216ZM431.031 297.19H348.716V368.36H431.031V297.19Z" fill="#E2E2EC"/>
<path id="Vector_43" d="M348.316 297.597H266.824V367.952H348.316V297.597Z" fill="white"/>
<path id="Vector_44" d="M347.909 298.005V367.544H267.223V298.005H347.909ZM348.724 297.19H266.408V368.36H348.724V297.19Z" fill="#E2E2EC"/>
<path id="Day4No" d="M266.009 297.597H184.517V367.952H266.009V297.597Z" fill="white"/>
<path id="Vector_45" d="M265.602 298.005V367.544H184.916V298.005H265.602ZM266.417 297.19H184.101V368.36H266.417V297.19Z" fill="#E2E2EC"/>
<path id="Vector_46" d="M595.238 368.759H513.746V439.114H595.238V368.759Z" fill="white"/>
<path id="Vector_47" d="M594.806 369.175V438.706H514.12V369.175H594.806ZM595.621 368.36H513.305V439.522H595.621V368.36Z" fill="#E2E2EC"/>
<path id="Vector_48" d="M512.931 368.759H431.438V439.114H512.931V368.759Z" fill="white"/>
<path id="Vector_49" d="M512.49 369.175V438.706H431.805V369.175H512.49ZM513.305 368.36H430.99V439.522H513.305V368.36Z" fill="#E2E2EC"/>
<path id="Vector_50" d="M430.623 368.759H349.131V439.114H430.623V368.759Z" fill="white"/>
<path id="Vector_51" d="M430.216 369.175V438.706H349.531V369.175H430.216ZM431.031 368.36H348.716V439.522H431.031V368.36Z" fill="#E2E2EC"/>
<path id="Vector_52" d="M348.316 368.759H266.824V439.114H348.316V368.759Z" fill="white"/>
<path id="Vector_53" d="M347.909 369.175V438.706H267.223V369.175H347.909ZM348.724 368.36H266.408V439.522H348.724V368.36Z" fill="#E2E2EC"/>
<path id="Vector_54" d="M266.009 368.759H184.517V439.114H266.009V368.759Z" fill="white"/>
<path id="Vector_55" d="M265.602 369.175V438.706H184.916V369.175H265.602ZM266.417 368.36H184.101V439.522H266.417V368.36Z" fill="#E2E2EC"/>
<path id="Vector_56" d="M595.238 439.93H513.746V510.284H595.238V439.93Z" fill="white"/>
<path id="Vector_57" d="M594.806 440.337V509.877H514.12V440.337H594.806ZM595.621 439.522H513.305V510.692H595.621V439.522Z" fill="#E2E2EC"/>
<path id="Vector_58" d="M512.931 439.93H431.438V510.284H512.931V439.93Z" fill="white"/>
<path id="Vector_59" d="M512.49 440.337V509.877H431.805V440.337H512.49ZM513.305 439.522H430.99V510.692H513.305V439.522Z" fill="#E2E2EC"/>
<path id="Vector_60" d="M430.623 439.93H349.131V510.284H430.623V439.93Z" fill="white"/>
<path id="Vector_61" d="M430.216 440.337V509.877H349.531V440.337H430.216ZM431.031 439.522H348.716V510.692H431.031V439.522Z" fill="#E2E2EC"/>
<path id="Vector_62" d="M348.316 439.93H266.824V510.284H348.316V439.93Z" fill="white"/>
<path id="Vector_63" d="M347.909 440.337V509.877H267.223V440.337H347.909ZM348.724 439.522H266.408V510.692H348.724V439.522Z" fill="#E2E2EC"/>
<path id="Vector_64" d="M266.009 439.93H184.517V510.284H266.009V439.93Z" fill="white"/>
<path id="Vector_65" d="M265.602 440.337V509.877H184.916V440.337H265.602ZM266.417 439.522H184.101V510.692H266.417V439.522Z" fill="#E2E2EC"/>
<path id="Vector_66" d="M355.684 574.784C358.015 573.015 360.207 570.927 360.884 568.383C361.231 567.037 361.047 565.609 360.37 564.394C359.694 563.18 358.576 562.272 357.249 561.86C353.915 560.816 350.354 562.675 347.648 564.608C344.942 566.54 341.853 568.685 338.316 568.285C341.975 565.635 343.72 561.338 342.709 557.432C342.536 556.591 342.109 555.822 341.486 555.231C339.636 553.6 336.279 554.309 334.062 555.581C327.012 559.658 325.048 567.446 325.007 574.483C324.298 571.947 324.893 569.305 324.877 566.695C324.86 564.086 323.988 561.208 321.299 559.805C319.578 559.058 317.714 558.699 315.838 558.753C312.668 558.655 309.139 558.916 306.979 560.808C304.29 563.156 304.991 567.103 307.33 569.688C309.669 572.273 313.23 573.896 316.498 575.681C318.992 577.043 321.519 578.633 323.018 580.786C323.215 581.071 323.379 581.377 323.507 581.699H343.369C347.744 579.913 351.881 577.59 355.684 574.784Z" fill="#63DDFF"/>
<path id="Dot1" d="M195.267 170.611C197.832 170.611 199.912 168.53 199.912 165.963C199.912 163.396 197.832 161.315 195.267 161.315C192.701 161.315 190.621 163.396 190.621 165.963C190.621 168.53 192.701 170.611 195.267 170.611Z" fill="#FC6681"/>
<path id="Dot3" d="M206.872 170.611C209.438 170.611 211.518 168.53 211.518 165.963C211.518 163.396 209.438 161.315 206.872 161.315C204.307 161.315 202.227 163.396 202.227 165.963C202.227 168.53 204.307 170.611 206.872 170.611Z" fill="#FFD037"/>
<path id="Dot6" d="M359.311 239.515C361.876 239.515 363.956 237.434 363.956 234.867C363.956 232.3 361.876 230.219 359.311 230.219C356.745 230.219 354.665 232.3 354.665 234.867C354.665 237.434 356.745 239.515 359.311 239.515Z" fill="#63DDFF"/>
<path id="Dot9" d="M370.924 239.515C373.49 239.515 375.57 237.434 375.57 234.867C375.57 232.3 373.49 230.219 370.924 230.219C368.359 230.219 366.279 232.3 366.279 234.867C366.279 237.434 368.359 239.515 370.924 239.515Z" fill="#63DDFF"/>
<g id="DotPile">
<path id="Vector_67" d="M607.699 372.673C610.265 372.673 612.345 370.592 612.345 368.025C612.345 365.458 610.265 363.378 607.699 363.378C605.134 363.378 603.054 365.458 603.054 368.025C603.054 370.592 605.134 372.673 607.699 372.673Z" fill="#63DDFF"/>
<path id="Vector_68" d="M610.022 367.259C612.588 367.259 614.668 365.178 614.668 362.611C614.668 360.044 612.588 357.963 610.022 357.963C607.456 357.963 605.376 360.044 605.376 362.611C605.376 365.178 607.456 367.259 610.022 367.259Z" fill="#63DDFF"/>
<path id="Vector_69" d="M612.345 362.611C614.91 362.611 616.99 360.53 616.99 357.963C616.99 355.396 614.91 353.315 612.345 353.315C609.779 353.315 607.699 355.396 607.699 357.963C607.699 360.53 609.779 362.611 612.345 362.611Z" fill="#63DDFF"/>
</g>
<path id="Dot3_2" d="M525.677 170.611C528.243 170.611 530.323 168.53 530.323 165.963C530.323 163.396 528.243 161.315 525.677 161.315C523.112 161.315 521.032 163.396 521.032 165.963C521.032 168.53 523.112 170.611 525.677 170.611Z" fill="#63DDFF"/>
<path id="Dot4" d="M537.283 170.611C539.849 170.611 541.928 168.53 541.928 165.963C541.928 163.396 539.849 161.315 537.283 161.315C534.717 161.315 532.637 163.396 532.637 165.963C532.637 168.53 534.717 170.611 537.283 170.611Z" fill="#63DDFF"/>
<path id="Dot7" d="M548.897 170.611C551.462 170.611 553.542 168.53 553.542 165.963C553.542 163.396 551.462 161.315 548.897 161.315C546.331 161.315 544.251 163.396 544.251 165.963C544.251 168.53 546.331 170.611 548.897 170.611Z" fill="#63DDFF"/>
<path id="Dot10" d="M560.502 170.611C563.068 170.611 565.148 168.53 565.148 165.963C565.148 163.396 563.068 161.315 560.502 161.315C557.937 161.315 555.857 163.396 555.857 165.963C555.857 168.53 557.937 170.611 560.502 170.611Z" fill="#63DDFF"/>
<path id="Dot8" d="M525.677 314.607C528.243 314.607 530.323 312.526 530.323 309.959C530.323 307.392 528.243 305.311 525.677 305.311C523.112 305.311 521.032 307.392 521.032 309.959C521.032 312.526 523.112 314.607 525.677 314.607Z" fill="#63DDFF"/>
<path id="Dot11" d="M537.283 314.607C539.849 314.607 541.928 312.526 541.928 309.959C541.928 307.392 539.849 305.311 537.283 305.311C534.717 305.311 532.637 307.392 532.637 309.959C532.637 312.526 534.717 314.607 537.283 314.607Z" fill="#63DDFF"/>
<path id="Dot12" d="M548.897 314.607C551.462 314.607 553.542 312.526 553.542 309.959C553.542 307.392 551.462 305.311 548.897 305.311C546.331 305.311 544.251 307.392 544.251 309.959C544.251 312.526 546.331 314.607 548.897 314.607Z" fill="#63DDFF"/>
<path id="Dot13" d="M560.502 314.607C563.068 314.607 565.148 312.526 565.148 309.959C565.148 307.392 563.068 305.311 560.502 305.311C557.937 305.311 555.857 307.392 555.857 309.959C555.857 312.526 557.937 314.607 560.502 314.607Z" fill="#63DDFF"/>
<path id="Dot14" d="M441.645 239.296C444.211 239.296 446.291 237.215 446.291 234.648C446.291 232.081 444.211 230 441.645 230C439.08 230 437 232.081 437 234.648C437 237.215 439.08 239.296 441.645 239.296Z" fill="#63DDFF"/>
<path id="Dot5" d="M277.289 239.515C279.854 239.515 281.934 237.434 281.934 234.867C281.934 232.3 279.854 230.219 277.289 230.219C274.723 230.219 272.643 232.3 272.643 234.867C272.643 237.434 274.723 239.515 277.289 239.515Z" fill="#FFD037"/>
<path id="Dot2" d="M195.267 309.967C197.832 309.967 199.912 307.886 199.912 305.319C199.912 302.752 197.832 300.671 195.267 300.671C192.701 300.671 190.621 302.752 190.621 305.319C190.621 307.886 192.701 309.967 195.267 309.967Z" fill="#FC6681"/>
<path id="Dot15" d="M453.646 239.296C456.211 239.296 458.291 237.215 458.291 234.648C458.291 232.081 456.211 230 453.646 230C451.08 230 449 232.081 449 234.648C449 237.215 451.08 239.296 453.646 239.296Z" fill="#FC6681"/>
<path id="Vector_70" d="M603.689 379.686C608.783 382.695 616.729 384.652 626.795 378.186L626.697 392.505C627.414 402.29 639.55 438.095 639.55 438.095L648.107 467.532C654.239 488.328 657.405 509.885 657.512 531.567C657.512 538.751 658.18 546.155 660.242 551.724C664.798 564.045 658.449 579.922 655.695 585.834C651.058 587.401 646.344 588.729 641.571 589.813C641.141 589.911 640.719 590.04 640.307 590.196L640.25 590.115C640.25 590.115 627.406 595.211 621.701 594.51C617.447 593.988 614.782 599.296 618.115 603.202C614.969 604.017 611.742 604.596 609.566 604.327C603.861 603.626 601 613.444 611.709 616.249C622.418 619.054 683.095 616.249 683.095 616.249C684.802 615.395 686.176 613.997 687.002 612.276C687.829 610.555 688.06 608.608 687.659 606.741C692.321 606.562 695.231 606.423 695.231 606.423C695.231 606.423 705.94 601.53 695.231 588.182L694.66 588.614L692.37 581.871V572.762C692.37 572.762 705.932 507.528 701.653 499.814C697.374 492.1 695.231 452.821 695.231 452.821L696.681 410.036C700.553 402.045 702.533 389.52 703.535 379.727C704.992 375.055 705.911 370.232 706.274 365.351C706.445 363.051 706.584 360.638 706.673 358.134C706.709 352.643 705.811 347.186 704.016 341.997C708.091 336.126 714.717 327.05 720.186 321.685C728.752 313.27 726.608 303.444 726.608 303.444L723.039 279.593L714.473 238.911C715.549 227.626 713.193 221.127 710.593 217.457C711.213 213.812 711.791 210.167 712.223 206.506C714.122 190.585 713.276 174.455 709.721 158.82C708.483 153.365 706.795 147.771 702.973 143.637C698.645 138.956 691.62 136.102 690.006 129.97C689.607 128.446 689.591 126.823 689.012 125.355C687.447 121.343 682.492 119.884 678.156 119.362C670.43 118.424 659.256 117.731 651.832 120.748C646.648 122.868 639.509 128.707 636.673 134.969C635.043 137.847 634.285 140.873 634.977 143.719C635.251 144.767 635.665 145.774 636.208 146.711C635.102 149.711 634.539 152.883 634.545 156.08C634.571 161.576 636.25 166.937 639.364 171.464C642.478 175.992 646.882 179.477 652.003 181.465C652.174 182.003 652.329 182.533 652.459 183.055C652.784 184.311 653.018 185.589 653.16 186.879C653.022 189.325 652.867 191.845 652.753 194.332C652.671 194.674 652.584 195.011 652.492 195.343C646.352 198.063 640.367 201.117 634.562 204.492C638.849 210.804 633.845 237.46 633.845 237.46C623.135 243.771 612.426 259.908 623.853 276.739C635.279 293.569 628.849 311.802 628.849 311.802L627.064 339.225V339.274L626.705 344.761H626.844L626.705 346.841L627.015 346.898V349.132C622.003 350.975 614.676 354.693 610.307 361.567C608.242 364.949 605.727 368.035 602.834 370.741C602.169 371.316 601.651 372.043 601.324 372.859C600.997 373.676 600.871 374.559 600.954 375.434C601.038 376.31 601.33 377.153 601.806 377.892C602.282 378.632 602.928 379.247 603.689 379.686ZM689.884 306.82C689.454 302.075 690.331 297.304 692.419 293.023C694.098 293.055 695.779 293.074 697.464 293.08C697.635 294.262 697.839 295.387 698.083 296.415C699.534 302.596 693.739 305.556 689.876 306.812L689.884 306.82Z" fill="url(#paint1_linear)"/>
<path id="Vector_71" d="M691.294 578.674L694.041 586.918L685.076 595.888L655.54 602.762L634.244 600.699L635.621 593.14C636.028 591.515 636.875 590.033 638.068 588.858C639.261 587.683 640.755 586.859 642.386 586.478C651.139 584.423 667.83 579.726 671.335 573.211L691.294 578.674Z" fill="#DB8B8B"/>
<path id="Vector_72" opacity="0.1" d="M691.294 578.674L694.041 586.918L685.076 595.888L655.54 602.762L634.244 600.699L635.621 593.14C636.028 591.515 636.875 590.033 638.068 588.858C639.261 587.683 640.755 586.859 642.386 586.478C651.139 584.423 667.83 579.726 671.335 573.211L691.294 578.674Z" fill="black"/>
<path id="Vector_73" d="M641.147 598.603L645.271 593.107L641.147 586.739C641.147 586.739 628.783 591.729 623.29 591.044C617.797 590.359 615.051 600.014 625.352 602.729C635.654 605.444 694.041 602.729 694.041 602.729C694.041 602.729 704.342 597.918 694.041 584.863L685.076 591.737C685.076 591.737 669.965 599.981 662.41 598.611L641.147 598.603Z" fill="#2E3037"/>
<path id="Vector_74" d="M622.597 610.272L643.894 612.335L673.429 605.461L682.394 596.491L681.669 594.306L680.642 591.24L679.615 588.255L659.696 582.759C658.679 584.421 657.282 585.818 655.621 586.836C649.15 591.264 637.528 594.461 630.707 596.059C630.43 596.127 630.158 596.211 629.892 596.312C628.447 596.797 627.148 597.639 626.114 598.759C625.08 599.879 624.344 601.242 623.975 602.721L622.597 610.272Z" fill="#DB8B8B"/>
<path id="Vector_75" opacity="0.1" d="M622.597 610.272L643.894 612.335L673.429 605.461L682.394 596.491L681.669 594.306L673.47 600.617C673.47 600.617 658.36 608.861 650.805 607.491H629.468L633.592 601.995L629.892 596.287C628.447 596.773 627.148 597.614 626.114 598.735C625.08 599.855 624.344 601.217 623.975 602.696L622.597 610.272Z" fill="black"/>
<path id="Vector_76" d="M629.468 608.225L633.592 602.729L629.468 596.361C629.468 596.361 617.104 601.351 611.611 600.666C606.118 599.981 603.372 609.636 613.673 612.351C623.975 615.066 682.362 612.351 682.362 612.351C682.362 612.351 692.663 607.54 682.362 594.485L673.397 601.359C673.397 601.359 658.287 609.603 650.731 608.233L629.468 608.225Z" fill="#2E3037"/>
<path id="Vector_77" d="M646.64 209.621C646.64 209.621 679.615 213.054 674.807 199.314C673.462 195.418 673.112 191.247 673.788 187.181C674.643 182.139 676.636 177.359 679.615 173.204L648.702 178.015C650.554 181.114 651.964 184.457 652.891 187.947C656.575 202.519 646.64 209.621 646.64 209.621Z" fill="#DB8B8B"/>
<path id="Vector_78" d="M702.965 366.313C702.965 366.313 702.28 395.864 695.41 410.297L694.033 452.218C694.033 452.218 696.094 490.706 700.218 498.265C704.342 505.824 691.253 569.737 691.253 569.737V580.737C691.253 580.737 669.248 588.981 663.087 579.359L669.273 497.572L666.526 384.179L702.965 366.313Z" fill="#474463"/>
<path id="Vector_79" opacity="0.1" d="M702.965 366.313C702.965 366.313 702.28 395.864 695.41 410.297L694.033 452.218C694.033 452.218 696.094 490.706 700.218 498.265C704.342 505.824 691.253 569.737 691.253 569.737V580.737C691.253 580.737 669.248 588.981 663.087 579.359L669.273 497.572L666.526 384.179L702.965 366.313Z" fill="black"/>
<path id="Vector_80" d="M716.706 271.471L720.83 282.471L724.261 305.841C724.725 309.097 724.405 312.416 723.329 315.523C722.254 318.631 720.452 321.436 718.075 323.707C709.835 331.951 698.841 349.132 698.841 349.132L685.801 309.992C685.801 309.992 698.841 307.929 696.795 298.992C694.75 290.055 695.41 273.501 695.41 273.501L716.706 271.471Z" fill="#FC6681"/>
<path id="Vector_81" opacity="0.05" d="M716.706 271.471L720.83 282.471L724.261 305.841C724.725 309.097 724.405 312.416 723.329 315.523C722.254 318.631 720.452 321.436 718.075 323.707C709.835 331.951 698.841 349.132 698.841 349.132L685.801 309.992C685.801 309.992 698.841 307.929 696.795 298.992C694.75 290.055 695.41 273.501 695.41 273.501L716.706 271.471Z" fill="black"/>
<path id="Vector_82" opacity="0.1" d="M655.654 586.845C664.464 600.707 678.181 592.854 680.609 591.289L679.615 588.255L659.696 582.759C658.689 584.42 657.304 585.82 655.654 586.845Z" fill="black"/>
<path id="Vector_83" d="M628.099 393.116C628.783 402.738 640.462 437.785 640.462 437.785L648.702 466.627C654.606 487.02 657.654 508.134 657.757 529.365C657.757 536.402 658.401 543.66 660.389 549.115C665.882 564.233 654.896 584.855 654.896 584.855C664.513 602.036 680.976 590.351 680.976 590.351V579.359C680.976 579.359 694.016 519.564 690.593 507.887C687.17 496.21 685.785 464.588 685.785 464.588V407.508C696.788 396.539 703.479 381.974 704.636 366.476C704.799 364.226 704.929 361.861 705.019 359.406C705.573 343.913 694.978 325.721 690.838 319.247C689.843 317.681 689.208 316.801 689.208 316.801L628.555 340.872L628.417 340.929V343.277V348.472L628.099 393.116Z" fill="#474463"/>
<path id="Vector_84" opacity="0.1" d="M648.702 178.007C650.554 181.106 651.964 184.449 652.891 187.939C656.249 189.214 659.828 189.803 663.417 189.671C667.006 189.539 670.532 188.69 673.788 187.173C674.644 182.134 676.637 177.357 679.615 173.204L648.702 178.007Z" fill="black"/>
<path id="Vector_85" d="M662.443 188.306C677.238 188.306 689.232 176.306 689.232 161.503C689.232 146.7 677.238 134.7 662.443 134.7C647.648 134.7 635.654 146.7 635.654 161.503C635.654 176.306 647.648 188.306 662.443 188.306Z" fill="#DB8B8B"/>
<path id="Vector_86" opacity="0.1" d="M628.099 348.447L628.392 348.504C657.194 354.432 693.356 324.392 693.356 324.392C692.387 322.757 691.55 321.048 690.854 319.279C689.86 317.714 689.224 316.833 689.224 316.833L628.571 340.904L628.417 343.31L628.099 348.447Z" fill="black"/>
<path id="Vector_87" d="M635.654 208.928C635.654 208.928 674.122 185.558 686.486 195.18L703.658 217.196C703.658 217.196 714.652 220.629 712.623 242.621L720.83 282.471L696.103 288.66C696.103 288.66 681.677 302.408 693.356 322.337C693.356 322.337 656.95 352.573 628.099 346.392L630.161 314.093C630.161 314.093 636.347 296.227 625.352 279.731C614.358 263.235 624.668 247.432 634.969 241.243C634.969 241.235 639.77 215.117 635.654 208.928Z" fill="#FC6681"/>
<g id="leftarm">
<path id="Vector_88" d="M633.592 349.132C633.592 349.132 619.166 351.88 612.296 362.88C610.314 366.18 607.896 369.197 605.108 371.85C604.48 372.419 603.994 373.127 603.688 373.916C603.381 374.706 603.263 375.556 603.342 376.4C603.421 377.243 603.696 378.057 604.143 378.776C604.591 379.495 605.2 380.1 605.923 380.542C611.375 383.804 620.267 385.834 631.497 376.604C650.764 360.817 633.592 349.132 633.592 349.132Z" fill="#DB8B8B"/>
<path id="Vector_89" opacity="0.1" d="M654.888 221.991C654.888 221.991 668.629 220.613 672.06 256.353C675.491 292.093 681.025 300.337 681.025 300.337C681.025 300.337 684.456 318.896 676.217 329.888C667.977 340.88 652.174 364.25 652.174 364.25C652.174 364.25 635.002 369.061 631.571 351.88L652.867 312.022C652.867 312.022 656.298 298.274 648.058 288.652C639.819 279.03 633.592 215.117 654.888 221.991Z" fill="black"/>
<path id="Vector_90" d="M653.486 219.928C653.486 219.928 667.227 218.55 670.658 254.29C674.089 290.03 679.623 298.274 679.623 298.274C679.623 298.274 683.054 316.833 674.815 327.825C666.575 338.817 650.772 362.187 650.772 362.187C650.772 362.187 633.6 366.998 630.169 349.817L651.465 309.959C651.465 309.959 654.896 296.211 646.656 286.589C638.417 276.967 632.215 213.054 653.486 219.928Z" fill="#FC6681"/>
</g>
<path id="Vector_91" opacity="0.1" d="M642.174 245.695C642.174 245.695 640.805 266.978 646.966 278.688C653.128 290.397 653.152 305.491 646.966 313.751" fill="black"/>
<path id="Vector_92" opacity="0.1" d="M638.743 219.586C638.743 219.586 644.236 214.09 660.039 213.397C675.842 212.704 682.704 207.901 682.704 207.901" fill="black"/>
<path id="Vector_93" opacity="0.1" d="M676.95 126.872C681.123 127.386 685.915 128.821 687.398 132.743C687.953 134.186 687.969 135.776 688.352 137.269C689.909 143.27 696.665 146.067 700.83 150.658C704.505 154.735 706.127 160.19 707.35 165.531C710.779 180.847 711.606 196.632 709.795 212.222C708.458 223.638 705.72 234.842 704.954 246.291C704.187 257.739 705.589 269.783 711.84 279.405C714.53 283.539 718.083 287.176 719.99 291.726C716.054 294.923 710.618 295.379 705.54 295.551C699.634 295.752 693.726 295.752 687.814 295.551C684.717 295.445 681.481 295.241 678.808 293.675C676.829 292.409 675.203 290.661 674.081 288.595C670.699 282.887 669.851 275.956 670.006 269.302C670.161 262.648 671.204 256.027 671.327 249.365C671.392 245.736 671.106 241.879 669.02 238.911C667.512 236.767 665.222 235.323 663.266 233.586C655.931 227.063 653.388 216.609 653.144 206.783C652.899 196.958 654.521 187.115 653.69 177.322C653.364 173.49 651.929 168.883 648.164 168.141C646.974 167.904 645.719 168.141 644.578 167.684C641.554 166.518 641.848 162.253 640.984 159.13C640.014 155.624 637.023 152.917 636.184 149.345C634.203 141.028 644.782 131.104 651.718 128.209C658.767 125.257 669.517 125.959 676.95 126.872Z" fill="black"/>
<path id="Vector_94" d="M677.635 125.502C681.807 126.016 686.6 127.451 688.083 131.373C688.637 132.816 688.653 134.406 689.037 135.899C690.593 141.9 697.35 144.697 701.514 149.288C705.19 153.365 706.812 158.82 708.034 164.161C711.464 179.477 712.29 195.262 710.479 210.852C709.143 222.268 706.404 233.472 705.638 244.921C704.872 256.369 706.274 268.413 712.525 278.035C715.214 282.169 718.768 285.806 720.675 290.356C716.739 293.553 711.302 294.009 706.225 294.181C700.319 294.382 694.41 294.382 688.499 294.181C685.402 294.075 682.166 293.871 679.493 292.305C677.513 291.039 675.887 289.291 674.766 287.225C671.384 281.517 670.536 274.586 670.691 267.932C670.846 261.278 671.889 254.657 672.011 247.995C672.076 244.366 671.791 240.509 669.705 237.541C668.197 235.397 665.907 233.953 663.951 232.217C656.616 225.693 654.073 215.239 653.828 205.414C653.584 195.588 655.206 185.746 654.374 175.952C654.048 172.12 652.614 167.513 648.849 166.771C647.659 166.534 646.404 166.771 645.263 166.314C642.239 165.148 642.532 160.883 641.669 157.76C640.699 154.254 637.708 151.547 636.868 147.975C634.888 139.658 645.466 129.734 652.402 126.839C659.452 123.879 670.202 124.581 677.635 125.502Z" fill="#472727"/>
</g>
<defs>
<linearGradient id="paint0_linear" x1="389.881" y1="567.307" x2="389.881" y2="27.0721" gradientUnits="userSpaceOnUse">
<stop stop-color="#808080" stop-opacity="0.25"/>
<stop offset="0.54" stop-color="#808080" stop-opacity="0.12"/>
<stop offset="1" stop-color="#808080" stop-opacity="0.1"/>
</linearGradient>
<linearGradient id="paint1_linear" x1="-229497" y1="402695" x2="-229497" y2="97401" gradientUnits="userSpaceOnUse">
<stop stop-color="#808080" stop-opacity="0.25"/>
<stop offset="0.54" stop-color="#808080" stop-opacity="0.12"/>
<stop offset="1" stop-color="#808080" stop-opacity="0.1"/>
</linearGradient>
<clipPath id="clip0">
<rect width="787" height="653" fill="white"/>
</clipPath>
</defs>
</svg>
