<svg width="820" height="656" viewBox="0 0 820 656" fill="none" xmlns="http://www.w3.org/2000/svg">
<g id="undraw_Timeline_re_aw6g 1">
<path id="Vector" d="M819.985 611.085C819.858 625.542 818.798 639.976 816.813 654.296C816.744 654.799 816.668 655.302 816.598 655.805L681.156 655.048C680.759 654.549 680.367 654.044 679.988 653.532C678.723 651.839 677.538 650.098 676.45 648.297C671.221 639.621 668.827 629.463 671.226 622.454L671.269 622.346C671.787 620.811 672.603 619.393 673.67 618.175C679.14 612.02 690.199 613.046 700.235 618.014C691.234 608.165 684.066 595.736 683.521 584.642C682.987 573.821 688.648 566.091 694.787 559.522C694.988 559.305 695.19 559.094 695.391 558.883C695.489 558.774 695.593 558.672 695.69 558.563C700.48 553.557 706.065 548.622 714.148 549.219C723.012 549.874 732.841 557.297 739.732 565.946C746.624 574.589 751.203 584.408 755.845 593.99C760.493 603.567 765.521 613.388 772.979 621.574C762.878 608.801 754.733 594.269 751.725 580.136C748.716 566.002 751.364 552.428 760.367 545.772C763.1 543.813 766.263 542.538 769.59 542.052C769.979 541.987 770.373 541.935 770.774 541.888C779.108 540.94 789.059 543.822 797.525 550.709C806.849 558.292 813.313 569.534 816.53 580.207C819.746 590.879 820.088 601.153 819.985 611.085Z" fill="#F2F2F2"/>
<path id="Vector_2" d="M731.371 655.329L728.781 655.314C727.958 654.801 727.132 654.293 726.302 653.791C725.788 653.467 725.268 653.154 724.748 652.836C716.157 647.591 707.513 642.561 698.815 637.744C690.125 632.923 681.391 628.324 672.613 623.948C672.38 623.847 672.19 623.667 672.077 623.44C671.963 623.214 671.932 622.954 671.989 622.707C671.998 622.675 672.013 622.644 672.032 622.617C672.155 622.387 672.428 622.291 672.828 622.488C673.904 623.027 674.987 623.567 676.064 624.119C684.865 628.57 693.629 633.244 702.355 638.14C711.075 643.033 719.746 648.143 728.366 653.469C728.548 653.579 728.729 653.695 728.91 653.805C729.732 654.313 730.549 654.821 731.371 655.329Z" fill="white"/>
<path id="Vector_3" d="M764.764 655.515L763.163 655.506C762.801 655.001 762.446 654.496 762.085 653.991C753.599 642.094 745.114 630.198 736.631 618.302C722.739 598.826 708.851 579.351 694.967 559.875C694.885 559.77 694.824 559.65 694.787 559.522C694.668 559.091 694.985 558.838 695.391 558.883C695.563 558.907 695.727 558.968 695.873 559.061C696.018 559.153 696.143 559.276 696.238 559.421C704.026 570.343 711.813 581.261 719.597 592.175C733.417 611.553 747.235 630.93 761.051 650.304C761.929 651.534 762.808 652.77 763.687 653.999C764.048 654.505 764.409 655.01 764.764 655.515Z" fill="white"/>
<path id="Vector_4" d="M800.443 646.219C800.361 648.917 800.183 651.572 799.949 654.202C799.904 654.705 799.859 655.208 799.813 655.711L798.133 655.702C798.185 655.199 798.236 654.696 798.281 654.193C798.636 650.393 798.888 646.55 798.922 642.602C798.967 631.658 797.9 620.738 795.738 610.01C793.44 598.458 790.14 587.128 785.875 576.149C781.4 564.569 776.003 553.365 769.739 542.647C769.621 542.472 769.568 542.261 769.59 542.051C769.66 541.573 770.297 541.431 770.774 541.888C770.868 541.978 770.949 542.08 771.015 542.193C771.79 543.525 772.551 544.861 773.298 546.202C779.332 556.98 784.496 568.222 788.742 579.821C792.787 590.836 795.863 602.183 797.937 613.733C799.879 624.448 800.719 635.333 800.443 646.219Z" fill="white"/>
<path id="Vector_5" d="M555.145 632.045C555.079 639.6 554.526 647.142 553.488 654.626C553.452 654.889 553.412 655.152 553.376 655.414L482.597 655.019C482.389 654.758 482.185 654.494 481.986 654.227C481.326 653.342 480.706 652.432 480.138 651.491C477.405 646.957 476.154 641.649 477.408 637.986L477.43 637.929C477.701 637.127 478.127 636.387 478.685 635.75C481.543 632.534 487.323 633.07 492.567 635.666C487.863 630.519 484.118 624.024 483.833 618.226C483.554 612.572 486.512 608.532 489.72 605.099C489.825 604.986 489.931 604.875 490.036 604.765C490.087 604.708 490.141 604.655 490.192 604.598C492.695 601.982 495.614 599.403 499.837 599.715C504.47 600.058 509.606 603.936 513.207 608.456C516.809 612.973 519.202 618.104 521.628 623.112C524.056 628.116 526.684 633.248 530.582 637.526C525.303 630.851 521.047 623.257 519.474 615.871C517.902 608.486 519.286 601.392 523.991 597.914C525.419 596.89 527.072 596.224 528.811 595.97C529.014 595.936 529.22 595.908 529.429 595.884C533.784 595.389 538.984 596.895 543.409 600.494C548.145 604.56 551.595 609.916 553.34 615.908C555.021 621.486 555.2 626.855 555.145 632.045Z" fill="#F2F2F2"/>
<path id="Vector_6" d="M508.838 655.166L507.485 655.158C507.055 654.89 506.623 654.624 506.189 654.362C505.921 654.192 505.649 654.029 505.377 653.863C500.888 651.122 496.37 648.493 491.825 645.976C487.284 643.457 482.72 641.054 478.133 638.767C478.011 638.714 477.912 638.62 477.852 638.501C477.793 638.383 477.776 638.247 477.806 638.118C477.811 638.101 477.819 638.085 477.829 638.071C477.893 637.951 478.036 637.901 478.245 638.004C478.807 638.286 479.373 638.568 479.936 638.856C484.535 641.182 489.115 643.624 493.675 646.183C498.232 648.74 502.763 651.41 507.268 654.194C507.363 654.251 507.457 654.312 507.552 654.369C507.982 654.635 508.408 654.9 508.838 655.166Z" fill="white"/>
<path id="Vector_7" d="M526.289 655.263L525.452 655.258C525.263 654.994 525.077 654.73 524.889 654.466C520.454 648.25 516.02 642.033 511.587 635.816C504.327 625.639 497.07 615.461 489.814 605.284C489.771 605.229 489.739 605.166 489.72 605.099C489.658 604.874 489.824 604.742 490.036 604.765C490.125 604.778 490.211 604.81 490.287 604.858C490.364 604.907 490.429 604.971 490.478 605.046C494.548 610.754 498.617 616.46 502.685 622.163C509.907 632.29 517.128 642.415 524.348 652.54C524.807 653.182 525.266 653.828 525.726 654.471C525.914 654.735 526.103 654.999 526.289 655.263Z" fill="white"/>
<path id="Vector_8" d="M544.934 650.405C544.891 651.815 544.798 653.202 544.676 654.577C544.652 654.84 544.628 655.103 544.605 655.365L543.727 655.361C543.753 655.098 543.78 654.835 543.804 654.572C543.989 652.586 544.121 650.578 544.139 648.515C544.162 642.796 543.605 637.089 542.475 631.483C541.274 625.446 539.549 619.525 537.321 613.788C534.982 607.736 532.162 601.882 528.888 596.281C528.826 596.189 528.799 596.079 528.811 595.97C528.847 595.719 529.18 595.645 529.429 595.884C529.478 595.931 529.521 595.985 529.555 596.043C529.96 596.74 530.358 597.438 530.748 598.138C533.901 603.771 536.6 609.646 538.819 615.707C540.933 621.463 542.54 627.393 543.624 633.429C544.639 639.028 545.078 644.716 544.934 650.405Z" fill="white"/>
<g id="Clipboard2">
<path id="Vector_9" d="M146.48 356.74H13.8333C10.1658 356.736 6.64966 355.278 4.05631 352.686C1.46296 350.093 0.00417935 346.578 0 342.912V183.642C0.00417935 179.976 1.46296 176.461 4.05631 173.869C6.64966 171.276 10.1658 169.818 13.8333 169.814H146.48C150.147 169.818 153.663 171.276 156.257 173.869C158.85 176.461 160.309 179.976 160.313 183.642V342.912C160.309 346.578 158.85 350.093 156.257 352.686C153.663 355.278 150.147 356.736 146.48 356.74V356.74ZM13.8333 171.579C10.6338 171.582 7.56635 172.854 5.30394 175.116C3.04153 177.377 1.76892 180.444 1.76531 183.642V342.912C1.76892 346.111 3.04153 349.177 5.30394 351.438C7.56635 353.7 10.6338 354.972 13.8333 354.976H146.48C149.679 354.972 152.747 353.7 155.009 351.438C157.272 349.177 158.544 346.111 158.548 342.912V183.642C158.544 180.444 157.272 177.377 155.009 175.116C152.747 172.854 149.679 171.582 146.48 171.579H13.8333Z" fill="#3F3D56"/>
<path id="Vector_10" d="M111.164 182.906H49.1493C46.2241 182.903 43.4197 181.74 41.3513 179.672C39.2829 177.604 38.1194 174.801 38.1161 171.877V169.515C38.1194 166.591 39.2829 163.788 41.3513 161.72C43.4197 159.652 46.2241 158.489 49.1493 158.486H111.164C114.089 158.489 116.893 159.652 118.962 161.72C121.03 163.788 122.194 166.591 122.197 169.515V171.877C122.194 174.801 121.03 177.604 118.962 179.672C116.893 181.74 114.089 182.903 111.164 182.906V182.906Z" fill="#CCCCCC"/>
</g>
<path id="Clip2Text2" d="M140.986 269.554H19.3276C18.5024 269.555 17.6851 269.393 16.9224 269.078C16.1598 268.763 15.4667 268.301 14.8828 267.718C14.299 267.135 13.8358 266.443 13.5198 265.681C13.2037 264.919 13.0411 264.102 13.0411 263.277C13.0411 262.452 13.2037 261.635 13.5198 260.873C13.8358 260.111 14.299 259.419 14.8828 258.836C15.4667 258.253 16.1598 257.791 16.9224 257.476C17.6851 257.161 18.5024 256.999 19.3276 257H140.986C142.65 257.002 144.245 257.665 145.421 258.841C146.597 260.018 147.257 261.614 147.257 263.277C147.257 264.94 146.597 266.536 145.421 267.713C144.245 268.89 142.65 269.552 140.986 269.554Z" fill="#63DDFF"/>
<path id="Clip2Text3" d="M140.986 296.23H19.3276C18.5024 296.231 17.6851 296.069 16.9224 295.754C16.1598 295.439 15.4667 294.977 14.8828 294.394C14.299 293.811 13.8358 293.119 13.5198 292.357C13.2037 291.595 13.0411 290.778 13.0411 289.953C13.0411 289.128 13.2037 288.311 13.5198 287.549C13.8358 286.787 14.299 286.095 14.8828 285.512C15.4667 284.929 16.1598 284.467 16.9224 284.152C17.6851 283.837 18.5024 283.675 19.3276 283.676H140.986C142.65 283.678 144.245 284.34 145.421 285.517C146.597 286.694 147.257 288.29 147.257 289.953C147.257 291.616 146.597 293.212 145.421 294.389C144.245 295.565 142.65 296.228 140.986 296.23Z" fill="#63DDFF"/>
<path id="Clip2Text1" d="M108.413 242.878H51.9005C51.0753 242.879 50.258 242.717 49.4953 242.402C48.7326 242.087 48.0396 241.625 47.4557 241.042C46.8718 240.459 46.4087 239.767 46.0926 239.005C45.7766 238.243 45.614 237.426 45.614 236.601C45.614 235.776 45.7766 234.96 46.0926 234.198C46.4087 233.435 46.8718 232.743 47.4557 232.16C48.0396 231.577 48.7326 231.115 49.4953 230.8C50.258 230.485 51.0753 230.324 51.9005 230.325H108.413C109.238 230.324 110.055 230.485 110.818 230.8C111.581 231.115 112.274 231.577 112.857 232.16C113.441 232.743 113.905 233.435 114.221 234.198C114.537 234.96 114.699 235.776 114.699 236.601C114.699 237.426 114.537 238.243 114.221 239.005C113.905 239.767 113.441 240.459 112.857 241.042C112.274 241.625 111.581 242.087 110.818 242.402C110.055 242.717 109.238 242.879 108.413 242.878Z" fill="#63DDFF"/>
<g id="Clipboard1">
<path id="Vector_11" d="M428.255 198.254H295.609C291.941 198.25 288.425 196.792 285.832 194.2C283.238 191.607 281.78 188.092 281.776 184.426V25.1554C281.78 21.4893 283.238 17.9745 285.832 15.3822C288.425 12.7898 291.941 11.3316 295.609 11.3275H428.255C431.923 11.3316 435.439 12.7898 438.032 15.3822C440.626 17.9745 442.084 21.4893 442.089 25.1554V184.426C442.084 188.092 440.626 191.607 438.032 194.2C435.439 196.792 431.923 198.25 428.255 198.254ZM295.609 13.0921C292.409 13.0957 289.342 14.3678 287.079 16.6293C284.817 18.8909 283.544 21.9571 283.541 25.1554V184.426C283.544 187.625 284.817 190.691 287.079 192.952C289.342 195.214 292.409 196.486 295.609 196.49H428.255C431.455 196.486 434.522 195.214 436.785 192.952C439.047 190.691 440.32 187.625 440.323 184.426V25.1554C440.32 21.9571 439.047 18.8909 436.785 16.6293C434.522 14.3678 431.455 13.0957 428.255 13.0921H295.609Z" fill="#3F3D56"/>
<path id="Vector_12" d="M392.939 24.42H330.925C328 24.4167 325.195 23.2537 323.127 21.1861C321.058 19.1185 319.895 16.3151 319.892 13.3911V11.0289C319.895 8.10488 321.058 5.30154 323.127 3.23393C325.195 1.16632 328 0.00328809 330.925 0H392.939C395.864 0.00328809 398.669 1.16632 400.737 3.23393C402.806 5.30154 403.969 8.10488 403.972 11.0289V13.3911C403.969 16.3151 402.806 19.1185 400.737 21.1861C398.669 23.2537 395.864 24.4167 392.939 24.42V24.42Z" fill="#CCCCCC"/>
</g>
<path id="Clip1Text2" d="M422.761 111.068H301.103C300.278 111.069 299.461 110.907 298.698 110.592C297.935 110.277 297.242 109.815 296.658 109.232C296.074 108.649 295.611 107.957 295.295 107.195C294.979 106.433 294.816 105.616 294.816 104.791C294.816 103.966 294.979 103.149 295.295 102.387C295.611 101.625 296.074 100.933 296.658 100.35C297.242 99.767 297.935 99.3048 298.698 98.9898C299.461 98.6749 300.278 98.5132 301.103 98.5142H422.761C423.586 98.5132 424.404 98.6749 425.166 98.9898C425.929 99.3048 426.622 99.767 427.206 100.35C427.79 100.933 428.253 101.625 428.569 102.387C428.885 103.149 429.048 103.966 429.048 104.791C429.048 105.616 428.885 106.433 428.569 107.195C428.253 107.957 427.79 108.649 427.206 109.232C426.622 109.815 425.929 110.277 425.166 110.592C424.404 110.907 423.586 111.069 422.761 111.068Z" fill="#63DDFF"/>
<path id="Clip1Text3" d="M422.761 137.743H301.103C300.279 137.743 299.462 137.581 298.7 137.266C297.938 136.95 297.246 136.488 296.663 135.905C296.08 135.322 295.617 134.63 295.302 133.869C294.986 133.107 294.824 132.291 294.824 131.467C294.824 130.642 294.986 129.826 295.302 129.065C295.617 128.303 296.08 127.611 296.663 127.028C297.246 126.446 297.938 125.983 298.7 125.668C299.462 125.352 300.279 125.19 301.103 125.19H422.761C423.586 125.19 424.402 125.352 425.164 125.668C425.926 125.983 426.618 126.446 427.201 127.028C427.784 127.611 428.247 128.303 428.562 129.065C428.878 129.826 429.04 130.642 429.04 131.467C429.04 132.291 428.878 133.107 428.562 133.869C428.247 134.63 427.784 135.322 427.201 135.905C426.618 136.488 425.926 136.95 425.164 137.266C424.402 137.581 423.586 137.743 422.761 137.743Z" fill="#63DDFF"/>
<path id="Clip1Text1" d="M390.188 84.3917H333.676C332.851 84.3927 332.033 84.231 331.271 83.916C330.508 83.601 329.815 83.1389 329.231 82.5559C328.647 81.973 328.184 81.2807 327.868 80.5187C327.552 79.7567 327.389 78.9399 327.389 78.115C327.389 77.2901 327.552 76.4733 327.868 75.7113C328.184 74.9493 328.647 74.257 329.231 73.6741C329.815 73.0911 330.508 72.629 331.271 72.314C332.033 71.999 332.851 71.8374 333.676 71.8383H390.188C391.853 71.8383 393.451 72.4996 394.628 73.6767C395.806 74.8538 396.467 76.4503 396.467 78.115C396.467 79.7797 395.806 81.3762 394.628 82.5533C393.451 83.7304 391.853 84.3917 390.188 84.3917Z" fill="#63DDFF"/>
<g id="AllClipboard3">
<g id="Clipboard3">
<path id="Vector_13" d="M698.878 466.606L582.406 530.057C579.183 531.808 575.398 532.209 571.88 531.174C568.361 530.138 565.398 527.749 563.639 524.532L487.394 384.682C485.642 381.46 485.241 377.676 486.277 374.16C487.313 370.643 489.702 367.681 492.921 365.923L609.394 302.472C612.616 300.721 616.401 300.32 619.92 301.355C623.438 302.391 626.401 304.78 628.16 307.997L704.405 447.847C706.157 451.069 706.559 454.853 705.522 458.369C704.486 461.886 702.097 464.848 698.878 466.606ZM493.765 367.472C490.958 369.006 488.873 371.59 487.969 374.658C487.065 377.726 487.416 381.027 488.944 383.837L565.189 523.688C566.724 526.495 569.309 528.578 572.378 529.482C575.447 530.385 578.75 530.035 581.561 528.508L698.034 465.057C700.841 463.523 702.926 460.939 703.83 457.871C704.734 454.803 704.383 451.502 702.855 448.692L626.61 308.841C625.076 306.035 622.49 303.951 619.421 303.047C616.352 302.144 613.049 302.494 610.238 304.021L493.765 367.472Z" fill="#3F3D56"/>
<path id="Vector_14" d="M584.651 330.861L530.198 360.525C527.628 361.921 524.609 362.242 521.803 361.416C518.997 360.59 516.633 358.685 515.23 356.119L514.1 354.044C512.703 351.475 512.382 348.457 513.209 345.652C514.035 342.847 515.941 340.485 518.508 339.083L572.961 309.418C575.531 308.022 578.55 307.702 581.356 308.528C584.162 309.354 586.526 311.259 587.928 313.825L589.059 315.899C590.456 318.468 590.777 321.486 589.95 324.291C589.124 327.096 587.218 329.459 584.651 330.861V330.861Z" fill="#CCCCCC"/>
</g>
<path id="Clip3Text2" d="M652.317 392.679L545.492 450.873C544.768 451.268 543.974 451.516 543.154 451.603C542.334 451.69 541.505 451.616 540.714 451.383C539.923 451.15 539.185 450.763 538.544 450.246C537.902 449.728 537.369 449.089 536.974 448.365C536.579 447.642 536.331 446.847 536.244 446.028C536.156 445.208 536.231 444.379 536.464 443.588C536.697 442.798 537.084 442.061 537.602 441.419C538.119 440.778 538.759 440.245 539.483 439.85L646.307 381.656C647.769 380.859 649.488 380.676 651.086 381.146C652.683 381.617 654.028 382.702 654.825 384.164C655.622 385.625 655.806 387.344 655.335 388.941C654.865 390.537 653.779 391.882 652.317 392.679V392.679Z" fill="#CCCCCC"/>
<path id="Clip3Text3" d="M665.087 416.102L558.262 474.296C557.538 474.691 556.744 474.939 555.924 475.026C555.104 475.114 554.275 475.039 553.484 474.806C552.693 474.573 551.955 474.187 551.314 473.669C550.672 473.151 550.139 472.512 549.744 471.789C549.35 471.065 549.101 470.27 549.014 469.451C548.927 468.631 549.001 467.802 549.234 467.012C549.467 466.221 549.854 465.484 550.372 464.843C550.89 464.201 551.529 463.668 552.253 463.274L659.077 405.079C659.801 404.685 660.596 404.437 661.416 404.349C662.236 404.262 663.065 404.337 663.856 404.57C664.647 404.802 665.384 405.189 666.026 405.707C666.668 406.224 667.201 406.863 667.595 407.587C667.99 408.311 668.238 409.105 668.326 409.925C668.413 410.744 668.338 411.573 668.105 412.364C667.872 413.155 667.486 413.892 666.968 414.533C666.45 415.174 665.811 415.707 665.087 416.102V416.102Z" fill="#CCCCCC"/>
<path id="Clip3Text1" d="M610.945 384.836L561.323 411.869C560.599 412.263 559.805 412.511 558.985 412.599C558.165 412.686 557.336 412.611 556.545 412.378C555.754 412.145 555.016 411.759 554.375 411.241C553.733 410.724 553.2 410.085 552.805 409.361C552.41 408.637 552.162 407.843 552.075 407.023C551.987 406.204 552.062 405.375 552.295 404.584C552.528 403.793 552.915 403.056 553.433 402.415C553.951 401.773 554.59 401.24 555.314 400.846L604.935 373.814C605.66 373.419 606.454 373.171 607.274 373.084C608.094 372.996 608.923 373.071 609.714 373.304C610.505 373.537 611.243 373.923 611.884 374.441C612.526 374.959 613.059 375.598 613.454 376.321C613.848 377.045 614.096 377.84 614.184 378.659C614.271 379.479 614.197 380.308 613.964 381.098C613.731 381.889 613.344 382.626 612.826 383.267C612.308 383.909 611.669 384.442 610.945 384.836V384.836Z" fill="#CCCCCC"/>
</g>
<g id="small-arrow">
<path id="Vector_15" d="M246.445 144.236L184.405 180.243L185.291 181.769L247.332 145.762L246.445 144.236Z" fill="#3F3D56"/>
<path id="Vector_16" d="M249.081 153.9L257.844 138.64L240.241 138.681L249.081 153.9Z" fill="#3F3D56"/>
</g>
<g id="large-arrow">
<path id="Vector_17" d="M430.059 381.108C429.919 381.108 429.781 381.075 429.657 381.011L191.208 258.57C191 258.463 190.843 258.278 190.772 258.055C190.701 257.832 190.721 257.591 190.828 257.383C190.934 257.175 191.119 257.018 191.342 256.946C191.564 256.874 191.806 256.894 192.014 257L430.463 379.441C430.64 379.531 430.78 379.678 430.863 379.858C430.945 380.038 430.964 380.241 430.918 380.433C430.871 380.626 430.761 380.797 430.605 380.919C430.45 381.042 430.257 381.108 430.059 381.108V381.108Z" fill="#3F3D56"/>
<path id="Vector_18" d="M423.747 386.876L441.329 386.012L431.791 371.223L423.747 386.876Z" fill="#3F3D56"/>
</g>
<g id="WomanBody">
<path id="rightarm" d="M676.092 482.345C674.851 481.728 673.761 480.846 672.897 479.762C672.034 478.677 671.419 477.417 671.096 476.07C670.773 474.722 670.749 473.32 671.026 471.963C671.304 470.605 671.875 469.325 672.701 468.212L665.611 398.915H680.934L686.569 466.58C688.347 468.091 689.509 470.201 689.835 472.511C690.16 474.821 689.627 477.171 688.336 479.114C687.044 481.057 685.085 482.459 682.828 483.055C680.572 483.65 678.175 483.398 676.092 482.345V482.345Z" fill="#A0616A"/>
<path id="Vector_19" d="M662.023 360.671C673.996 360.671 683.702 350.969 683.702 339.001C683.702 327.032 673.996 317.33 662.023 317.33C650.05 317.33 640.344 327.032 640.344 339.001C640.344 350.969 650.05 360.671 662.023 360.671Z" fill="#A0616A"/>
<path id="Vector_20" d="M657.09 439.179L624.735 432.116C623.884 431.929 623.119 431.468 622.555 430.804C621.992 430.14 621.662 429.31 621.615 428.441C621.242 421.224 620.973 402.554 626.535 385.125C627.609 381.783 629.342 378.691 631.633 376.031C633.924 373.371 636.725 371.197 639.871 369.638C643.017 368.079 646.443 367.167 649.948 366.955C653.453 366.743 656.965 367.236 660.276 368.405V368.405C663.77 369.632 666.964 371.583 669.65 374.132C672.337 376.68 674.453 379.767 675.862 383.19C677.271 386.614 677.939 390.296 677.824 393.996C677.709 397.696 676.812 401.33 675.193 404.659C668.018 419.387 663.5 430.052 661.763 436.36C661.493 437.339 660.858 438.177 659.988 438.701C659.119 439.225 658.082 439.396 657.09 439.179Z" fill="#63DDFF"/>
<path id="Vector_21" d="M626.61 645.052L615.788 645.051L610.641 603.329L626.611 603.329L626.61 645.052Z" fill="#A0616A"/>
<path id="Vector_22" d="M608.059 641.961H628.928V655.095H594.919C594.919 651.612 596.303 648.271 598.767 645.808C601.232 643.344 604.574 641.961 608.059 641.961V641.961Z" fill="#2F2E41"/>
<path id="Vector_23" d="M734.816 631.033L725.333 636.244L700.711 602.163L714.707 594.471L734.816 631.033Z" fill="#A0616A"/>
<path id="Vector_24" d="M717.07 637.258L735.358 627.208L741.688 638.718L711.886 655.096C710.207 652.044 709.81 648.449 710.782 645.104C711.754 641.759 714.016 638.936 717.07 637.258V637.258Z" fill="#2F2E41"/>
<path id="Vector_25" d="M626.807 621.882L610.148 620.6C609.215 620.531 608.338 620.134 607.67 619.48C607.002 618.826 606.587 617.957 606.499 617.027C604.125 592.273 593.708 466.833 621.881 428.212L621.96 428.104L622.085 428.058C622.338 427.966 647.462 419.01 661.877 435.422C662.33 435.944 662.638 436.574 662.772 437.252C662.906 437.929 662.861 438.629 662.641 439.284L662.092 440.933C661.935 441.401 661.892 441.899 661.969 442.386C662.045 442.873 662.237 443.335 662.529 443.733C666.53 449.139 679.994 469.959 685.286 510.901C685.319 511.162 685.386 511.418 685.485 511.661L724.555 607.602C724.755 608.091 724.854 608.616 724.848 609.145C724.842 609.674 724.73 610.196 724.519 610.681C724.308 611.166 724.002 611.604 723.619 611.97C723.237 612.335 722.785 612.62 722.29 612.808L709.997 617.491C709.101 617.827 708.115 617.83 707.217 617.501C706.32 617.171 705.57 616.531 705.104 615.696L648.704 513.409C648.479 513.001 648.132 512.676 647.711 512.478C647.29 512.28 646.817 512.22 646.36 512.307C645.903 512.393 645.485 512.622 645.166 512.96C644.847 513.299 644.643 513.729 644.583 514.19L631.05 618.434C630.926 619.39 630.458 620.268 629.734 620.905C629.01 621.541 628.079 621.893 627.115 621.894C627.013 621.894 626.91 621.89 626.807 621.882Z" fill="#2F2E41"/>
<path id="leftarm" d="M570.286 368.147C570.394 368.623 570.465 369.107 570.497 369.594L608.414 391.459L617.63 386.156L627.455 399.013L612.052 409.987C610.808 410.874 609.31 411.333 607.782 411.295C606.254 411.258 604.78 410.727 603.58 409.781L564.482 378.948C562.717 379.6 560.796 379.701 558.973 379.235C557.15 378.77 555.512 377.761 554.276 376.342C553.041 374.924 552.267 373.162 552.058 371.293C551.848 369.424 552.213 367.536 553.103 365.879C553.994 364.222 555.367 362.875 557.042 362.018C558.717 361.161 560.613 360.834 562.478 361.08C564.344 361.326 566.09 362.134 567.484 363.396C568.879 364.659 569.856 366.316 570.286 368.147V368.147Z" fill="#A0616A"/>
<path id="Vector_26" d="M616.392 385.3C616.506 384.741 616.74 384.213 617.077 383.753C617.413 383.292 617.846 382.91 618.344 382.631L635.744 372.906C638.056 371.122 640.98 370.328 643.877 370.697C646.774 371.066 649.406 372.568 651.197 374.874C652.987 377.18 653.79 380.101 653.429 382.998C653.069 385.894 651.573 388.53 649.272 390.326L635.399 404.727C635.003 405.138 634.523 405.458 633.992 405.667C633.461 405.876 632.891 405.968 632.321 405.937C631.751 405.906 631.194 405.752 630.689 405.486C630.184 405.221 629.742 404.85 629.393 404.398L617.139 388.522C616.79 388.07 616.542 387.548 616.414 386.992C616.285 386.436 616.277 385.859 616.392 385.3V385.3Z" fill="#63DDFF"/>
<path id="Vector_27" d="M661.431 415.284C660.988 414.925 660.626 414.475 660.372 413.964C660.118 413.453 659.978 412.893 659.96 412.323L659.336 392.405C658.816 389.533 659.458 386.572 661.119 384.171C662.781 381.77 665.327 380.126 668.199 379.599C671.071 379.072 674.035 379.705 676.441 381.359C678.848 383.013 680.499 385.553 681.035 388.423L687.435 407.364C687.617 407.904 687.681 408.478 687.622 409.045C687.563 409.613 687.382 410.161 687.092 410.652C686.802 411.144 686.409 411.567 685.941 411.893C685.472 412.219 684.939 412.44 684.377 412.541L664.636 416.105C664.074 416.206 663.497 416.186 662.944 416.044C662.391 415.902 661.875 415.643 661.431 415.284V415.284Z" fill="#63DDFF"/>
<path id="Vector_28" d="M658.592 334.016C653.02 337.828 645.704 341.747 640.013 337.687C636.276 335.022 635.099 330.086 636.614 325.754C639.339 317.965 646.826 314.535 653.985 311.907C663.292 308.489 673.426 305.771 683.034 308.218C692.642 310.665 701.134 319.964 699.399 329.723C698.005 337.57 690.599 344.1 691.65 352.001C692.708 359.952 701.654 364.138 709.552 365.559C717.45 366.98 726.288 367.437 731.963 373.107C739.204 380.341 737.396 393.271 730.583 400.908C723.77 408.546 713.489 412.008 703.526 414.362C690.326 417.48 676.05 419.119 663.513 413.944C650.977 408.768 641.221 394.838 644.853 381.775C646.387 376.257 650 371.594 653.493 367.054C656.985 362.514 660.521 357.766 661.854 352.197C662.964 347.555 662.142 342.166 659.063 338.684C658.503 338.075 658.15 337.303 658.056 336.481C657.962 335.659 658.13 334.828 658.538 334.108L658.592 334.016Z" fill="#2F2E41"/>
</g>
<path id="Vector_29" d="M817.615 656H481.323C481.089 656 480.864 655.907 480.699 655.742C480.533 655.576 480.44 655.352 480.44 655.118C480.44 654.884 480.533 654.659 480.699 654.494C480.864 654.328 481.089 654.235 481.323 654.235H817.615C817.849 654.235 818.074 654.328 818.239 654.494C818.405 654.659 818.498 654.884 818.498 655.118C818.498 655.352 818.405 655.576 818.239 655.742C818.074 655.907 817.849 656 817.615 656Z" fill="#3F3D56"/>
</g>
</svg>
