<svg width="783" height="492" viewBox="0 0 783 492" fill="none" xmlns="http://www.w3.org/2000/svg">
<g id="undraw_having_fun_iais 1" clip-path="url(#clip0)">
<path id="Vector" opacity="0.1" d="M778.096 338.916C770.239 357.819 753.802 374.894 736.157 391.064C720.646 405.282 704.055 419.02 686.383 432.281C681.485 435.961 676.51 439.596 671.456 443.185L667.945 445.663C664.832 447.867 661.666 450.05 658.447 452.212L658.061 452.475C654.938 454.6 651.788 456.705 648.611 458.79C638.216 465.622 627.228 472.406 615.081 478.024C610.942 479.943 606.672 481.73 602.251 483.332C599.86 484.201 597.418 485.016 594.925 485.775C590.842 487.017 586.648 488.101 582.268 488.991C581.537 489.143 580.799 489.288 580.061 489.426C575.577 490.268 571.038 490.882 566.451 491.303C549.642 492.842 532.28 491.717 515.442 489.081C507.027 487.762 498.743 486.065 490.728 484.132C489.741 483.897 488.762 483.656 487.776 483.442C460.481 476.609 434.856 467.334 407.368 460.812C397.895 458.562 388.238 456.652 378.398 455.083C373.597 454.32 368.768 453.629 363.912 453.013C352.483 451.591 340.908 450.639 329.286 450.156C313.614 449.465 297.432 449.762 282.519 452.502C280.532 452.866 278.571 453.275 276.635 453.731C274.179 454.306 271.77 454.961 269.406 455.698C263.034 457.758 256.833 460.312 250.858 463.338C249.678 463.917 248.513 464.504 247.347 465.098C243.691 466.961 240.084 468.866 236.421 470.715C229.829 474.168 222.969 477.08 215.907 479.425C212.039 480.648 208.106 481.652 204.126 482.434C193.593 484.546 182.384 485.381 171.127 485.436C165.698 485.436 160.263 485.319 154.889 485.036H154.724C152.889 484.94 151.047 484.829 149.206 484.691C140.818 484.118 132.458 483.235 124.222 482.027C96.0031 477.886 69.2398 470.06 47.7119 458.12C18.4722 441.915 -0.0965579 417.753 2.69014 393.611C4.69049 376.219 17.1134 360.069 28.9017 344.258C50.8297 314.816 71.3712 284.704 82.18 252.964C90.9471 227.2 93.5613 199.96 113.737 176.805C120.2 169.392 128.464 162.629 138.086 156.7C145.279 152.295 152.818 148.481 160.628 145.299C169.456 141.681 178.537 138.717 187.799 136.43C195.825 134.438 203.96 132.908 212.161 131.848C216.617 131.268 221.129 130.819 225.667 130.516C229.162 130.272 232.673 130.118 236.2 130.053H236.745C238.902 130.012 241.059 130.012 243.215 130.053C258.941 130.297 274.624 131.772 290.12 134.464C299.818 136.085 309.434 138.073 318.849 140.261C324.469 141.563 330.037 142.927 335.556 144.353C337.239 144.788 338.922 145.23 340.584 145.679C379.846 156.203 414.39 170.738 452.218 182.664C452.411 182.726 452.597 182.788 452.79 182.837C460.554 185.226 468.437 187.207 476.408 188.772C482.264 189.945 488.251 190.96 494.342 191.85C503.668 193.23 513.194 194.321 522.789 195.26L524.906 195.467C538.985 196.847 553.187 197.875 566.983 199.076C571.88 199.504 576.736 199.946 581.523 200.456C584.558 200.76 587.565 201.082 590.545 201.423C592.684 201.671 594.829 201.92 596.974 202.182C599.119 202.444 601.389 202.72 603.596 203.003C605.031 203.183 606.458 203.369 607.893 203.569C616.584 204.722 625.255 206.012 633.829 207.489C639.044 208.386 644.231 209.353 649.356 210.395C653.067 211.149 656.745 211.945 660.392 212.783C663.096 213.395 665.777 214.039 668.435 214.715C690.032 220.147 710.242 227.269 727.659 236.883C772.888 261.791 793.126 302.765 778.096 338.916Z" fill="#63FFFF"/>
<path id="Vector_2" opacity="0.1" d="M171.748 62.3903C179.988 62.3903 186.667 55.7067 186.667 47.4622C186.667 39.2176 179.988 32.5341 171.748 32.5341C163.507 32.5341 156.828 39.2176 156.828 47.4622C156.828 55.7067 163.507 62.3903 171.748 62.3903Z" fill="#63FFFF"/>
<path id="Vector_3" opacity="0.1" d="M476.705 29.8562C484.945 29.8562 491.625 23.1727 491.625 14.9281C491.625 6.68355 484.945 0 476.705 0C468.465 0 461.785 6.68355 461.785 14.9281C461.785 23.1727 468.465 29.8562 476.705 29.8562Z" fill="#63FFFF"/>
<path id="Vector_4" opacity="0.1" d="M657.53 63.2875C665.77 63.2875 672.45 56.604 672.45 48.3594C672.45 40.1148 665.77 33.4313 657.53 33.4313C649.29 33.4313 642.61 40.1148 642.61 48.3594C642.61 56.604 649.29 63.2875 657.53 63.2875Z" fill="#63FFFF"/>
<path id="Vector_5" opacity="0.1" d="M25.0044 108.596C38.814 108.596 50.0088 97.3954 50.0088 83.5782C50.0088 69.761 38.814 58.5599 25.0044 58.5599C11.1949 58.5599 0 69.761 0 83.5782C0 97.3954 11.1949 108.596 25.0044 108.596Z" fill="#63FFFF"/>
<path id="Vector_6" opacity="0.1" d="M48.9741 232.135C62.7837 232.135 73.9785 220.934 73.9785 207.117C73.9785 193.299 62.7837 182.098 48.9741 182.098C35.1646 182.098 23.9697 193.299 23.9697 207.117C23.9697 220.934 35.1646 232.135 48.9741 232.135Z" fill="#63FFFF"/>
<path id="Vector_7" opacity="0.1" d="M720.072 186.66C733.881 186.66 745.076 175.459 745.076 161.642C745.076 147.825 733.881 136.624 720.072 136.624C706.262 136.624 695.067 147.825 695.067 161.642C695.067 175.459 706.262 186.66 720.072 186.66Z" fill="#63FFFF"/>
<path id="Vector_8" d="M244.422 165.189C244.546 167.29 244.424 169.398 244.057 171.47C242.677 177.881 236.842 182.285 231.192 185.625C225.543 188.965 219.335 192.126 215.976 197.765C211.927 204.577 213.217 213.735 217.969 220.098C222.722 226.462 230.254 230.251 238.007 231.831C252.148 234.75 267.633 230.651 278.235 220.851C288.837 211.05 294.155 195.736 291.555 181.512C285.802 182.319 280.677 177.24 278.815 171.732C276.952 166.225 277.338 160.255 276.614 154.478C276.561 153.501 276.268 152.553 275.759 151.717C274.952 150.599 273.524 150.144 272.193 149.778C265.543 147.949 254.355 143.946 247.464 145.478C241.256 146.9 244.319 159.972 244.422 165.189Z" fill="#BE6F72"/>
<path id="Vector_9" opacity="0.1" d="M244.422 165.189C244.546 167.29 244.424 169.398 244.057 171.47C242.677 177.881 236.842 182.285 231.192 185.625C225.543 188.965 219.335 192.126 215.976 197.765C211.927 204.577 213.217 213.735 217.969 220.098C222.722 226.462 230.254 230.251 238.007 231.831C252.148 234.75 267.633 230.651 278.235 220.851C288.837 211.05 294.155 195.736 291.555 181.512C285.802 182.319 280.677 177.24 278.815 171.732C276.952 166.225 277.338 160.255 276.614 154.478C276.561 153.501 276.268 152.553 275.759 151.717C274.952 150.599 273.524 150.144 272.193 149.778C265.543 147.949 254.355 143.946 247.464 145.478C241.256 146.9 244.319 159.972 244.422 165.189Z" fill="black"/>
<path id="Vector_10" d="M236.386 470.729C229.794 474.181 222.934 477.094 215.873 479.439C212.005 480.661 208.071 481.666 204.091 482.448C203.809 477.141 204.099 471.82 204.953 466.575C205.491 463.559 206.285 460.57 206.492 457.513C206.784 453.1 205.841 448.692 203.767 444.786C211.451 443.737 218.749 442.026 226.467 442.529L226.957 442.564C227.875 442.587 228.783 442.757 229.647 443.068C230.835 443.643 231.844 444.53 232.565 445.635C232.963 446.177 233.329 446.742 233.662 447.326C235.842 451.094 236.669 455.442 236.842 459.921C236.923 463.53 236.771 467.14 236.386 470.729Z" fill="#BE6F72"/>
<path id="Vector_11" d="M276.607 453.738C274.152 454.313 271.742 454.968 269.378 455.705C263.006 457.765 256.805 460.319 250.83 463.345C250.442 461.465 250.253 459.55 250.265 457.63C253.785 455.201 257.758 453.505 261.947 452.643C266.136 451.781 270.455 451.771 274.648 452.613C275.209 452.681 275.742 452.895 276.193 453.234C276.357 453.379 276.497 453.549 276.607 453.738Z" fill="#BE6F72"/>
<path id="Vector_12" d="M288.465 418.898C287.996 423.412 287.306 427.94 285.705 432.184C283.974 436.739 281.16 441.156 281.519 446.022C281.677 448.134 282.395 450.425 282.498 452.516C280.511 452.88 278.55 453.289 276.614 453.745C274.159 454.32 271.749 454.975 269.385 455.711C263.013 457.771 256.812 460.326 250.837 463.352C249.658 463.931 248.492 464.518 247.326 465.111C246.843 465.049 246.368 464.973 245.885 464.884C242.436 464.256 238.808 462.71 236.855 459.949C236.409 459.314 236.058 458.616 235.814 457.879C234.69 454.518 235.862 450.328 233.524 447.664L233.414 447.761L233.331 447.816C232.05 448.977 230.643 449.991 229.137 450.839C225.708 452.78 221.91 453.979 217.989 454.357C214.067 454.735 210.11 454.284 206.374 453.034C204.894 452.529 203.465 451.887 202.105 451.115C198.945 449.314 195.897 446.284 196.145 442.668C196.283 440.652 197.435 438.72 197.124 436.725C196.897 435.297 195.959 434.11 195.255 432.847C190.64 424.565 196.145 413.916 193.248 404.916C193.179 404.702 193.103 404.488 193.027 404.281C192.813 403.694 192.572 403.128 192.337 402.562C191.744 401.244 191.082 399.947 190.558 398.594C190.121 397.457 189.775 396.287 189.523 395.095C188.872 391.634 188.64 388.107 188.833 384.591C188.833 375.322 190.489 365.832 192.848 356.902C193.269 355.314 193.738 353.071 194.358 350.628C194.963 348.053 195.78 345.532 196.8 343.091C198.18 339.917 200.056 337.384 202.622 336.783C206.485 335.879 212.389 337.791 216.307 338.26L231.793 340.11L262.757 343.816C268.102 344.458 273.717 345.196 278.125 348.206C278.415 348.406 278.697 348.613 278.98 348.834C280.145 349.751 281.188 350.813 282.084 351.995C282.401 352.402 282.705 352.83 282.995 353.264C283.999 354.803 284.854 356.435 285.547 358.137C289.389 367.371 289.479 377.675 289.506 387.676C289.506 398.111 289.541 408.539 288.465 418.898Z" fill="#3F3D56"/>
<path id="Vector_13" opacity="0.1" d="M229.102 450.88C228.171 447.292 226.205 442.095 225.916 440.68C224.944 435.933 224.239 431.136 223.805 426.311C223.039 417.711 221.66 405.606 224.695 397.428C227.544 398.946 230.047 403.246 231.365 406.179C236.138 416.814 230.765 429.872 235.248 440.632C235.584 441.276 235.792 441.979 235.862 442.702C235.784 443.62 235.455 444.499 234.91 445.242L233.4 447.754L229.102 450.88Z" fill="black"/>
<path id="Vector_14" d="M194.062 394.612C194.022 396.994 193.821 399.372 193.462 401.727C193.338 402.597 193.193 403.46 193.02 404.322C190.668 416.607 184.812 428.292 180.715 440.259C175.314 456.057 172.941 469.763 171.058 485.45C165.629 485.45 160.194 485.333 154.82 485.05H154.655C152.82 484.954 150.978 484.843 149.137 484.705C150.799 470.074 147.757 454.725 150.73 440.079C151.93 434.185 153.979 428.464 155.214 422.598C155.594 420.871 155.882 419.124 156.076 417.366C156.248 415.696 156.338 413.964 157.09 412.459C157.158 412.314 157.237 412.173 157.324 412.038C157.985 410.997 158.804 410.066 159.752 409.278C168.157 401.903 178.437 397 189.454 395.109C191.02 394.895 192.544 394.715 194.062 394.612Z" fill="#FBBEBE"/>
<path id="Vector_15" opacity="0.1" d="M194.062 394.612C194.022 396.994 193.821 399.372 193.462 401.727C193.338 402.597 193.193 403.46 193.02 404.322C190.668 416.607 184.812 428.292 180.715 440.259C175.314 456.057 172.941 469.763 171.058 485.45C165.629 485.45 160.194 485.333 154.82 485.05H154.655C152.82 484.954 150.978 484.843 149.137 484.705C150.799 470.074 147.757 454.725 150.73 440.079C151.93 434.185 153.979 428.464 155.214 422.598C155.594 420.871 155.882 419.124 156.076 417.366C156.248 415.696 156.338 413.964 157.09 412.459C157.158 412.314 157.237 412.173 157.324 412.038C157.985 410.997 158.804 410.066 159.752 409.278C168.157 401.903 178.437 397 189.454 395.109C191.02 394.895 192.544 394.715 194.062 394.612Z" fill="black"/>
<path id="Vector_16" d="M159.09 426.062C158.979 429.898 158.663 433.724 158.145 437.526C156.303 453.061 155.958 469.273 154.696 485.043C152.861 484.947 151.02 484.836 149.178 484.698C140.79 484.125 132.43 483.242 124.194 482.034C124.829 478.482 125.468 474.93 126.112 471.378C126.898 467.023 127.685 462.627 127.457 458.21C127.243 454.034 126.126 449.969 125.236 445.877C123.339 437.112 122.277 427.657 119.152 419.388C117.522 414.751 114.921 410.516 111.523 406.966C124.449 401.886 136.872 401.596 150.758 402.134C151.743 402.08 152.723 402.32 153.572 402.825C154.23 403.395 154.719 404.135 154.986 404.964C157.072 409.986 158.382 415.297 158.869 420.714C159.035 422.491 159.109 424.277 159.09 426.062Z" fill="#FBBEBE"/>
<path id="Vector_17" d="M263.212 161.628C278.069 161.628 290.113 149.577 290.113 134.712C290.113 119.847 278.069 107.796 263.212 107.796C248.355 107.796 236.311 119.847 236.311 134.712C236.311 149.577 248.355 161.628 263.212 161.628Z" fill="#BE6F72"/>
<path id="Vector_18" d="M268.806 197.62C272.255 191.733 275.276 184.383 281.912 182.747C285.657 181.815 289.554 183.085 293.203 184.334C294.261 184.585 295.22 185.142 295.962 185.935C296.502 186.791 296.791 187.781 296.797 188.793C297.952 200.96 297.913 213.211 296.68 225.371C295.804 233.977 294.328 242.542 294.066 251.19C293.7 263.178 295.673 275.166 295.024 287.14C294.535 296.216 292.548 305.133 290.575 314.001L282.298 351.132C282.15 352.281 281.689 353.367 280.967 354.272C280.269 354.912 279.433 355.385 278.525 355.652C266.544 359.89 253.808 361.567 241.139 360.574C228.47 359.581 216.15 355.942 204.974 349.889C201.987 348.247 199.007 346.349 197.062 343.547C194.303 339.572 194.048 334.313 194.945 329.551C195.841 324.788 197.78 320.295 199.083 315.623C201.098 308.376 201.573 300.812 202.029 293.303C202.636 283.42 203.243 273.475 202.187 263.627C201.463 256.842 199.952 250.162 198.814 243.433C197.138 233.291 196.165 223.045 195.903 212.769C195.731 206.633 196.014 199.821 200.256 195.398C202.325 193.244 205.084 191.947 207.892 190.898C212.603 189.159 217.866 188.137 222.625 189.724C227.385 191.312 231.22 196.309 230.096 201.202C229.578 203.472 228.109 205.46 227.75 207.765C227.275 210.816 228.889 213.887 231.199 215.95C243.629 227.186 262.605 208.276 268.806 197.62Z" fill="#E3E8F4"/>
<g id="ManLeftArm">
<path id="Vector_19" d="M328.444 122.544C333.521 114.263 340.474 106.119 340.039 96.4358C339.881 92.985 338.749 89.6101 337.887 86.2283C335.416 76.4409 335.253 66.2127 337.411 56.3514C345.941 54.9803 354.671 56.9368 361.802 61.8174C364.057 63.3772 366.195 65.3165 367.189 67.877C368.106 70.2374 367.954 72.8669 367.789 75.3929C367.409 81.1971 366.892 87.3878 363.319 91.9567C362.209 93.3853 360.843 94.5931 359.76 96.0355C358.18 98.106 357.256 100.632 356.352 103.096L344.626 135.016C338.708 151.103 332.293 167.929 319.256 179.062C318.939 179.331 309.599 166.059 308.827 164.727C305.702 159.268 307.068 156.963 310.848 152.394C318.304 143.36 322.353 132.462 328.444 122.544Z" fill="#BE6F72"/>
<path id="Vector_20" d="M269.792 170.117C273.567 168.726 277.669 168.486 281.581 169.427C284.071 170.02 286.761 171.07 289.058 169.958C289.892 169.558 290.582 168.902 291.424 168.53C293.7 167.529 296.652 168.757 298.666 167.301C299.936 166.383 300.349 164.713 300.777 163.195C302.848 155.947 307.093 149.51 312.938 144.754C312.214 150.047 311.689 156.072 315.187 160.117C316.78 161.953 319.015 163.105 321.277 164.002C324.526 165.293 328.092 166.149 331.52 165.445C334.949 164.741 338.156 162.146 338.701 158.688C338.584 163.885 333.638 167.515 332.252 172.533C331.727 174.41 331.776 176.404 331.41 178.323C330.479 183.223 326.982 187.157 323.926 191.105C314.166 203.802 307.932 218.854 305.854 234.737C305.712 236.621 305.318 238.478 304.681 240.258C304.005 241.623 303.24 242.941 302.391 244.206C297.335 252.75 298.894 263.53 300.612 273.289C303.295 288.576 305.971 303.552 310.317 318.453C311.062 320.999 311.903 323.657 313.8 325.513C313.2 331.538 307.123 334.285 301.66 336.887C296.266 339.461 291.29 342.832 286.899 346.887C285.326 348.337 283.774 349.965 283.202 352.029C282.664 353.968 283.05 356.101 282.36 357.985C281.67 359.869 278.911 361.222 277.697 359.635C276.18 353.955 278.773 348.012 278.656 342.132C278.573 338.164 277.276 334.306 277.09 330.337C276.911 325.844 278.235 321.434 279.642 317.169C283.56 305.291 288.292 293.524 289.651 281.095C291.01 268.665 288.471 255.089 279.656 246.221C269.192 235.648 263.384 221.313 252.169 211.603C250.389 210.063 248.375 208.152 248.671 205.819C248.876 204.792 249.328 203.83 249.989 203.017C253.838 197.579 258.956 193.141 263.095 187.937C267.233 182.733 270.544 176.743 269.792 170.117Z" fill="#3F3D56"/>
</g>
<path id="Vector_21" d="M232.965 181.249C232.275 181.94 231.799 182.892 230.999 183.486C230.065 184.063 228.999 184.393 227.902 184.445C223.843 185.062 219.749 185.428 215.645 185.542C212.196 185.542 208.616 185.238 205.298 186.184C200.67 187.495 196.973 191.153 194.655 195.363C192.337 199.573 191.241 204.335 190.351 209.077C188.389 219.523 187.339 230.12 187.212 240.748C192.898 236.211 197.965 230.949 202.284 225.095C205.595 220.602 208.595 215.633 213.32 212.631C215.493 211.251 217.935 210.34 220.122 208.994C224.681 206.185 227.84 201.644 230.875 197.261C233.11 194.01 239.573 187.661 240.084 183.768C240.518 180.048 235.379 178.233 232.965 181.249Z" fill="#3F3D56"/>
<path id="Vector_22" d="M256.997 116.285C257.849 116.797 258.665 117.366 259.439 117.989C264.122 121.261 270.392 120.653 276.055 119.908C277.794 119.687 279.58 119.439 281.07 118.528C283.464 117.051 284.588 114.014 284.353 111.205C284.119 108.396 282.705 105.808 280.98 103.613C278.696 100.709 275.846 98.299 272.603 96.529C269.36 94.759 265.792 93.6661 262.115 93.3163C260.211 93.0666 258.275 93.2723 256.466 93.9167C254.238 94.8346 252.562 96.7257 250.506 97.9887C244.443 101.716 235.103 100.059 231.192 106.008C228.33 110.398 230.372 116.361 229.02 121.406C228.013 125.174 225.109 128.604 225.667 132.448C225.978 134.519 227.274 136.327 228.309 138.177C230.685 142.429 231.785 147.277 231.475 152.138C234.131 154.016 237.835 151.096 238.573 147.935C239.311 144.774 238.463 141.406 239.09 138.218C240.201 132.621 245.14 128.514 247.368 123.38C248.968 119.701 251.575 113.49 256.997 116.285Z" fill="#3F3D56"/>
<path id="Vector_23" d="M191.772 177.55C191.565 178.806 191.434 180.193 192.13 181.256C193.51 183.327 196.669 182.581 199.152 182.892C203.022 183.368 205.878 187.033 206.63 190.884C207.381 194.735 206.485 198.655 205.505 202.437C203.289 211.009 200.649 219.459 197.587 227.787C189.351 226.814 180.68 223.646 176.307 216.613C172.334 210.215 172.741 202.065 170.216 194.97C168.443 189.973 165.264 185.625 162.118 181.36C167.174 181.995 170.789 176.211 171.085 171.118C171.382 166.024 169.782 160.855 170.871 155.879C171.127 154.699 191.054 158.419 192.993 159.765C198.594 163.65 192.655 172.153 191.772 177.55Z" fill="#FBBEBE"/>
<path id="Vector_24" opacity="0.1" d="M191.772 177.55C191.565 178.806 191.434 180.193 192.13 181.256C193.51 183.327 196.669 182.581 199.152 182.892C203.022 183.368 205.878 187.033 206.63 190.884C207.381 194.735 206.485 198.655 205.505 202.437C203.289 211.009 200.649 219.459 197.587 227.787C189.351 226.814 180.68 223.646 176.307 216.613C172.334 210.215 172.741 202.065 170.216 194.97C168.443 189.973 165.264 185.625 162.118 181.36C167.174 181.995 170.789 176.211 171.085 171.118C171.382 166.024 169.782 160.855 170.871 155.879C171.127 154.699 191.054 158.419 192.993 159.765C198.594 163.65 192.655 172.153 191.772 177.55Z" fill="black"/>
<path id="Vector_25" d="M187.336 169.22C202.194 169.22 214.238 157.169 214.238 142.304C214.238 127.438 202.194 115.388 187.336 115.388C172.479 115.388 160.435 127.438 160.435 142.304C160.435 157.169 172.479 169.22 187.336 169.22Z" fill="#FBBEBE"/>
<path id="Vector_26" d="M179.052 173.685C180.032 172.153 178.362 170.014 179.128 168.364C179.583 167.37 180.735 166.942 181.625 166.294C182.741 165.385 183.631 164.23 184.226 162.919C188.414 154.866 189.681 145.61 187.812 136.727C187.178 133.746 186.612 129.784 189.337 128.445C190.092 128.108 190.92 127.966 191.744 128.031C196.655 128.19 201.401 131.482 206.167 130.316C207.794 129.873 209.247 128.944 210.332 127.653C211.417 126.361 212.081 124.769 212.237 123.09C212.548 118.631 209.209 114.808 205.926 111.806C200.015 106.367 191.006 105.159 182.977 105.028L168.043 104.78C163.263 104.697 157.904 104.849 154.579 108.279C149.792 113.214 152.199 121.288 151.509 128.128C150.923 133.587 148.194 138.589 143.922 142.035C140.825 144.505 136.562 146.866 136.617 150.813C136.617 152.194 137.21 153.45 137.59 154.754C139.114 159.917 137.659 165.624 134.734 170.145C131.809 174.665 127.533 178.144 123.098 181.187C120.725 182.809 118.269 184.369 116.393 186.57C114.336 189.113 113.115 192.23 112.896 195.494C112.601 197.988 113.113 200.512 114.358 202.693C117.276 207.358 124.277 208.041 129.071 205.336C133.865 202.63 136.79 197.509 138.728 192.361C139.887 189.303 141.066 185.804 144.032 184.431C147.785 182.685 152.172 185.445 154.613 188.793C157.055 192.14 158.559 196.226 161.684 198.945C166.581 203.21 174.914 202.52 179.052 197.509C182.011 193.914 182.667 188.938 182.501 184.279C182.419 180.485 181.219 176.8 179.052 173.685Z" fill="#3F3D56"/>
<path id="Vector_27" d="M188.709 208.766C185.64 209.422 182.432 207.972 180.149 205.805C177.866 203.638 176.328 200.843 174.727 198.137C170.67 191.313 166.019 184.861 160.828 178.854C156.303 173.63 150.006 168.323 143.287 169.938C141.038 170.587 138.951 171.704 137.162 173.216C131.238 177.909 126.602 184.029 123.686 191.003C120.77 197.977 119.671 205.578 120.49 213.093C121.014 217.49 122.208 221.789 122.704 226.206C123.039 229.847 123.136 233.506 122.994 237.159C122.808 248.284 122.429 260.052 116.434 269.424C107.143 283.917 102.17 301.226 95.3479 317.045C91.6644 325.596 89.4572 334.699 87.2913 343.754C86.0083 349.128 84.7276 354.5 83.4492 359.869L75.1029 394.998C74.2407 398.622 73.3785 402.417 74.289 406.041C75.6685 411.452 80.7522 415.234 86.1117 416.773C91.4713 418.312 97.1482 418.05 102.715 418.098C113.365 418.201 124.098 419.526 134.093 423.226C136.948 424.282 139.797 425.545 142.839 425.793C145.881 426.042 148.909 425.248 151.758 424.144C159.532 421.135 166.195 415.862 173.355 411.603C177.827 408.907 182.537 406.627 187.426 404.792C189.882 403.874 192.517 403.004 194.207 400.996C195.483 399.484 196.055 397.51 196.476 395.578C198.807 384.701 197.242 373.431 196.476 362.333C195.71 351.235 189.082 339.509 194.565 329.833C195.669 327.88 196.986 326.003 197.552 323.836C198.297 321.006 197.669 317.963 198.297 315.106C198.759 312.994 199.87 311.096 200.628 309.074C201.953 305.512 202.132 301.634 202.118 297.831C202.087 289.482 201.209 281.157 199.497 272.985C197.324 262.633 204.512 252.398 208.63 242.618C210.106 239.119 212.196 235.813 212.81 232.066C213.362 228.684 212.651 225.24 212.12 221.851C211.327 216.599 211.004 211.287 211.154 205.978C211.286 201.216 211.789 196.364 210.651 191.733C209.513 187.102 206.264 182.609 201.594 181.657C201.071 181.503 200.519 181.467 199.98 181.552C199.441 181.637 198.928 181.84 198.476 182.147C197.937 182.675 197.557 183.345 197.38 184.079C195.862 188.731 196.159 193.741 195.31 198.572C194.462 203.403 193.469 207.744 188.709 208.766Z" fill="#F86D70"/>
<path id="Vector_28" d="M123.615 238.408C123.898 236.497 123.008 233.957 121.076 234.026C119.297 234.095 118.504 236.324 118.511 238.112C118.517 239.899 118.759 241.949 117.497 243.205C116.379 244.316 114.531 244.282 113.234 245.186C112.776 245.512 112.404 245.944 112.148 246.445C111.892 246.946 111.761 247.501 111.765 248.064C111.765 249.023 112.199 249.941 112.227 250.9C112.254 251.859 111.613 252.971 110.661 252.909C110.172 253.729 109.968 254.689 110.082 255.638C110.195 256.587 110.62 257.471 111.289 258.154C111.785 258.637 112.434 259.051 112.599 259.727C112.652 260.202 112.614 260.682 112.489 261.142C112.199 263.04 113.51 265.166 115.42 265.373C114.351 266.139 114.565 267.933 115.544 268.824C116.524 269.714 117.931 269.886 119.249 269.886C122.239 269.87 125.196 269.258 127.947 268.085C128.889 267.774 129.722 267.199 130.347 266.429C130.637 266.031 130.776 265.544 130.74 265.053C130.703 264.562 130.493 264.101 130.147 263.751C131.485 263.972 133.092 264.096 133.968 263.061C135.189 261.611 133.879 259.465 132.589 258.064C133.124 257.984 133.624 257.749 134.026 257.388C134.429 257.026 134.716 256.555 134.853 256.031C134.99 255.508 134.969 254.955 134.795 254.443C134.621 253.931 134.3 253.481 133.872 253.15C133.43 252.826 132.83 252.543 132.768 251.998C132.706 251.452 133.168 251.1 133.361 250.617C133.803 249.534 132.796 248.429 131.823 247.774C129.519 246.242 126.126 246.269 124.077 244.723C122.028 243.177 123.318 240.479 123.615 238.408Z" fill="#BE6F72"/>
<g id="Bottle4">
<path id="Vector_29" d="M265.916 133.684C264.245 133.852 262.564 133.891 260.887 133.801C260.602 133.77 260.315 133.852 260.089 134.03C259.863 134.208 259.717 134.468 259.68 134.753L256.473 158.826C256.226 160.574 255.511 162.222 254.403 163.595C253.49 164.688 252.812 165.957 252.409 167.324C252.007 168.69 251.89 170.125 252.065 171.539V212.431C252.065 212.431 251.858 217.883 256.045 217.883C261.056 218.513 266.126 218.513 271.137 217.883C271.137 217.883 274.49 217.248 274.49 212.217V171.953C274.745 170.548 274.693 169.105 274.336 167.722C273.978 166.34 273.325 165.052 272.42 163.947C271.35 162.569 270.658 160.934 270.413 159.206L267.082 134.629C267.044 134.353 266.902 134.101 266.686 133.926C266.469 133.75 266.194 133.664 265.916 133.684Z" fill="#3F3D56"/>
<path id="Vector_30" opacity="0.1" d="M265.916 133.684C264.245 133.852 262.564 133.891 260.887 133.801C260.602 133.77 260.315 133.852 260.089 134.03C259.863 134.208 259.717 134.468 259.68 134.753L256.473 158.826C256.226 160.574 255.511 162.222 254.403 163.595C253.49 164.688 252.812 165.957 252.409 167.324C252.007 168.69 251.89 170.125 252.065 171.539V212.431C252.065 212.431 251.858 217.883 256.045 217.883C261.056 218.513 266.126 218.513 271.137 217.883C271.137 217.883 274.49 217.248 274.49 212.217V171.953C274.745 170.548 274.693 169.105 274.336 167.722C273.978 166.34 273.325 165.052 272.42 163.947C271.35 162.569 270.658 160.934 270.413 159.206L267.082 134.629C267.044 134.353 266.902 134.101 266.686 133.926C266.469 133.75 266.194 133.664 265.916 133.684Z" fill="black"/>
<path id="Vector_31" d="M265.937 172.27H260.853C256.643 172.27 253.231 175.685 253.231 179.897V199.035C253.231 203.247 256.643 206.661 260.853 206.661H265.937C270.146 206.661 273.559 203.247 273.559 199.035V179.897C273.559 175.685 270.146 172.27 265.937 172.27Z" fill="#63FFFF"/>
</g>
<g id="Bottle1">
<path id="Vector_32" d="M334.252 29.663C332.778 30.4737 331.242 31.166 329.658 31.7335C329.384 31.8154 329.152 32.0009 329.011 32.2507C328.871 32.5006 328.833 32.7952 328.906 33.0724L335.211 56.5378C335.662 58.2409 335.643 60.0345 335.156 61.7277C334.731 63.088 334.591 64.5214 334.745 65.9382C334.899 67.355 335.344 68.7246 336.052 69.9613L351.793 107.699C351.793 107.699 353.697 112.806 357.566 111.191C362.438 109.839 367.119 107.878 371.5 105.353C371.5 105.353 374.349 103.475 372.417 98.8376L356.918 61.6794C356.613 60.2843 356.009 58.9719 355.148 57.8329C354.287 56.6938 353.19 55.7551 351.931 55.0815C350.414 54.2227 349.147 52.9834 348.254 51.4858L335.721 30.0909C335.579 29.8434 335.347 29.6606 335.073 29.5808C334.799 29.501 334.505 29.5305 334.252 29.663Z" fill="#3F3D56"/>
<path id="Vector_33" d="M349.135 65.2728L344.443 67.2316C340.558 68.8536 338.723 73.3195 340.344 77.2065L347.71 94.8686C349.331 98.7556 353.795 100.592 357.68 98.9698L362.371 97.011C366.256 95.389 368.091 90.923 366.47 87.036L359.104 69.374C357.483 65.4869 353.02 63.6508 349.135 65.2728Z" fill="#63FFFF"/>
</g>
<path id="WomanRightArm" d="M140.68 174.396C133.265 177.453 130.333 186.964 132.072 194.79C133.81 202.617 139.045 209.139 144.15 215.343L158.456 232.804C162.408 237.635 166.733 242.722 172.761 244.406C181.577 246.87 190.392 241.252 198.014 236.172C220.766 221.003 245.085 208.332 270.551 198.379C273.041 197.413 275.593 196.433 277.642 194.707C281.891 191.132 283.084 184.541 280.718 179.524C278.353 174.506 272.841 171.242 267.288 171.201C261.736 171.159 256.335 174.099 252.996 178.544C251.403 180.663 250.237 183.085 248.699 185.238C244.809 190.649 238.739 193.997 232.8 197.019C218.48 204.33 203.739 210.782 188.654 216.344C185.895 217.352 182.784 218.311 180.183 216.979C178.59 216.158 177.514 214.605 176.548 213.086C172.148 206.156 168.648 198.693 166.133 190.877C164.25 185.011 162.725 178.62 158.2 174.451C151.785 168.544 140.17 169.958 135.362 177.212C135.362 177.212 129.726 185.459 133.175 188.91C136.624 192.361 140.68 174.396 140.68 174.396Z" fill="#FBBEBE"/>
<path id="Vector_34" d="M527.534 145.837C528.541 148.522 528.569 151.462 528.424 154.326C528.245 157.818 527.369 161.918 524.127 163.25C522.016 164.099 519.409 163.457 517.533 164.741C515.256 166.287 515.367 169.613 515.718 172.333C516.691 179.807 517.788 187.557 521.857 193.879C524.044 197.268 527.003 200.091 530.004 202.789C535.984 208.186 542.544 213.459 550.4 215.26C551.68 215.621 553.027 215.678 554.332 215.426C555.619 215.028 556.788 214.317 557.733 213.356C562.285 209.173 564.63 203.203 567.666 197.792C569.811 193.921 572.37 190.201 573.577 185.936C574.571 182.209 574.505 178.278 573.386 174.587C572.267 170.896 570.14 167.591 567.245 165.044C565.9 163.892 564.41 162.926 563.106 161.732C559.699 158.64 557.712 154.202 556.898 149.675C556.084 145.147 556.208 140.489 556.601 135.871C549.704 135.34 542.854 136.175 536.122 137.521C533.128 138.121 528.914 138.397 526.203 139.826C523.154 141.448 526.7 143.525 527.534 145.837Z" fill="#FBBEBE"/>
<path id="Vector_35" opacity="0.1" d="M527.534 145.837C528.541 148.522 528.569 151.462 528.424 154.326C528.245 157.818 527.369 161.918 524.127 163.25C522.016 164.099 519.409 163.457 517.533 164.741C515.256 166.287 515.367 169.613 515.718 172.333C516.691 179.807 517.788 187.557 521.857 193.879C524.044 197.268 527.003 200.091 530.004 202.789C535.984 208.186 542.544 213.459 550.4 215.26C551.68 215.621 553.027 215.678 554.332 215.426C555.619 215.028 556.788 214.317 557.733 213.356C562.285 209.173 564.63 203.203 567.666 197.792C569.811 193.921 572.37 190.201 573.577 185.936C574.571 182.209 574.505 178.278 573.386 174.587C572.267 170.896 570.14 167.591 567.245 165.044C565.9 163.892 564.41 162.926 563.106 161.732C559.699 158.64 557.712 154.202 556.898 149.675C556.084 145.147 556.208 140.489 556.601 135.871C549.704 135.34 542.854 136.175 536.122 137.521C533.128 138.121 528.914 138.397 526.203 139.826C523.154 141.448 526.7 143.525 527.534 145.837Z" fill="black"/>
<path id="ManRightArm" d="M490.557 164.388C479.245 160.884 473.441 146.034 461.67 144.704C459.814 144.491 457.921 144.652 456.095 144.279C449.297 142.882 446.158 135.161 444.006 128.563C436.759 106.569 427.513 85.1116 414.716 65.8054C409.316 57.6827 400.968 51.1265 396.979 42.1741C396.061 40.1303 395.556 37.7842 393.969 36.1956C392.382 34.6071 389.086 34.4718 388.315 36.5803C388.104 37.3253 388.076 38.1099 388.232 38.8682L389.298 47.4325L375.236 46.5932C373.932 46.411 372.604 46.5458 371.363 46.9862C370.03 47.7045 368.985 48.8601 368.404 50.2586C363.93 59.3214 369.336 70.8549 377.877 76.2452C387.852 82.5383 401.844 83.1173 408.635 92.7516C412.673 98.485 412.976 106.009 415.717 112.465C417.025 115.553 418.883 118.37 420.388 121.355C423.258 127.048 424.826 133.284 427.097 139.236C430.349 147.749 435.024 155.631 439.684 163.465C443.275 169.516 446.953 175.674 452.335 180.221C455.875 183.207 459.999 185.375 464.119 187.461C474.253 192.61 486.167 197.498 496.603 192.999C496.926 183.557 494.244 173.122 490.557 164.388Z" fill="#FBBEBE"/>
<path id="Vector_36" d="M523.058 463.248C522.209 472.255 516.746 480.412 515.47 489.081C507.055 487.762 498.771 486.065 490.755 484.132C489.769 483.898 488.79 483.656 487.803 483.442C492.342 471.019 488.39 457.106 489.59 443.875C489.707 442.605 489.873 441.335 490.093 440.079C500.488 436.532 509.876 431.797 520.775 433.178C520.988 435.386 521.209 437.602 521.423 439.81C521.86 444.223 522.292 448.63 522.72 453.034C523.157 456.42 523.27 459.84 523.058 463.248Z" fill="#FBBEBE"/>
<path id="Vector_37" d="M594.946 485.775C590.863 487.017 586.669 488.101 582.289 488.991C581.558 489.143 580.82 489.288 580.082 489.426C575.598 490.268 571.059 490.882 566.472 491.303C566.003 481.71 559.574 472.89 558.636 463.041C558.444 460.594 558.47 458.134 558.712 455.691C558.795 454.725 558.892 453.758 558.981 452.792L560.926 432.936C562.475 432.741 564.036 432.665 565.596 432.709C574.563 432.923 582.723 436.808 591.608 439.838C592.27 444.027 592.501 448.273 592.297 452.509C591.959 463.289 590.228 474.201 594.229 484.091C594.456 484.65 594.705 485.209 594.946 485.775Z" fill="#FBBEBE"/>
<path id="Vector_38" d="M478.512 334.395C479.719 343.809 474.911 352.823 472.828 362.078C471.449 368.199 471.262 374.501 471.076 380.781L469.986 418.402C469.876 422.163 469.779 425.993 470.924 429.603C473.228 436.836 480.326 441.722 487.713 443.461C495.101 445.2 502.826 444.317 510.352 443.323C514.042 442.833 517.891 442.26 520.947 440.128C525.148 437.195 526.982 431.97 528.569 427.098L533.046 413.343C538.198 424.951 536.018 437.643 539.109 449.962C539.307 451.102 539.781 452.175 540.488 453.089C541.792 454.538 543.937 454.766 545.889 454.904C559.409 455.856 573.115 456.802 586.414 454.214C590.069 453.524 593.884 452.406 596.408 449.659C599.347 446.463 599.857 441.763 599.823 437.422C599.637 422.508 594.249 408.118 593.049 393.252C592.532 386.882 592.787 380.477 592.559 374.086C592.38 369.28 591.931 364.487 591.214 359.731C590.987 357.553 590.389 355.429 589.449 353.451C587.379 349.586 583.082 347.488 579.012 345.859C547.393 333.008 512.614 333.133 478.512 334.395Z" fill="#F86D70"/>
<path id="Vector_39" d="M537.053 149.205C553.434 149.205 566.714 135.919 566.714 119.528C566.714 103.138 553.434 89.8517 537.053 89.8517C520.672 89.8517 507.393 103.138 507.393 119.528C507.393 135.919 520.672 149.205 537.053 149.205Z" fill="#FBBEBE"/>
<path id="Vector_40" d="M562.906 171.801C560.706 176.632 557.243 181.463 552.09 182.692C547.352 183.831 542.33 181.546 538.84 178.144C535.349 174.741 533.066 170.324 530.645 166.093C528.879 163.002 526.913 159.882 523.927 157.936C519.843 155.286 514.573 155.355 509.759 156.135C504.944 156.914 500.164 158.309 495.273 157.991C489.183 157.584 482.975 154.54 477.229 156.569C479.091 164.906 478.422 174.072 478.208 182.616C478.245 183.935 478.058 185.251 477.657 186.508C477.155 187.681 476.478 188.77 475.649 189.738L470.131 196.854C476.049 201.285 481.168 207.068 483.237 214.17C484.403 218.214 484.044 222.507 484.002 226.717C483.871 239.078 486.555 251.39 485.706 263.723C484.713 278.168 478.946 291.82 475.974 305.989C473.427 318.152 472.947 330.658 474.553 342.981C505.468 353.685 537.322 359.165 570.004 360.96C575.777 361.277 582.013 361.325 586.752 358.006C590.69 355.245 592.897 350.518 593.649 345.755C594.401 340.993 593.884 336.148 593.36 331.359C591.939 318.407 590.52 305.455 589.104 292.503C588.297 285.132 587.49 277.72 588.014 270.328C588.407 264.807 589.538 259.389 590.663 253.985L597.56 220.816C598.547 216.102 599.54 211.354 601.492 206.958C603.092 203.369 605.307 200.056 607.072 196.564C609.177 192.377 610.629 187.892 611.377 183.265C611.676 181.922 611.657 180.527 611.321 179.193C610.583 176.929 608.328 175.569 606.224 174.458C593.395 167.712 579.646 162.887 565.417 160.137C564.451 164.202 564.637 168.012 562.906 171.801Z" fill="#E3E8F4"/>
<path id="Vector_41" d="M560.044 151.925C563.492 145.313 569.942 140.675 573.687 134.215C575.757 130.553 576.915 126.445 577.061 122.24C577.208 118.035 576.339 113.857 574.529 110.06C573.211 107.368 571.425 104.897 570.39 102.081C569.238 98.879 569.128 95.3522 567.797 92.2189C565.969 87.9261 562.009 84.8342 557.698 83.0536C553.387 81.273 548.731 80.6312 544.089 80.01L528.417 77.8981C526.148 77.5945 523.796 77.2908 521.588 77.8981C519.381 78.5055 517.326 80.3068 517.146 82.5981C516.932 85.3104 519.312 87.8364 518.76 90.5004C518.56 91.439 518.009 92.3915 518.326 93.3025C518.608 93.911 519.097 94.4 519.705 94.6828C523.423 96.7533 527.865 96.9396 531.894 98.2923C535.922 99.645 539.964 103.041 539.557 107.264C539.336 109.535 537.874 111.895 538.867 113.931C539.819 115.815 542.316 116.161 544.31 116.747C550.759 118.617 555.284 125.616 554.346 132.276C554.056 134.346 553.311 136.327 553.16 138.404C552.656 145.679 553.801 147.756 559.74 151.987L560.044 151.925Z" fill="#3F3D56"/>
<path id="Vector_42" d="M600.333 183.382C600.365 184.76 600.114 186.129 599.595 187.406C597.443 191.995 590.856 191.705 586.49 194.307C581.054 197.551 579.854 204.791 579.357 211.099C578.792 218.242 578.405 225.488 579.868 232.494C581.33 239.499 584.848 246.331 590.725 250.438C597.878 255.414 607.604 255.586 615.771 252.556C623.938 249.527 630.759 243.667 636.678 237.263C642.293 231.189 647.321 224.419 650.335 216.71C650.866 215.329 651.336 213.866 650.908 212.486C650.266 210.415 648.011 209.477 646.176 208.345C641.892 205.757 639.037 201.243 637.554 196.474C636.071 191.705 635.822 186.633 635.774 181.629C635.719 176.432 635.705 170.752 632.394 166.742C629.083 162.732 623.344 161.607 618.116 161.649C613.839 161.649 602.003 162.056 599.085 165.79C596.691 168.896 600.506 178.937 600.333 183.382Z" fill="#BE6F72"/>
<path id="Vector_43" opacity="0.1" d="M600.333 183.382C600.365 184.76 600.114 186.129 599.595 187.406C597.443 191.995 590.856 191.705 586.49 194.307C581.054 197.551 579.854 204.791 579.357 211.099C578.792 218.242 578.405 225.488 579.868 232.494C581.33 239.499 584.848 246.331 590.725 250.438C597.878 255.414 607.604 255.586 615.771 252.556C623.938 249.527 630.759 243.667 636.678 237.263C642.293 231.189 647.321 224.419 650.335 216.71C650.866 215.329 651.336 213.866 650.908 212.486C650.266 210.415 648.011 209.477 646.176 208.345C641.892 205.757 639.037 201.243 637.554 196.474C636.071 191.705 635.822 186.633 635.774 181.629C635.719 176.432 635.705 170.752 632.394 166.742C629.083 162.732 623.344 161.607 618.116 161.649C613.839 161.649 602.003 162.056 599.085 165.79C596.691 168.896 600.506 178.937 600.333 183.382Z" fill="black"/>
<path id="Vector_44" d="M563.554 368.469C563.768 369.52 564.264 370.494 564.989 371.284C565.67 371.823 566.465 372.198 567.314 372.382C589.952 379.028 614.136 376.378 637.574 373.665C634.367 363.893 631.139 354.01 630.249 343.761C629.511 335.307 630.339 326.507 627.345 318.577C626.462 316.231 575.005 327.032 569.928 327.908C567.327 328.357 564.334 328.205 562.492 330.268C560.271 332.767 560.085 338.716 559.85 341.828C559.188 350.821 561.044 359.876 563.554 368.469Z" fill="#BE6F72"/>
<path id="Vector_45" d="M615.101 478.024C610.963 479.943 606.693 481.73 602.272 483.332C599.88 484.201 597.439 485.016 594.946 485.775C590.863 487.017 586.669 488.101 582.289 488.991C579.792 482.655 577.293 476.317 574.791 469.977C572.949 465.312 571.108 460.625 569.569 455.856C568.499 452.6 567.62 449.284 566.934 445.925C564.676 434.509 565.264 422.711 568.645 411.576C578.205 413.377 587.552 414.55 596.967 415.917C601.996 416.607 607.038 417.422 612.142 418.381C612.542 421.707 612.906 425.034 613.232 428.361C613.729 433.495 614.136 438.63 614.453 443.765C615.157 455.175 615.373 466.595 615.101 478.024Z" fill="#BE6F72"/>
<path id="Vector_46" opacity="0.1" d="M615.101 478.024C610.963 479.943 606.693 481.73 602.272 483.332C599.88 484.201 597.439 485.016 594.946 485.775C590.863 487.017 586.669 488.101 582.289 488.991C579.792 482.655 577.293 476.317 574.791 469.977C572.949 465.312 571.108 460.625 569.569 455.856C568.499 452.6 567.62 449.284 566.934 445.925C564.676 434.509 565.264 422.711 568.645 411.576C578.205 413.377 587.552 414.55 596.967 415.917C601.996 416.607 607.038 417.422 612.142 418.381C612.542 421.707 612.906 425.034 613.232 428.361C613.729 433.495 614.136 438.63 614.453 443.765C615.157 455.175 615.373 466.595 615.101 478.024Z" fill="black"/>
<path id="Vector_47" d="M668.145 448.12C668.2 452.095 667.069 456.153 666.021 460.053C665.945 460.329 665.876 460.598 665.807 460.874C663.312 460.097 661.161 458.483 659.716 456.305C658.97 455.124 658.418 453.831 658.081 452.475C654.959 454.6 651.809 456.705 648.632 458.79C638.237 465.622 627.248 472.406 615.101 478.024C610.963 479.943 606.693 481.73 602.272 483.332C601.352 480.111 600.478 476.869 599.65 473.607C598.746 470.249 598.037 466.841 597.526 463.4C596.515 455.585 597.299 447.643 599.816 440.176L600.126 439.279C601.298 435.958 602.813 432.769 604.644 429.762C606.362 427.001 609.763 427.463 613.232 428.381C614.805 428.788 616.398 429.278 617.847 429.582C626.862 431.473 636.222 429.52 645.438 430.038C649.83 430.257 654.133 431.353 658.095 433.261C662.53 435.49 666.104 438.899 667.504 443.613C667.703 444.292 667.855 444.984 667.959 445.684C668.075 446.491 668.137 447.304 668.145 448.12Z" fill="#BE6F72"/>
<path id="WomanRightArmUp" d="M502.199 130.267C487.955 116.464 471.766 104.766 455.204 93.827C450.895 91.1228 446.749 88.1661 442.788 84.9723C438.65 81.5215 435.042 77.4703 430.648 74.3646C426.254 71.2589 420.819 69.1263 415.542 70.1477C410.265 71.1691 405.575 76.2211 406.347 81.5077C407.037 86.1594 411.217 89.3479 415.08 92.0188C422.392 97.0777 429.738 102.15 437.691 106.119C440.454 107.372 443.133 108.801 445.713 110.398C450.666 113.738 454.273 118.68 458.019 123.324C472.156 140.894 489.472 155.644 509.062 166.804C509.297 166.942 517.457 149.323 517.112 147.038C516.353 141.786 505.951 133.911 502.199 130.267Z" fill="#BE6F72"/>
<path id="Vector_48" d="M624.027 353.299C613.032 353.989 602.485 357.702 591.732 360.069C580.978 362.437 569.293 363.355 559.312 358.689L565.382 400.161C565.72 402.466 566.072 404.826 565.568 407.097C565.106 409.264 563.906 411.307 564.01 413.522C564.168 417.028 567.459 419.492 570.556 421.114C579.553 425.867 589.633 428.191 599.802 427.857C599.05 430.893 598.112 433.896 597.353 436.932C602.423 442.378 610.714 442.743 617.95 444.469C623.468 445.773 628.642 448.037 634.05 449.631C640.589 451.562 647.38 452.509 654.198 452.44C658.799 452.392 663.675 451.75 667.248 448.879C671.642 445.338 673.008 439.32 673.96 433.758C674.491 430.652 674.981 427.505 674.65 424.371C674.291 420.769 672.898 417.359 671.518 414.019L662.068 391.071C660.351 386.93 658.619 382.727 656.55 378.731C649.79 365.805 638.574 352.395 624.027 353.299Z" fill="#3F3D56"/>
<path id="Vector_49" d="M632.442 210.008C633.259 207.861 634.767 206.047 636.727 204.851C638.688 203.655 640.99 203.146 643.272 203.403C646.031 203.79 648.494 205.301 650.859 206.778L664.034 215.005C666.217 216.305 668.312 217.748 670.304 219.325C679.389 226.862 682.893 239.25 683.893 251.017C684.893 262.785 683.893 274.752 686.231 286.326C680.672 290.936 674.505 294.836 668.945 299.439C666.035 301.848 663.089 304.27 660.882 307.369C659.13 309.805 657.881 312.593 656.053 314.961C653.061 318.702 648.718 321.116 643.962 321.683C646.976 323.436 648.666 326.838 649.48 330.227C650.294 333.616 650.515 337.128 651.418 340.517C652.66 345.121 655.233 349.324 656.081 354.017C656.674 357.254 656.412 360.573 656.626 363.858C657.702 380.857 671.035 395.716 670.173 412.722C663.88 410.433 657.926 407.301 652.474 403.411C650.018 401.651 647.645 399.747 645.321 397.849L627.752 383.597C619.206 376.695 610.576 369.642 603.782 360.973C599.519 355.535 596.043 349.517 591.766 344.092C587.49 338.668 582.227 333.74 575.695 331.462C574.736 332.905 573.032 333.905 572.073 335.348C571.904 335.575 571.769 335.826 571.673 336.093C571.557 336.737 571.636 337.4 571.901 337.998C572.671 340.789 573.134 343.657 573.28 346.549L573.715 351.739C573.877 353.115 573.877 354.505 573.715 355.88C573.06 360.318 568.948 363.762 564.513 364.452C563.872 364.591 563.206 364.569 562.575 364.39C561.34 363.976 560.657 362.671 560.285 361.429C558.54 355.535 561.216 349.317 561.43 343.181C561.46 341.624 561.407 340.067 561.271 338.516L560.857 332.394C556.85 331.559 554.546 327.252 553.484 323.298C550.614 312.621 547.724 301.572 549.386 290.639C549.828 287.713 550.6 284.745 550.076 281.819C549.386 277.906 546.572 274.731 545.089 271.046C540.261 259.03 550.518 245.986 549.566 233.087C549.166 227.669 545.731 222.963 543.661 217.938C542.59 215.01 541.202 212.207 539.523 209.58C537.412 206.564 534.563 204.149 531.797 201.719C523.255 194.22 515.152 186.233 507.531 177.799C503.617 177.392 499.944 175.709 497.081 173.009C495.26 171.283 493.763 169.006 493.715 166.501C493.666 163.995 495.515 161.366 498.019 161.235C499.481 161.159 500.847 161.883 502.275 162.201C506.744 163.181 511.242 159.889 513.235 155.755C515.229 151.621 515.229 146.866 515.194 142.283C517.379 141.895 519.626 142.077 521.72 142.81C523.814 143.544 525.683 144.805 527.148 146.472C530.231 149.826 532.239 154.009 534.667 157.86C535.655 159.571 536.923 161.104 538.419 162.394C541.737 165.031 546.517 165.528 549.414 168.606C550.883 170.179 551.697 172.263 553.042 173.947C556.822 178.689 563.741 179.269 568.907 182.388C574.074 185.508 577.667 191.208 583.392 193.058C585.462 193.748 587.717 193.838 589.766 194.604C594.498 196.364 597.388 201.395 598.043 206.399C598.699 211.402 597.581 216.461 596.45 221.389L593.794 232.921C593.208 235.475 592.76 238.546 594.643 240.368C595.532 241.105 596.577 241.631 597.698 241.907C602.527 243.481 607.907 245.027 612.446 242.798C614.591 241.735 616.274 239.94 617.812 238.105C624.544 230.168 629.021 219.774 632.442 210.008Z" fill="#63FFFF"/>
<g id="WomanLeftArmBlue">
<path id="Vector_50" d="M686.886 444.697C685.935 451.012 682.458 457.223 676.767 460.115C673.355 461.798 669.418 462.071 665.807 460.874C663.312 460.097 661.161 458.483 659.716 456.305C658.97 455.124 658.418 453.831 658.081 452.475C658.081 452.406 658.047 452.33 658.033 452.261C657.515 449.819 657.299 447.322 657.392 444.828C657.39 440.955 657.62 437.085 658.081 433.24C658.466 430.002 659.103 426.799 659.985 423.661C661.268 419.181 663.117 414.868 664.814 410.548C665.697 408.27 666.545 405.986 667.242 403.646C667.662 402.266 668.021 400.844 668.311 399.408L668.414 398.891C668.469 398.601 668.518 398.311 668.566 398.021C669.256 394.087 669.456 390.015 671.229 386.461C675.367 378.117 683.424 380.25 684.652 387.945C684.744 388.541 684.797 389.143 684.81 389.746C684.996 399.484 681.134 409.002 682.9 418.774C683.398 421.157 684.024 423.512 684.776 425.828C685.397 427.96 685.955 430.12 686.383 432.308C687.249 436.38 687.419 440.568 686.886 444.697Z" fill="#BE6F72"/>
<path id="Vector_51" d="M690.68 336.411C690.867 340.4 690.68 344.437 691.48 348.35C693.35 357.599 700.448 365.784 699.661 375.184C699.468 377.475 698.62 379.939 696.619 381.071C694.619 382.203 691.308 382.113 690.653 384.391C690.466 385.025 690.563 385.716 690.356 386.344C689.922 387.683 688.287 388.255 686.907 388.221C685.528 388.186 684.148 387.731 682.72 387.848C677.719 388.269 675.885 394.964 671.429 397.262C668.428 398.808 664.531 397.952 662.055 395.668C659.578 393.383 658.495 389.822 658.688 386.447C658.833 383.901 659.64 381.444 660.068 378.931C660.847 374.452 660.44 369.863 660.033 365.335C659.433 358.703 658.813 351.988 656.633 345.7C655.605 342.733 654.239 339.896 653.35 336.887C652.08 332.629 651.791 328.15 651.66 323.712C651.391 314.374 652.032 304.387 657.606 296.878C661.792 291.247 667.793 286.671 672.532 281.46C675.498 278.196 676.354 277.174 679.63 279.942C682.327 282.213 685.148 285.346 685.452 288.424C686.28 296.313 685.452 304.07 686.928 312.103C688.404 320.137 690.294 328.163 690.68 336.411Z" fill="#63FFFF"/>
</g>
<path id="Vector_52" d="M619.137 184.403C638.565 184.403 654.315 168.645 654.315 149.205C654.315 129.766 638.565 114.007 619.137 114.007C599.708 114.007 583.958 129.766 583.958 149.205C583.958 168.645 599.708 184.403 619.137 184.403Z" fill="#BE6F72"/>
<path id="Vector_53" d="M651.349 216.537C652.122 215.454 653.039 214.287 654.35 214.059C655.339 213.985 656.33 214.193 657.205 214.66L666.469 218.532C668.972 214.395 670.448 209.719 670.773 204.894C670.966 201.933 670.732 198.931 671.297 196.019C672.139 191.698 674.698 187.827 675.291 183.465C675.76 179.945 674.912 176.404 674.401 172.892C672.829 162.042 674.519 150.972 673.615 140.047C672.711 129.122 668.331 117.417 658.592 112.399C655.833 111.019 652.86 110.191 649.99 109.1C643.596 106.664 637.864 102.765 631.546 100.128C625.227 97.4917 617.805 96.284 611.68 99.3138C605.555 102.344 601.989 110.867 605.969 116.43C607.279 118.259 609.197 119.556 611.032 120.874C614.763 123.545 618.571 126.844 619.433 131.358C620.978 139.481 612.535 145.851 610.156 153.795C609.277 156.897 609.199 160.171 609.928 163.312C610.956 168.019 613.467 172.464 613.377 177.281C613.308 182.561 610.149 187.343 609.556 192.596C609.342 194.521 609.473 196.474 609.231 198.393C608.806 200.924 608.057 203.39 607.003 205.729C601.485 219.532 595.891 233.48 587.69 245.89C596.47 246.039 605.151 244.009 612.956 239.982C611.835 245.302 609.686 250.351 606.631 254.848C613.649 254.035 620.4 251.678 626.4 247.946C624.944 253.162 622.835 258.174 620.123 262.861C620.357 262.46 624.696 261.48 625.496 261.025C627.141 260.089 628.464 258.676 629.29 256.973C631.635 252.777 633.098 247.718 635.27 243.357C639.916 234.007 645.292 225.04 651.349 216.537Z" fill="#3F3D56"/>
<g id="Bottle2">
<path id="Vector_54" d="M384.557 5.3142C382.887 5.48261 381.206 5.52183 379.529 5.43153C379.243 5.40028 378.956 5.48259 378.731 5.66072C378.505 5.83885 378.358 6.09856 378.322 6.38394L375.114 30.4567C374.868 32.2041 374.153 33.8521 373.045 35.2257C372.132 36.3187 371.453 37.5879 371.051 38.9544C370.649 40.321 370.532 41.7556 370.707 43.1694V84.0613C370.707 84.0613 370.5 89.5135 374.687 89.5135C379.698 90.1435 384.768 90.1435 389.779 89.5135C389.779 89.5135 393.131 88.8786 393.131 83.8473V43.5835C393.387 42.1787 393.334 40.7351 392.977 39.3527C392.62 37.9703 391.966 36.6822 391.062 35.5776C389.992 34.1991 389.3 32.5647 389.055 30.8363L385.723 6.25972C385.685 5.9834 385.544 5.73188 385.327 5.55625C385.111 5.38062 384.835 5.29408 384.557 5.3142Z" fill="#3F3D56"/>
<path id="Vector_55" d="M384.578 43.901H379.494C375.285 43.901 371.872 47.3154 371.872 51.5272V70.6653C371.872 74.8772 375.285 78.2916 379.494 78.2916H384.578C388.788 78.2916 392.2 74.8772 392.2 70.6653V51.5272C392.2 47.3154 388.788 43.901 384.578 43.901Z" fill="#63FFFF"/>
</g>
<g id="Bottle3">
<path id="Vector_56" d="M432.152 40.5123C430.481 40.6807 428.8 40.7199 427.124 40.6296C426.838 40.5983 426.551 40.6806 426.325 40.8588C426.1 41.0369 425.953 41.2966 425.916 41.582L422.709 65.6547C422.462 67.4022 421.747 69.0502 420.64 70.4237C419.727 71.5168 419.048 72.786 418.646 74.1525C418.243 75.519 418.126 76.9537 418.301 78.3674V119.259C418.301 119.259 418.094 124.712 422.281 124.712C427.292 125.342 432.363 125.342 437.374 124.712C437.374 124.712 440.726 124.077 440.726 119.045V78.7815C440.982 77.3768 440.929 75.9332 440.572 74.5508C440.214 73.1684 439.561 71.8803 438.657 70.7757C437.586 69.3971 436.894 67.7627 436.649 66.0343L433.318 41.4578C433.28 41.1815 433.138 40.9299 432.922 40.7543C432.705 40.5787 432.43 40.4921 432.152 40.5123Z" fill="#3F3D56"/>
<path id="Vector_57" d="M432.173 79.0991H427.089C422.879 79.0991 419.467 82.5134 419.467 86.7253V105.863C419.467 110.075 422.879 113.49 427.089 113.49H432.173C436.382 113.49 439.795 110.075 439.795 105.863V86.7253C439.795 82.5134 436.382 79.0991 432.173 79.0991Z" fill="#63FFFF"/>
</g>
<g id="Group" opacity="0.2">
<path id="Vector_58" opacity="0.2" d="M378.653 452.903C378.631 453.647 378.545 454.388 378.398 455.118C373.597 454.354 368.768 453.664 363.912 453.048C363.912 452.854 363.912 452.654 363.912 452.454C363.957 450.385 364.553 448.364 365.637 446.601C367.058 444.352 369.217 442.944 371.596 443.02C373.976 443.095 376.039 444.635 377.315 446.96C378.28 448.787 378.742 450.838 378.653 452.903Z" fill="#3F3D56"/>
<path id="Vector_59" opacity="0.2" d="M379.04 441.117C379.208 435.78 376.042 431.349 371.968 431.22C367.894 431.091 364.455 435.313 364.286 440.651C364.117 445.988 367.284 450.419 371.358 450.548C375.432 450.677 378.871 446.455 379.04 441.117Z" fill="#3F3D56"/>
<path id="Vector_60" opacity="0.2" d="M379.416 429.301C379.585 423.964 376.419 419.533 372.345 419.404C368.27 419.275 364.831 423.497 364.662 428.835C364.494 434.172 367.66 438.604 371.734 438.732C375.808 438.861 379.248 434.639 379.416 429.301Z" fill="#3F3D56"/>
<path id="Vector_61" opacity="0.2" d="M379.786 417.486C379.954 412.148 376.788 407.717 372.714 407.588C368.64 407.459 365.2 411.682 365.032 417.019C364.863 422.357 368.029 426.788 372.104 426.917C376.178 427.045 379.617 422.823 379.786 417.486Z" fill="#3F3D56"/>
<path id="Vector_62" opacity="0.2" d="M380.162 405.67C380.331 400.332 377.164 395.901 373.09 395.772C369.016 395.643 365.577 399.866 365.408 405.203C365.24 410.541 368.406 414.972 372.48 415.101C376.554 415.23 379.993 411.007 380.162 405.67Z" fill="#3F3D56"/>
<path id="Vector_63" opacity="0.2" d="M347.682 323.677C346.711 322.361 345.835 320.978 345.061 319.536L364.554 316.962L343.571 316.458C341.698 312.014 340.752 307.235 340.788 302.412C340.825 297.59 341.845 292.825 343.785 288.41L371.458 303.904L346.109 284C348.666 279.862 352.049 276.296 356.046 273.524C360.042 270.752 364.567 268.835 369.338 267.892C374.108 266.949 379.022 267 383.771 268.042C388.521 269.084 393.005 271.095 396.944 273.949C400.882 276.803 404.19 280.439 406.66 284.629C409.131 288.82 410.712 293.475 411.304 298.304C411.895 303.134 411.486 308.033 410.1 312.697C408.715 317.36 406.383 321.688 403.25 325.41C404.761 327.457 406.045 329.662 407.079 331.987L381.495 344.272L408.624 336.107C410.332 341.747 410.607 347.725 409.425 353.499C408.242 359.272 405.638 364.66 401.85 369.173C405.789 374.519 408.144 380.867 408.647 387.491C409.149 394.114 407.779 400.745 404.692 406.626C401.606 412.506 396.927 417.399 391.192 420.745C385.457 424.09 378.897 425.753 372.262 425.544C365.627 425.335 359.184 423.261 353.671 419.561C348.158 415.861 343.797 410.683 341.087 404.619C338.377 398.555 337.426 391.851 338.345 385.273C339.264 378.695 342.014 372.508 346.282 367.42C341.576 361.03 339.154 353.243 339.404 345.31C339.654 337.376 342.562 329.758 347.661 323.677H347.682Z" fill="#63FFFF"/>
<path id="Vector_64" opacity="0.1" d="M410.127 347.543C409.886 355.481 406.969 363.103 401.85 369.173C405.789 374.519 408.144 380.867 408.647 387.491C409.149 394.114 407.779 400.745 404.692 406.626C401.606 412.506 396.928 417.399 391.192 420.745C385.457 424.09 378.897 425.753 372.262 425.544C365.627 425.335 359.184 423.261 353.671 419.561C348.158 415.861 343.797 410.682 341.087 404.619C338.377 398.555 337.426 391.851 338.345 385.273C339.264 378.694 342.014 372.508 346.282 367.42C341.75 361.256 410.252 343.575 410.127 347.543Z" fill="black"/>
</g>
</g>
<defs>
<clipPath id="clip0">
<rect width="783" height="492" fill="white"/>
</clipPath>
</defs>
</svg>
