<svg width="789" height="654" viewBox="0 0 789 654" fill="none" xmlns="http://www.w3.org/2000/svg">
<g id="CalendarGirl">
<path id="Vector" opacity="0.1" d="M736.035 360.825C705.807 409.751 711.471 476.403 724.748 528.958C729.189 546.554 734.308 565.13 730.51 584.822C725.864 608.902 708.928 627.811 691.789 638.64C660.542 658.333 624.861 657.786 598.878 637.197C576.441 619.413 561.665 588.394 538.756 571.563C500.451 543.391 447.85 560.466 402.177 586.796C369.879 605.379 334.328 629.026 304.475 615.637C283.472 606.235 270.375 579.709 264.262 550.843C261.312 536.908 259.527 521.684 252.763 511.067C248.737 504.756 243.203 500.532 237.465 497.066C185.101 465.477 114.253 491.888 63.7553 456.116C29.6474 431.963 10.2585 382.075 3.88519 328.73C-2.48814 275.385 2.75233 218.305 9.31311 162.106C13.9831 122.15 20.2994 79.4059 41.2612 46.9113C63.4375 12.5411 98.393 -2.82962 128.776 0.432075C159.16 3.69377 185.541 22.9541 208.28 46.4954C236.699 75.9159 262.331 113.491 299.112 122.982C324.165 129.449 351.525 121.963 378.167 117.731C422.65 110.653 466.514 112.683 510.068 115.342C551.763 117.886 593.711 121.05 632.563 135.727C660.053 146.124 681.153 167.765 706.809 181.84C723.533 191.013 742.401 192.179 757.983 204.41C777.177 219.48 793.787 247.294 786.101 282.455C778.774 315.903 752.075 334.862 736.035 360.825Z" fill="#63DDFF"/>
<path id="Vector_2" d="M542.562 250.237C542.562 250.237 624.877 181.228 643.182 146.434C661.487 111.64 684.788 81.6566 684.788 81.6566" stroke="#535461" stroke-width="2" stroke-miterlimit="10"/>
<path id="Vector_3" d="M673.965 159.44L638.357 151.408C638.357 151.408 646.76 188.983 673.965 159.44Z" fill="#63DDFF"/>
<path id="Vector_4" d="M619.555 121.082L640.044 151.783C640.044 151.783 599.987 154.678 619.555 121.082Z" fill="#63DDFF"/>
<path id="Vector_5" d="M687.975 130.582L655.432 124.874C655.432 124.874 675.872 155.983 687.975 130.582Z" fill="#63DDFF"/>
<path id="Vector_6" d="M639.816 103.143L655.847 124.148C655.847 124.148 627.469 126.839 639.816 103.143Z" fill="#63DDFF"/>
<path id="Vector_7" d="M672.261 98.9599C672.261 98.9599 699.972 100.281 703.232 102.931C706.492 105.581 699.099 121.115 688.561 118.579C678.023 116.043 672.261 98.9599 672.261 98.9599Z" fill="#63DDFF"/>
<path id="Vector_8" d="M661.185 74.1791C661.185 74.1791 672.506 94.8175 672.082 98.7479C671.658 102.678 654.828 107.09 651.43 92.2245C648.031 77.3593 661.185 74.1791 661.185 74.1791Z" fill="#63DDFF"/>
<path id="Vector_9" d="M696.389 89.9417C697.671 85.8816 695.42 81.5509 691.362 80.2688C687.304 78.9866 682.975 81.2386 681.694 85.2987C680.412 89.3588 682.663 93.6895 686.721 94.9717C690.779 96.2538 695.108 94.0018 696.389 89.9417Z" fill="#FFD037"/>
<path id="Vector_10" d="M684.327 82.008C685.608 77.9479 683.357 73.6172 679.299 72.3351C675.241 71.0529 670.913 73.3049 669.631 77.365C668.35 81.4251 670.601 85.7559 674.659 87.038C678.717 88.3201 683.045 86.0681 684.327 82.008Z" fill="#FFD037"/>
<path id="Vector_11" d="M285.811 520.754C285.811 520.754 299.022 481.435 215.273 434.034C215.273 434.034 130.235 409.221 138.931 324.009C138.931 324.009 40.9026 395.864 107.236 487.395C173.569 578.927 230.823 558.949 230.823 558.949L285.811 520.754Z" fill="#63DDFF"/>
<path id="Vector_12" d="M260.277 538.514C260.277 538.514 219.413 494.327 180.244 477.243C172.419 473.72 165.229 468.929 158.964 463.063C133.992 440.231 123.104 405.78 129.542 372.551L138.956 324.009" stroke="#535461" stroke-width="2" stroke-miterlimit="10"/>
<path id="Vector_13" d="M623.402 27.0721H158.353V567.315H623.402V27.0721Z" fill="url(#paint0_linear)"/>
<path id="Vector_14" d="M617.99 33.359H163.772V561.012H617.99V33.359Z" fill="#F7F7FD"/>
<path id="Vector_15" d="M306.031 92.8361H191.206V101.985H306.031V92.8361Z" fill="#E2E2EC"/>
<path id="Vector_16" d="M387.32 115.203H191.206V124.352H387.32V115.203Z" fill="#E2E2EC"/>
<path id="Vector_17" d="M596.238 84.0947H514.746V154.45H596.238V84.0947Z" fill="white"/>
<path id="Vector_18" d="M595.806 84.5024V154.042H515.12V84.5024H595.806ZM596.621 83.687H514.305V154.857H596.621V83.687Z" fill="#E2E2EC"/>
<path id="Vector_19" d="M513.931 84.0947H432.438V154.45H513.931V84.0947Z" fill="white"/>
<path id="Vector_20" d="M513.49 84.5024V154.042H432.805V84.5024H513.49ZM514.305 83.687H431.99V154.857H514.305V83.687Z" fill="#E2E2EC"/>
<path id="Day1" d="M596.238 155.265H514.746V225.62H596.238V155.265Z" fill="white"/>
<path id="Vector_21" d="M595.806 155.673V225.212H515.12V155.673H595.806ZM596.621 154.857H514.305V226.027H596.621V154.857Z" fill="#E2E2EC"/>
<path id="Vector_22" d="M513.931 155.265H432.438V225.62H513.931V155.265Z" fill="white"/>
<path id="Vector_23" d="M513.49 155.673V225.212H432.805V155.673H513.49ZM514.305 154.857H431.99V226.027H514.305V154.857Z" fill="#E2E2EC"/>
<path id="Vector_24" d="M431.623 155.265H350.131V225.62H431.623V155.265Z" fill="white"/>
<path id="Vector_25" d="M431.216 155.673V225.212H350.531V155.673H431.216ZM432.031 154.857H349.716V226.027H432.031V154.857Z" fill="#E2E2EC"/>
<path id="Vector_26" d="M349.316 155.265H267.824V225.62H349.316V155.265Z" fill="white"/>
<path id="Vector_27" d="M348.909 155.673V225.212H268.223V155.673H348.909ZM349.724 154.857H267.408V226.027H349.724V154.857Z" fill="#E2E2EC"/>
<path id="Day3No" d="M267.009 155.265H185.517V225.62H267.009V155.265Z" fill="white"/>
<path id="Vector_28" d="M266.602 155.673V225.212H185.916V155.673H266.602ZM267.417 154.857H185.101V226.027H267.417V154.857Z" fill="#E2E2EC"/>
<path id="Vector_29" d="M596.238 226.427H514.746V296.782H596.238V226.427Z" fill="white"/>
<path id="Vector_30" d="M595.806 226.843V296.382H515.12V226.843H595.806ZM596.621 226.027H514.305V297.198H596.621V226.027Z" fill="#E2E2EC"/>
<path id="Vector_31" d="M513.931 226.427H432.438V296.782H513.931V226.427Z" fill="white"/>
<path id="Vector_32" d="M513.49 226.843V296.382H432.805V226.843H513.49ZM514.305 226.027H431.99V297.198H514.305V226.027Z" fill="#E2E2EC"/>
<path id="Vector_33" d="M431.623 226.427H350.131V296.782H431.623V226.427Z" fill="white"/>
<path id="Vector_34" d="M431.216 226.843V296.382H350.531V226.843H431.216ZM432.031 226.027H349.716V297.198H432.031V226.027Z" fill="#E2E2EC"/>
<path id="Day5No" d="M349.316 226.427H267.824V296.782H349.316V226.427Z" fill="white"/>
<path id="Vector_35" d="M348.909 226.843V296.382H268.223V226.843H348.909ZM349.724 226.027H267.408V297.198H349.724V226.027Z" fill="#E2E2EC"/>
<path id="Vector_36" d="M267.009 226.427H185.517V296.782H267.009V226.427Z" fill="white"/>
<path id="Vector_37" d="M266.602 226.843V296.382H185.916V226.843H266.602ZM267.417 226.027H185.101V297.198H267.417V226.027Z" fill="#E2E2EC"/>
<path id="Day2" d="M596.238 297.597H514.746V367.952H596.238V297.597Z" fill="white"/>
<path id="Vector_38" d="M595.806 298.005V367.544H515.12V298.005H595.806ZM596.621 297.19H514.305V368.36H596.621V297.19Z" fill="#E2E2EC"/>
<path id="Vector_39" d="M513.931 297.597H432.438V367.952H513.931V297.597Z" fill="white"/>
<path id="Vector_40" d="M513.49 298.005V367.544H432.805V298.005H513.49ZM514.305 297.19H431.99V368.36H514.305V297.19Z" fill="#E2E2EC"/>
<path id="Vector_41" d="M431.623 297.597H350.131V367.952H431.623V297.597Z" fill="white"/>
<path id="Vector_42" d="M431.216 298.005V367.544H350.531V298.005H431.216ZM432.031 297.19H349.716V368.36H432.031V297.19Z" fill="#E2E2EC"/>
<path id="Vector_43" d="M349.316 297.597H267.824V367.952H349.316V297.597Z" fill="white"/>
<path id="Vector_44" d="M348.909 298.005V367.544H268.223V298.005H348.909ZM349.724 297.19H267.408V368.36H349.724V297.19Z" fill="#E2E2EC"/>
<path id="Day4No" d="M267.009 297.597H185.517V367.952H267.009V297.597Z" fill="white"/>
<path id="Vector_45" d="M266.602 298.005V367.544H185.916V298.005H266.602ZM267.417 297.19H185.101V368.36H267.417V297.19Z" fill="#E2E2EC"/>
<path id="Vector_46" d="M596.238 368.759H514.746V439.114H596.238V368.759Z" fill="white"/>
<path id="Vector_47" d="M595.806 369.175V438.706H515.12V369.175H595.806ZM596.621 368.36H514.305V439.522H596.621V368.36Z" fill="#E2E2EC"/>
<path id="Vector_48" d="M513.931 368.759H432.438V439.114H513.931V368.759Z" fill="white"/>
<path id="Vector_49" d="M513.49 369.175V438.706H432.805V369.175H513.49ZM514.305 368.36H431.99V439.522H514.305V368.36Z" fill="#E2E2EC"/>
<path id="Vector_50" d="M431.623 368.759H350.131V439.114H431.623V368.759Z" fill="white"/>
<path id="Vector_51" d="M431.216 369.175V438.706H350.531V369.175H431.216ZM432.031 368.36H349.716V439.522H432.031V368.36Z" fill="#E2E2EC"/>
<path id="Vector_52" d="M349.316 368.759H267.824V439.114H349.316V368.759Z" fill="white"/>
<path id="Vector_53" d="M348.909 369.175V438.706H268.223V369.175H348.909ZM349.724 368.36H267.408V439.522H349.724V368.36Z" fill="#E2E2EC"/>
<path id="Vector_54" d="M267.009 368.759H185.517V439.114H267.009V368.759Z" fill="white"/>
<path id="Vector_55" d="M266.602 369.175V438.706H185.916V369.175H266.602ZM267.417 368.36H185.101V439.522H267.417V368.36Z" fill="#E2E2EC"/>
<path id="Vector_56" d="M596.238 439.93H514.746V510.284H596.238V439.93Z" fill="white"/>
<path id="Vector_57" d="M595.806 440.337V509.877H515.12V440.337H595.806ZM596.621 439.522H514.305V510.692H596.621V439.522Z" fill="#E2E2EC"/>
<path id="Vector_58" d="M513.931 439.93H432.438V510.284H513.931V439.93Z" fill="white"/>
<path id="Vector_59" d="M513.49 440.337V509.877H432.805V440.337H513.49ZM514.305 439.522H431.99V510.692H514.305V439.522Z" fill="#E2E2EC"/>
<path id="Vector_60" d="M431.623 439.93H350.131V510.284H431.623V439.93Z" fill="white"/>
<path id="Vector_61" d="M431.216 440.337V509.877H350.531V440.337H431.216ZM432.031 439.522H349.716V510.692H432.031V439.522Z" fill="#E2E2EC"/>
<path id="Vector_62" d="M349.316 439.93H267.824V510.284H349.316V439.93Z" fill="white"/>
<path id="Vector_63" d="M348.909 440.337V509.877H268.223V440.337H348.909ZM349.724 439.522H267.408V510.692H349.724V439.522Z" fill="#E2E2EC"/>
<path id="Vector_64" d="M267.009 439.93H185.517V510.284H267.009V439.93Z" fill="white"/>
<path id="Vector_65" d="M266.602 440.337V509.877H185.916V440.337H266.602ZM267.417 439.522H185.101V510.692H267.417V439.522Z" fill="#E2E2EC"/>
<path id="Vector_66" d="M356.684 574.784C359.015 573.015 361.207 570.927 361.884 568.383C362.231 567.037 362.047 565.609 361.37 564.394C360.694 563.18 359.576 562.272 358.249 561.86C354.915 560.816 351.354 562.675 348.648 564.608C345.942 566.54 342.853 568.685 339.316 568.285C342.975 565.635 344.72 561.338 343.709 557.432C343.536 556.591 343.109 555.822 342.486 555.231C340.636 553.6 337.279 554.309 335.062 555.581C328.012 559.658 326.048 567.446 326.007 574.483C325.298 571.947 325.893 569.305 325.877 566.695C325.86 564.086 324.988 561.208 322.299 559.805C320.578 559.058 318.714 558.699 316.838 558.753C313.668 558.655 310.139 558.916 307.979 560.808C305.29 563.156 305.991 567.103 308.33 569.688C310.669 572.273 314.23 573.896 317.498 575.681C319.992 577.043 322.519 578.633 324.018 580.786C324.215 581.071 324.379 581.377 324.507 581.699H344.369C348.744 579.913 352.881 577.59 356.684 574.784V574.784Z" fill="#63DDFF"/>
<path id="Dot1" d="M196.267 170.611C198.832 170.611 200.912 168.53 200.912 165.963C200.912 163.396 198.832 161.315 196.267 161.315C193.701 161.315 191.621 163.396 191.621 165.963C191.621 168.53 193.701 170.611 196.267 170.611Z" fill="#FC6681"/>
<path id="Dot3" d="M207.872 170.611C210.438 170.611 212.518 168.53 212.518 165.963C212.518 163.396 210.438 161.315 207.872 161.315C205.307 161.315 203.227 163.396 203.227 165.963C203.227 168.53 205.307 170.611 207.872 170.611Z" fill="#FFD037"/>
<path id="Dot6" d="M360.311 239.515C362.876 239.515 364.956 237.434 364.956 234.867C364.956 232.3 362.876 230.219 360.311 230.219C357.745 230.219 355.665 232.3 355.665 234.867C355.665 237.434 357.745 239.515 360.311 239.515Z" fill="#63DDFF"/>
<path id="Dot9" d="M371.924 239.515C374.49 239.515 376.57 237.434 376.57 234.867C376.57 232.3 374.49 230.219 371.924 230.219C369.359 230.219 367.279 232.3 367.279 234.867C367.279 237.434 369.359 239.515 371.924 239.515Z" fill="#63DDFF"/>
<g id="DotPile">
<path id="Vector_67" d="M608.699 372.673C611.265 372.673 613.345 370.592 613.345 368.025C613.345 365.458 611.265 363.378 608.699 363.378C606.134 363.378 604.054 365.458 604.054 368.025C604.054 370.592 606.134 372.673 608.699 372.673Z" fill="#63DDFF"/>
<path id="Vector_68" d="M611.022 367.259C613.588 367.259 615.668 365.178 615.668 362.611C615.668 360.044 613.588 357.963 611.022 357.963C608.456 357.963 606.376 360.044 606.376 362.611C606.376 365.178 608.456 367.259 611.022 367.259Z" fill="#63DDFF"/>
<path id="Vector_69" d="M613.345 362.611C615.91 362.611 617.99 360.53 617.99 357.963C617.99 355.396 615.91 353.315 613.345 353.315C610.779 353.315 608.699 355.396 608.699 357.963C608.699 360.53 610.779 362.611 613.345 362.611Z" fill="#63DDFF"/>
</g>
<path id="Dot3_2" d="M526.677 170.611C529.243 170.611 531.323 168.53 531.323 165.963C531.323 163.396 529.243 161.315 526.677 161.315C524.112 161.315 522.032 163.396 522.032 165.963C522.032 168.53 524.112 170.611 526.677 170.611Z" fill="#63DDFF"/>
<path id="Dot4" d="M538.283 170.611C540.849 170.611 542.928 168.53 542.928 165.963C542.928 163.396 540.849 161.315 538.283 161.315C535.717 161.315 533.637 163.396 533.637 165.963C533.637 168.53 535.717 170.611 538.283 170.611Z" fill="#63DDFF"/>
<path id="Dot7" d="M549.897 170.611C552.462 170.611 554.542 168.53 554.542 165.963C554.542 163.396 552.462 161.315 549.897 161.315C547.331 161.315 545.251 163.396 545.251 165.963C545.251 168.53 547.331 170.611 549.897 170.611Z" fill="#63DDFF"/>
<path id="Dot10" d="M561.502 170.611C564.068 170.611 566.148 168.53 566.148 165.963C566.148 163.396 564.068 161.315 561.502 161.315C558.937 161.315 556.857 163.396 556.857 165.963C556.857 168.53 558.937 170.611 561.502 170.611Z" fill="#63DDFF"/>
<path id="Dot8" d="M526.677 314.607C529.243 314.607 531.323 312.526 531.323 309.959C531.323 307.392 529.243 305.311 526.677 305.311C524.112 305.311 522.032 307.392 522.032 309.959C522.032 312.526 524.112 314.607 526.677 314.607Z" fill="#63DDFF"/>
<path id="Dot11" d="M538.283 314.607C540.849 314.607 542.928 312.526 542.928 309.959C542.928 307.392 540.849 305.311 538.283 305.311C535.717 305.311 533.637 307.392 533.637 309.959C533.637 312.526 535.717 314.607 538.283 314.607Z" fill="#63DDFF"/>
<path id="Dot12" d="M549.897 314.607C552.462 314.607 554.542 312.526 554.542 309.959C554.542 307.392 552.462 305.311 549.897 305.311C547.331 305.311 545.251 307.392 545.251 309.959C545.251 312.526 547.331 314.607 549.897 314.607Z" fill="#63DDFF"/>
<path id="Dot13" d="M561.502 314.607C564.068 314.607 566.148 312.526 566.148 309.959C566.148 307.392 564.068 305.311 561.502 305.311C558.937 305.311 556.857 307.392 556.857 309.959C556.857 312.526 558.937 314.607 561.502 314.607Z" fill="#63DDFF"/>
<path id="Dot14" d="M442.645 239.296C445.211 239.296 447.291 237.215 447.291 234.648C447.291 232.081 445.211 230 442.645 230C440.08 230 438 232.081 438 234.648C438 237.215 440.08 239.296 442.645 239.296Z" fill="#63DDFF"/>
<path id="Dot5" d="M278.289 239.515C280.854 239.515 282.934 237.434 282.934 234.867C282.934 232.3 280.854 230.219 278.289 230.219C275.723 230.219 273.643 232.3 273.643 234.867C273.643 237.434 275.723 239.515 278.289 239.515Z" fill="#FFD037"/>
<path id="Dot2" d="M196.267 309.967C198.832 309.967 200.912 307.886 200.912 305.319C200.912 302.752 198.832 300.671 196.267 300.671C193.701 300.671 191.621 302.752 191.621 305.319C191.621 307.886 193.701 309.967 196.267 309.967Z" fill="#FC6681"/>
<path id="Dot15" d="M454.646 239.296C457.211 239.296 459.291 237.215 459.291 234.648C459.291 232.081 457.211 230 454.646 230C452.08 230 450 232.081 450 234.648C450 237.215 452.08 239.296 454.646 239.296Z" fill="#FC6681"/>
<path id="Vector_70" d="M604.689 379.686C609.783 382.695 617.729 384.652 627.795 378.186L627.697 392.505C628.414 402.29 640.55 438.095 640.55 438.095L649.107 467.532C655.239 488.328 658.405 509.885 658.512 531.567C658.512 538.751 659.18 546.155 661.242 551.724C665.798 564.045 659.449 579.922 656.695 585.834C652.058 587.401 647.344 588.729 642.571 589.813C642.141 589.912 641.719 590.04 641.307 590.196L641.25 590.115C641.25 590.115 628.406 595.211 622.701 594.51C618.447 593.988 615.782 599.296 619.115 603.202C615.969 604.017 612.742 604.596 610.566 604.327C604.861 603.626 602 613.444 612.709 616.249C623.418 619.054 684.095 616.249 684.095 616.249C685.802 615.395 687.176 613.997 688.002 612.276C688.829 610.555 689.06 608.608 688.659 606.741C693.321 606.562 696.231 606.423 696.231 606.423C696.231 606.423 706.94 601.53 696.231 588.182L695.66 588.614L693.37 581.871V572.762C693.37 572.762 706.932 507.528 702.653 499.814C698.374 492.1 696.231 452.821 696.231 452.821L697.681 410.036C701.553 402.045 703.533 389.52 704.535 379.727C705.992 375.055 706.911 370.232 707.274 365.351C707.445 363.051 707.584 360.638 707.673 358.134C707.709 352.643 706.811 347.186 705.016 341.997C709.091 336.126 715.717 327.05 721.186 321.685C729.752 313.27 727.608 303.444 727.608 303.444L724.039 279.593L715.473 238.911C716.549 227.626 714.193 221.127 711.593 217.457C712.213 213.812 712.791 210.167 713.223 206.506C715.122 190.585 714.276 174.455 710.721 158.82C709.483 153.365 707.795 147.771 703.973 143.637C699.645 138.956 692.62 136.102 691.006 129.97C690.607 128.446 690.591 126.823 690.012 125.355C688.447 121.343 683.492 119.884 679.156 119.362C671.43 118.424 660.256 117.731 652.832 120.748C647.648 122.868 640.509 128.707 637.673 134.969C636.043 137.847 635.285 140.873 635.977 143.719C636.251 144.767 636.665 145.774 637.208 146.711C636.102 149.711 635.539 152.883 635.545 156.08C635.571 161.576 637.25 166.937 640.364 171.464C643.478 175.992 647.882 179.477 653.003 181.465C653.174 182.003 653.329 182.533 653.459 183.055C653.784 184.311 654.018 185.589 654.16 186.879C654.022 189.325 653.867 191.845 653.753 194.332C653.671 194.674 653.584 195.011 653.492 195.343C647.352 198.063 641.367 201.117 635.562 204.492C639.849 210.804 634.845 237.46 634.845 237.46C624.135 243.771 613.426 259.908 624.853 276.739C636.279 293.569 629.849 311.802 629.849 311.802L628.064 339.225V339.274L627.705 344.761H627.844L627.705 346.841L628.015 346.898V349.132C623.003 350.975 615.676 354.693 611.307 361.567C609.242 364.949 606.727 368.035 603.834 370.741C603.169 371.316 602.651 372.043 602.324 372.859C601.997 373.676 601.871 374.559 601.954 375.434C602.038 376.31 602.33 377.153 602.806 377.892C603.282 378.632 603.928 379.247 604.689 379.686ZM690.884 306.82C690.454 302.075 691.331 297.304 693.419 293.023C695.098 293.055 696.779 293.074 698.464 293.08C698.635 294.262 698.839 295.387 699.083 296.415C700.534 302.596 694.739 305.556 690.876 306.812L690.884 306.82Z" fill="url(#paint1_linear)"/>
<path id="Vector_71" d="M692.294 578.674L695.041 586.918L686.076 595.888L656.54 602.762L635.244 600.699L636.621 593.14C637.028 591.515 637.875 590.033 639.068 588.858C640.261 587.683 641.755 586.859 643.386 586.478C652.139 584.423 668.83 579.726 672.335 573.211L692.294 578.674Z" fill="#DB8B8B"/>
<path id="Vector_72" opacity="0.1" d="M692.294 578.674L695.041 586.918L686.076 595.888L656.54 602.762L635.244 600.699L636.621 593.14C637.028 591.515 637.875 590.033 639.068 588.858C640.261 587.683 641.755 586.859 643.386 586.478C652.139 584.423 668.83 579.726 672.335 573.211L692.294 578.674Z" fill="black"/>
<path id="Vector_73" d="M642.147 598.603L646.271 593.107L642.147 586.739C642.147 586.739 629.783 591.729 624.29 591.044C618.797 590.359 616.051 600.014 626.352 602.729C636.654 605.444 695.041 602.729 695.041 602.729C695.041 602.729 705.342 597.918 695.041 584.863L686.076 591.737C686.076 591.737 670.965 599.981 663.41 598.611L642.147 598.603Z" fill="#2E3037"/>
<path id="Vector_74" d="M623.597 610.272L644.894 612.335L674.429 605.461L683.394 596.491L682.669 594.306L681.642 591.24L680.615 588.255L660.696 582.759C659.679 584.421 658.282 585.818 656.621 586.836C650.15 591.264 638.528 594.461 631.707 596.059C631.43 596.127 631.158 596.211 630.892 596.312C629.447 596.797 628.148 597.639 627.114 598.759C626.08 599.879 625.344 601.242 624.975 602.721L623.597 610.272Z" fill="#DB8B8B"/>
<path id="Vector_75" opacity="0.1" d="M623.597 610.272L644.894 612.335L674.429 605.461L683.394 596.491L682.669 594.306L674.47 600.617C674.47 600.617 659.36 608.861 651.805 607.491H630.468L634.592 601.995L630.892 596.287C629.447 596.773 628.148 597.614 627.114 598.735C626.08 599.855 625.344 601.217 624.975 602.696L623.597 610.272Z" fill="black"/>
<path id="Vector_76" d="M630.468 608.225L634.592 602.729L630.468 596.361C630.468 596.361 618.104 601.351 612.611 600.666C607.118 599.981 604.372 609.636 614.673 612.351C624.975 615.066 683.362 612.351 683.362 612.351C683.362 612.351 693.663 607.54 683.362 594.485L674.397 601.359C674.397 601.359 659.287 609.603 651.731 608.233L630.468 608.225Z" fill="#2E3037"/>
<path id="Vector_77" d="M647.64 209.621C647.64 209.621 680.615 213.054 675.807 199.314C674.462 195.418 674.112 191.247 674.788 187.181C675.643 182.139 677.636 177.359 680.615 173.204L649.702 178.015C651.554 181.114 652.964 184.457 653.891 187.947C657.575 202.519 647.64 209.621 647.64 209.621Z" fill="#DB8B8B"/>
<path id="Vector_78" d="M703.965 366.313C703.965 366.313 703.28 395.864 696.41 410.297L695.033 452.218C695.033 452.218 697.094 490.706 701.218 498.265C705.342 505.824 692.253 569.737 692.253 569.737V580.737C692.253 580.737 670.248 588.981 664.087 579.359L670.273 497.572L667.526 384.179L703.965 366.313Z" fill="#474463"/>
<path id="Vector_79" opacity="0.1" d="M703.965 366.313C703.965 366.313 703.28 395.864 696.41 410.297L695.033 452.218C695.033 452.218 697.094 490.706 701.218 498.265C705.342 505.824 692.253 569.737 692.253 569.737V580.737C692.253 580.737 670.248 588.981 664.087 579.359L670.273 497.572L667.526 384.179L703.965 366.313Z" fill="black"/>
<path id="Vector_80" d="M717.706 271.471L721.83 282.471L725.261 305.841C725.725 309.097 725.405 312.416 724.329 315.523C723.254 318.631 721.452 321.436 719.075 323.707C710.835 331.951 699.841 349.132 699.841 349.132L686.801 309.992C686.801 309.992 699.841 307.929 697.795 298.992C695.75 290.055 696.41 273.501 696.41 273.501L717.706 271.471Z" fill="#FC6681"/>
<path id="Vector_81" opacity="0.05" d="M717.706 271.471L721.83 282.471L725.261 305.841C725.725 309.097 725.405 312.416 724.329 315.523C723.254 318.631 721.452 321.436 719.075 323.707C710.835 331.951 699.841 349.132 699.841 349.132L686.801 309.992C686.801 309.992 699.841 307.929 697.795 298.992C695.75 290.055 696.41 273.501 696.41 273.501L717.706 271.471Z" fill="black"/>
<path id="Vector_82" opacity="0.1" d="M656.654 586.845C665.464 600.707 679.181 592.854 681.609 591.289L680.615 588.255L660.696 582.759C659.689 584.42 658.304 585.82 656.654 586.845V586.845Z" fill="black"/>
<path id="Vector_83" d="M629.099 393.116C629.783 402.738 641.462 437.785 641.462 437.785L649.702 466.627C655.606 487.02 658.654 508.134 658.757 529.365C658.757 536.402 659.401 543.66 661.389 549.115C666.882 564.233 655.896 584.855 655.896 584.855C665.513 602.036 681.976 590.351 681.976 590.351V579.359C681.976 579.359 695.016 519.564 691.593 507.887C688.17 496.21 686.785 464.588 686.785 464.588V407.508C697.788 396.539 704.479 381.974 705.636 366.476C705.799 364.226 705.929 361.861 706.019 359.406C706.573 343.913 695.978 325.721 691.838 319.247C690.843 317.681 690.208 316.801 690.208 316.801L629.555 340.872L629.417 340.929V343.277V348.472L629.099 393.116Z" fill="#474463"/>
<path id="Vector_84" opacity="0.1" d="M649.702 178.007C651.554 181.106 652.964 184.449 653.891 187.939C657.249 189.214 660.828 189.803 664.417 189.671C668.006 189.539 671.532 188.69 674.788 187.173C675.644 182.134 677.637 177.357 680.615 173.204L649.702 178.007Z" fill="black"/>
<path id="Vector_85" d="M663.443 188.306C678.238 188.306 690.232 176.306 690.232 161.503C690.232 146.7 678.238 134.7 663.443 134.7C648.648 134.7 636.654 146.7 636.654 161.503C636.654 176.306 648.648 188.306 663.443 188.306Z" fill="#DB8B8B"/>
<path id="Vector_86" opacity="0.1" d="M629.099 348.447L629.392 348.504C658.194 354.432 694.356 324.392 694.356 324.392C693.387 322.757 692.55 321.048 691.854 319.279C690.86 317.714 690.224 316.833 690.224 316.833L629.571 340.904L629.417 343.31L629.099 348.447Z" fill="black"/>
<path id="Vector_87" d="M636.654 208.928C636.654 208.928 675.122 185.558 687.486 195.18L704.658 217.196C704.658 217.196 715.652 220.629 713.623 242.621L721.83 282.471L697.103 288.66C697.103 288.66 682.677 302.408 694.356 322.337C694.356 322.337 657.95 352.573 629.099 346.392L631.161 314.093C631.161 314.093 637.347 296.227 626.352 279.731C615.358 263.235 625.668 247.432 635.969 241.243C635.969 241.235 640.77 215.117 636.654 208.928Z" fill="#FC6681"/>
<g id="leftarm">
<path id="Vector_88" d="M634.592 349.132C634.592 349.132 620.166 351.88 613.296 362.88C611.314 366.18 608.896 369.197 606.108 371.85C605.48 372.419 604.994 373.127 604.688 373.916C604.381 374.706 604.263 375.556 604.342 376.4C604.421 377.243 604.696 378.057 605.143 378.776C605.591 379.495 606.2 380.1 606.923 380.542C612.375 383.804 621.267 385.834 632.497 376.604C651.764 360.817 634.592 349.132 634.592 349.132Z" fill="#DB8B8B"/>
<path id="Vector_89" opacity="0.1" d="M655.888 221.991C655.888 221.991 669.629 220.613 673.06 256.353C676.491 292.093 682.025 300.337 682.025 300.337C682.025 300.337 685.456 318.896 677.217 329.888C668.977 340.88 653.174 364.25 653.174 364.25C653.174 364.25 636.002 369.061 632.571 351.88L653.867 312.022C653.867 312.022 657.298 298.274 649.058 288.652C640.819 279.03 634.592 215.117 655.888 221.991Z" fill="black"/>
<path id="Vector_90" d="M654.486 219.928C654.486 219.928 668.227 218.55 671.658 254.29C675.089 290.03 680.623 298.274 680.623 298.274C680.623 298.274 684.054 316.833 675.815 327.825C667.575 338.817 651.772 362.187 651.772 362.187C651.772 362.187 634.6 366.998 631.169 349.817L652.465 309.959C652.465 309.959 655.896 296.211 647.656 286.589C639.417 276.967 633.215 213.054 654.486 219.928Z" fill="#FC6681"/>
</g>
<path id="Vector_91" opacity="0.1" d="M643.174 245.695C643.174 245.695 641.805 266.978 647.966 278.688C654.128 290.397 654.152 305.491 647.966 313.751" fill="black"/>
<path id="Vector_92" opacity="0.1" d="M639.743 219.586C639.743 219.586 645.236 214.09 661.039 213.397C676.842 212.704 683.704 207.901 683.704 207.901" fill="black"/>
<path id="Vector_93" opacity="0.1" d="M677.95 126.872C682.123 127.386 686.915 128.821 688.398 132.743C688.953 134.186 688.969 135.776 689.352 137.269C690.909 143.27 697.665 146.067 701.83 150.658C705.505 154.735 707.127 160.19 708.35 165.531C711.779 180.847 712.606 196.632 710.795 212.222C709.458 223.638 706.72 234.842 705.954 246.291C705.187 257.739 706.589 269.783 712.84 279.405C715.53 283.539 719.083 287.176 720.99 291.726C717.054 294.923 711.618 295.379 706.54 295.551C700.634 295.752 694.726 295.752 688.814 295.551C685.717 295.445 682.481 295.241 679.808 293.675C677.829 292.409 676.203 290.661 675.081 288.595C671.699 282.887 670.851 275.956 671.006 269.302C671.161 262.648 672.204 256.027 672.327 249.365C672.392 245.736 672.106 241.879 670.02 238.911C668.512 236.767 666.222 235.323 664.266 233.586C656.931 227.063 654.388 216.609 654.144 206.783C653.899 196.958 655.521 187.115 654.69 177.322C654.364 173.49 652.929 168.883 649.164 168.141C647.974 167.904 646.719 168.141 645.578 167.684C642.554 166.518 642.848 162.253 641.984 159.13C641.014 155.624 638.023 152.917 637.184 149.345C635.203 141.028 645.782 131.104 652.718 128.209C659.767 125.257 670.517 125.959 677.95 126.872Z" fill="black"/>
<path id="Vector_94" d="M678.635 125.502C682.807 126.016 687.6 127.451 689.083 131.373C689.637 132.816 689.653 134.406 690.037 135.899C691.593 141.9 698.35 144.697 702.514 149.288C706.19 153.365 707.812 158.82 709.034 164.161C712.464 179.477 713.29 195.262 711.479 210.852C710.143 222.268 707.404 233.472 706.638 244.921C705.872 256.369 707.274 268.413 713.525 278.035C716.214 282.169 719.768 285.806 721.675 290.356C717.739 293.553 712.302 294.009 707.225 294.181C701.319 294.382 695.41 294.382 689.499 294.181C686.402 294.075 683.166 293.871 680.493 292.305C678.513 291.039 676.887 289.291 675.766 287.225C672.384 281.517 671.536 274.586 671.691 267.932C671.846 261.278 672.889 254.657 673.011 247.995C673.076 244.366 672.791 240.509 670.705 237.541C669.197 235.397 666.907 233.953 664.951 232.217C657.616 225.693 655.073 215.239 654.828 205.414C654.584 195.588 656.206 185.746 655.374 175.952C655.048 172.12 653.614 167.513 649.849 166.771C648.659 166.534 647.404 166.771 646.263 166.314C643.239 165.148 643.532 160.883 642.669 157.76C641.699 154.254 638.708 151.547 637.868 147.975C635.888 139.658 646.466 129.734 653.402 126.839C660.452 123.879 671.202 124.581 678.635 125.502Z" fill="#472727"/>
</g>
<defs>
<linearGradient id="paint0_linear" x1="390.881" y1="567.307" x2="390.881" y2="27.0721" gradientUnits="userSpaceOnUse">
<stop stop-color="#808080" stop-opacity="0.25"/>
<stop offset="0.54" stop-color="#808080" stop-opacity="0.12"/>
<stop offset="1" stop-color="#808080" stop-opacity="0.1"/>
</linearGradient>
<linearGradient id="paint1_linear" x1="-229496" y1="402695" x2="-229496" y2="97401" gradientUnits="userSpaceOnUse">
<stop stop-color="#808080" stop-opacity="0.25"/>
<stop offset="0.54" stop-color="#808080" stop-opacity="0.12"/>
<stop offset="1" stop-color="#808080" stop-opacity="0.1"/>
</linearGradient>
</defs>
</svg>
