<svg width="233" height="250" viewBox="0 0 233 250" fill="none" xmlns="http://www.w3.org/2000/svg">
<g clip-path="url(#clip0)">
<path d="M188.418 74.8721C188.419 73.519 188.919 72.2218 189.808 71.2651C190.698 70.3083 191.903 69.7701 193.16 69.7686C193.206 69.7686 193.251 69.7712 193.297 69.7743L207.963 57.1942L197.453 45.884C197.021 45.4211 196.678 44.871 196.444 44.2654C196.21 43.6597 196.089 43.0103 196.089 42.3544C196.088 41.6985 196.208 41.0488 196.441 40.4427C196.674 39.8366 197.015 39.2858 197.446 38.822C197.877 38.3582 198.389 37.9904 198.952 37.7397C199.516 37.489 200.119 37.3602 200.729 37.3608C201.338 37.3615 201.942 37.4914 202.505 37.7433C203.068 37.9952 203.579 38.3641 204.009 38.8288L220.902 57.0077L197.9 75.0094C197.867 76.3505 197.344 77.6235 196.445 78.5529C195.546 79.4823 194.343 79.9933 193.096 79.9752C191.85 79.9572 190.66 79.4116 189.784 78.4565C188.908 77.5015 188.418 76.2138 188.418 74.8721Z" fill="#FFB8B8"/>
<path d="M171.202 168.116L166.242 166.124L171.024 144.588L178.344 147.529L171.202 168.116Z" fill="#FFB8B8"/>
<path d="M163.015 163.09L172.794 167.018L170.546 173.5L154.957 167.237L155.037 167.008C155.612 165.349 156.776 164.005 158.272 163.271C159.768 162.536 161.474 162.471 163.015 163.09Z" fill="#2F2E41"/>
<path d="M215.824 168.197H210.529L208.011 146.221L215.825 146.222L215.824 168.197Z" fill="#FFB8B8"/>
<path d="M206.52 166.569H216.958V173.487H200.319V173.242C200.319 172.366 200.48 171.498 200.791 170.688C201.103 169.879 201.56 169.143 202.135 168.523C202.711 167.904 203.395 167.412 204.147 167.077C204.9 166.741 205.706 166.569 206.52 166.569Z" fill="#2F2E41"/>
<path d="M208.81 159.842C208.615 159.64 208.463 159.395 208.365 159.123C208.267 158.852 208.225 158.56 208.242 158.27C209.187 141.487 200.967 110.981 198.425 102.031C198.356 101.781 198.23 101.554 198.058 101.372C197.885 101.189 197.673 101.057 197.44 100.987C197.202 100.914 196.951 100.907 196.709 100.965C196.468 101.023 196.244 101.146 196.058 101.322C182.328 114.192 178.231 150.503 177.549 157.651C177.523 157.918 177.448 158.177 177.328 158.412C177.208 158.648 177.046 158.855 176.851 159.022C176.655 159.189 176.431 159.312 176.191 159.384C175.951 159.457 175.699 159.477 175.452 159.443L168.599 158.521C168.341 158.487 168.092 158.395 167.869 158.251C167.646 158.107 167.453 157.915 167.302 157.686C167.152 157.458 167.047 157.199 166.995 156.924C166.943 156.65 166.944 156.367 166.999 156.093L184.968 66.6925L184.979 66.6387L185.011 66.5962C189.356 60.9851 201.946 63.1699 202.479 63.2656L202.535 63.2754L202.578 63.3142C218.745 77.7409 217.925 144.613 217.597 157.872C217.584 158.364 217.404 158.834 217.092 159.193C216.78 159.552 216.356 159.776 215.901 159.823L210.289 160.398C210.229 160.404 210.169 160.407 210.11 160.407C209.625 160.408 209.158 160.205 208.81 159.842Z" fill="#2F2E41"/>
<path d="M199.309 27.2732C204.959 27.2732 209.54 22.344 209.54 16.2636C209.54 10.1831 204.959 5.25391 199.309 5.25391C193.658 5.25391 189.078 10.1831 189.078 16.2636C189.078 22.344 193.658 27.2732 199.309 27.2732Z" fill="#FFB8B8"/>
<path d="M209.355 36.998C209.355 36.998 199.854 24.9155 192.081 34.6745C187.079 40.9536 184.434 49.0146 184.662 57.2811L184.955 67.9015L202.877 64.8808L209.355 36.998Z" fill="#7FE0FF"/>
<path d="M8.80053 145.795C8.80053 145.795 6.89832 154.839 3.9353 156.788C0.972277 158.737 11.1674 162.434 11.1674 162.434C11.1674 162.434 15.6046 165.439 16.7572 166.526C17.9097 167.613 22.8491 169.938 22.0349 168.211C21.2208 166.484 19.7904 163.2 17.5318 160.472C15.2733 157.743 12.3039 152.859 14.8905 149.055C17.4772 145.251 8.80053 145.795 8.80053 145.795Z" fill="#FFB9B9"/>
<path d="M19.1008 35.774L20.0979 35.3849C20.0979 35.3849 22.6616 34.9958 25.0118 38.264C27.3619 41.5322 32.7387 51.4535 32.7387 51.4535L34.7327 56.5892L27.6824 56.8227L22.3768 44.0612L19.1008 35.774Z" fill="#FF6584"/>
<path opacity="0.1" d="M19.1008 35.774L20.0979 35.3849C20.0979 35.3849 22.6616 34.9958 25.0118 38.264C27.3619 41.5322 32.7387 51.4535 32.7387 51.4535L34.7327 56.5892L27.6824 56.8227L22.3768 44.0612L19.1008 35.774Z" fill="black"/>
<path d="M20.1691 114.794C20.1691 114.794 16.1454 115.767 16.822 119.152C17.4985 122.537 12.6203 126.933 12.1574 127.672C11.6945 128.412 11.0179 128.723 11.4452 129.851C11.8725 130.979 1.51057 146.892 3.57583 148.332C5.64109 149.771 22.3768 155.413 23.8724 154.285C25.3679 153.156 26.5786 116.234 26.5786 116.234L20.1691 114.794Z" fill="#2F2E41"/>
<path opacity="0.1" d="M20.1691 114.794C20.1691 114.794 16.1454 115.767 16.822 119.152C17.4985 122.537 12.6203 126.933 12.1574 127.672C11.6945 128.412 11.0179 128.723 11.4452 129.851C11.8725 130.979 1.51057 146.892 3.57583 148.332C5.64109 149.771 22.3768 155.413 23.8724 154.285C25.3679 153.156 26.5786 116.234 26.5786 116.234L20.1691 114.794Z" fill="black"/>
<path d="M29.3203 154.946C29.3203 154.946 31.8129 163.817 30.1393 167.124C28.4657 170.431 38.986 168.06 38.986 168.06C38.986 168.06 44.2041 168.238 45.6996 168.549C47.1952 168.86 52.5367 168.174 51.0412 167.124C49.5456 166.073 46.8038 164.011 43.5991 162.883C40.3944 161.755 35.5873 159.148 36.0858 154.44C36.5844 149.733 29.3203 154.946 29.3203 154.946Z" fill="#FFB9B9"/>
<path d="M33.985 66.2771C32.6055 65.2004 30.944 64.6408 29.2491 64.6819C26.5073 64.7986 17.5341 67.133 17.7834 67.5999C18.0293 68.0108 18.3031 68.4009 18.6023 68.7671C18.6023 68.7671 18.0326 71.6073 18.2819 71.8797C18.5311 72.152 13.4036 78.5717 16.3947 92.3448C19.3857 106.118 19.0652 115.65 19.0652 115.65C19.0652 115.65 17.8546 156.036 21.3086 156.853C24.7625 157.67 38.3648 157.125 39.0057 155.53C39.6466 153.935 37.0473 104.406 37.0473 104.406C37.0473 104.406 36.7624 79.5055 36.0858 76.4707C35.4093 73.436 33.985 66.2771 33.985 66.2771Z" fill="#2F2E41"/>
<path d="M18.2997 31.1246C13.5603 31.1246 9.71819 26.9265 9.71819 21.748C9.71819 16.5694 13.5603 12.3714 18.2997 12.3714C23.0391 12.3714 26.8812 16.5694 26.8812 21.748C26.8812 26.9265 23.0391 31.1246 18.2997 31.1246Z" fill="#FFB9B9"/>
<path d="M19.5994 27.9537C19.5994 27.9537 14.2938 33.6341 20.8457 38.0306C25.4591 41.1263 9.70038 35.6184 9.70038 35.6184C9.70038 35.6184 12.9763 26.4752 12.4778 24.3742C11.9793 22.2733 19.5994 27.9537 19.5994 27.9537Z" fill="#FFB9B9"/>
<path d="M18.2818 36.8245C18.2818 36.8245 10.911 33.1283 9.70033 34.4511C8.48966 35.774 3.25529 41.221 8.95256 50.8699C14.6498 60.5188 15.7537 67.7555 16.7151 68.5726C17.6765 69.3896 18.2818 67.5221 18.2818 67.5221C18.2818 67.5221 21.0593 64.7597 22.8753 64.7597C24.6913 64.7597 32.4538 65.6935 32.4538 65.6935L30.2817 56.278C30.2817 56.278 31.3499 48.8467 27.7179 45.1506C24.0859 41.4544 20.0978 35.3849 20.0978 35.3849L18.0411 34.9744L19.3992 36.8641C19.3992 36.8641 19.5993 37.447 18.2818 36.8245Z" fill="#FF6584"/>
<path d="M35.2313 57.3674C35.2313 57.3674 38.4004 62.0362 36.2995 63.787C34.1987 65.5378 29.7833 62.542 29.7833 62.542C29.7833 62.542 19.5994 70.2845 19.7418 65.7324C19.8843 61.1802 27.1839 58.0288 27.1839 58.0288L32.0978 58.1844L31.35 55.4998L33.4153 55.2664L35.2313 57.3674Z" fill="#FFB9B9"/>
<path opacity="0.1" d="M35.2313 57.3674C35.2313 57.3674 38.4004 62.0362 36.2995 63.787C34.1987 65.5378 29.7833 62.542 29.7833 62.542C29.7833 62.542 19.5994 70.2845 19.7418 65.7324C19.8843 61.1802 27.1839 58.0288 27.1839 58.0288L32.0978 58.1844L31.35 55.4998L33.4153 55.2664L35.2313 57.3674Z" fill="black"/>
<path d="M13.9733 48.3799C13.9733 48.3799 33.985 65.2266 35.2669 59.3127C36.1 55.4693 35.4591 46.0055 34.9083 39.8503C34.5146 35.3686 32.6829 31.1836 29.7372 28.0355C28.5366 26.7575 27.4229 25.9555 26.8634 26.553C25.2966 28.226 30.531 34.918 30.531 34.918C30.531 34.918 31.3856 48.4966 29.6764 50.0529C29.6764 50.0529 23.4843 43.5198 22.2006 43.6154C20.9169 43.711 13.9733 48.3799 13.9733 48.3799Z" fill="#FFB9B9"/>
<path d="M0.717976 30.5158C2.35731 27.8195 3.71084 23.4827 5.17137 19.6633C5.64471 18.4255 6.07716 17.1715 6.50059 15.9122C7.35402 13.3742 11.0696 10.0981 15.9357 10.0981C21.4974 10.0981 26.0062 13.1563 26.0062 15.7221C26.0062 17.8435 22.923 19.6315 18.7121 20.1878C20.1915 23.796 21.0828 27.8003 21.0828 30.5158C21.0828 36.6604 16.524 34.0614 10.9004 34.0614C5.27679 34.0614 -2.39381 35.634 0.717976 30.5158Z" fill="#2F2E41"/>
<path d="M9.70032 37.875C9.70032 37.875 6.13952 47.7962 14.1513 50.0529C14.1513 50.0529 15.7181 47.6795 18.2818 47.2905C20.8456 46.9014 23.1245 43.9834 23.1245 43.9834C23.1245 43.9834 17.8902 35.9296 13.7952 35.774C9.70033 35.6184 9.70032 37.875 9.70032 37.875Z" fill="#FF6584"/>
<path d="M126.077 97.4513C126.077 97.4513 126.811 103.371 124.977 105.739C123.143 108.107 120.21 123.892 120.21 123.892V133.364C120.21 133.364 131.578 115.605 133.779 108.501C135.979 101.398 133.779 95.8728 133.779 95.8728L126.077 97.4513Z" fill="#FFC1C7"/>
<path d="M124.977 68.2477L125.132 68.4353C127.026 70.7272 128.512 73.3741 129.517 76.2441C131.924 83.1238 137.099 100.082 135.246 101.792C132.679 104.16 125.344 105.739 124.977 105.344C124.61 104.95 117.276 80.4817 117.276 80.4817L124.977 68.2477Z" fill="#3F3D56"/>
<path d="M113.058 235.971C113.058 235.971 121.86 237.945 122.227 235.971C122.461 234.745 122.831 233.552 123.327 232.42C123.327 232.42 131.304 232.777 129.222 240.303C129.013 241.045 128.557 241.678 127.941 242.08C126.041 243.331 121.566 246.282 119.293 247.811C117.584 248.96 115.129 248.101 113.377 247.184C112.749 246.852 112.24 246.306 111.931 245.631C111.622 244.956 111.529 244.19 111.668 243.452L113.058 235.971Z" fill="#3F3D56"/>
<path d="M87.7541 237.155C87.7541 237.155 78.9526 239.128 78.5859 237.155C78.3513 235.929 77.982 234.736 77.4857 233.603C77.4857 233.603 69.5236 233.96 71.585 241.466C71.7969 242.221 72.2613 242.866 72.8888 243.275C74.7985 244.533 79.2533 247.47 81.5197 248.995C83.3909 250.253 86.1571 249.104 87.9155 248.106C88.404 247.831 88.7968 247.394 89.0352 246.859C89.2736 246.325 89.3448 245.722 89.238 245.14L87.7541 237.155Z" fill="#3F3D56"/>
<path d="M76.7522 102.582C76.7522 102.582 76.0187 108.501 77.8523 110.869C79.686 113.237 82.6198 122.314 82.6198 122.314V131.785C82.6198 131.785 71.2512 120.735 69.0508 113.632C66.8504 106.528 69.0508 101.003 69.0508 101.003L76.7522 102.582Z" fill="#FFC1C7"/>
<path d="M102.423 54.0405C107.487 54.0405 111.592 49.6233 111.592 44.1744C111.592 38.7255 107.487 34.3083 102.423 34.3083C97.3598 34.3083 93.255 38.7255 93.255 44.1744C93.255 49.6233 97.3598 54.0405 102.423 54.0405Z" fill="#FFC1C7"/>
<path d="M109.758 48.1209C109.758 48.1209 107.191 60.7495 109.758 62.328C112.325 63.9066 94.3552 62.328 94.3552 62.328C94.3552 62.328 98.3893 51.6727 96.5556 48.1209C94.722 44.5691 109.758 48.1209 109.758 48.1209Z" fill="#FFC1C7"/>
<path d="M118.559 132.18C118.559 132.18 121.86 137.31 120.76 153.096C119.66 168.882 118.559 185.457 118.559 185.457C118.559 185.457 126.627 235.182 124.06 236.366C121.493 237.55 113.058 238.734 111.958 237.55C110.858 236.366 105.724 190.193 105.724 190.193L100.956 152.307L93.6218 195.718C93.6218 195.718 89.5877 237.945 86.6539 239.918C84.5566 241.328 80.3977 240.319 78.1966 239.628C77.7838 239.501 77.4228 239.228 77.1718 238.853C76.9207 238.478 76.7941 238.023 76.8123 237.561C77.0811 230.92 78.2882 204.713 81.1529 188.614C84.4535 170.066 77.8524 132.969 83.7201 132.18C89.5877 131.391 118.559 132.18 118.559 132.18Z" fill="#2F2E41"/>
<path d="M92.8883 60.7495C92.8883 60.7495 94.3552 53.6459 99.8562 54.4352C105.357 55.2244 109.024 54.8298 110.125 58.7762C111.225 62.7227 122.96 65.8798 122.96 65.8798C122.96 65.8798 125.894 66.2745 125.527 71.4048C125.161 76.5352 117.826 95.4781 117.826 95.4781C117.826 95.4781 118.193 111.264 120.026 118.367C121.86 125.471 121.86 134.153 117.826 136.126C113.792 138.1 88.4875 145.203 82.6198 136.521C82.6198 136.521 79.3193 123.892 81.5197 118.762C83.72 113.632 81.1529 93.5049 81.1529 93.5049L74.1851 76.9299C74.1851 76.9299 76.3854 69.037 82.6198 66.6691C86.3094 65.2863 89.7744 63.2887 92.8883 60.7495Z" fill="#3F3D56"/>
<path d="M77.1189 73.3781L74.185 76.9299C74.185 76.9299 65.3835 100.214 67.9506 102.582C70.5177 104.95 77.8523 106.528 78.2191 106.134C78.5858 105.739 84.8202 85.612 84.8202 85.612L77.1189 73.3781Z" fill="#3F3D56"/>
<path d="M113.058 38.2548C113.058 38.2548 111.592 39.4387 111.225 42.2012C110.858 44.9637 108.606 40.6271 108.082 46.3472C107.557 52.0673 98.756 56.0137 95.4554 53.2512C92.1548 50.4887 86.6539 33.1244 94.3552 30.3619C102.057 27.5994 109.758 27.994 111.225 30.7565C112.692 33.519 113.058 38.2548 113.058 38.2548Z" fill="#2F2E41"/>
<path opacity="0.1" d="M105.881 46.3472C106.406 40.6271 108.658 44.9637 109.024 42.2012C109.391 39.4387 110.858 38.2548 110.858 38.2548C110.858 38.2548 110.491 33.519 109.024 30.7565C108.323 29.4348 106.191 28.6568 103.318 28.5056C107.282 28.3102 110.353 29.1156 111.225 30.7565C112.692 33.519 113.058 38.2548 113.058 38.2548C113.058 38.2548 111.592 39.4387 111.225 42.2012C110.858 44.9637 108.606 40.6271 108.082 46.3472C107.637 51.1966 101.245 54.7692 97.2976 54.0618C101.059 53.5059 105.513 50.3663 105.881 46.3472Z" fill="black"/>
<path d="M197.65 18.1681L193.255 12.5956C192.122 11.1594 190.937 9.59521 190.777 7.71938C190.601 5.66312 191.764 3.66438 193.353 2.5067C194.941 1.34902 196.893 0.913351 198.806 0.753493C202.354 0.457006 206.088 1.08802 209.005 3.2823C211.922 5.47659 213.83 9.43806 213.119 13.1906C212.559 16.1454 210.495 18.9759 211.297 21.8653C212.175 25.0269 215.774 25.9969 218.712 26.9397C223.644 28.5222 228.354 31.6375 230.939 36.4268C233.523 41.2161 233.512 47.8201 230.066 51.9342C227.835 54.5982 224.47 55.9454 221.143 56.1481C217.816 56.3508 214.504 55.5076 211.348 54.3541C208.442 53.2918 205.568 51.9255 203.28 49.724C200.992 47.5225 199.344 44.372 199.415 41.0701C199.483 37.9234 201.049 35.057 201.693 31.9865C202.2 29.4154 202.067 26.7456 201.307 24.2477C200.546 21.7498 199.185 19.5128 197.363 17.7633" fill="#2F2E41"/>
<path d="M186.787 117.591H174.066C173.651 117.591 173.253 117.413 172.959 117.097C172.666 116.781 172.5 116.352 172.5 115.905V99.7522C172.5 99.3052 172.666 98.8767 172.959 98.5607C173.253 98.2446 173.651 98.0669 174.066 98.0664H186.787C187.202 98.0669 187.6 98.2446 187.894 98.5607C188.188 98.8767 188.353 99.3052 188.353 99.7522V115.905C188.353 116.352 188.188 116.781 187.894 117.097C187.6 117.413 187.202 117.591 186.787 117.591Z" fill="#7FE0FF"/>
<path d="M183.017 103.775C182.41 102.756 182.168 101.534 182.337 100.338C182.506 99.141 183.074 98.0516 183.935 97.2725L190.897 38.24C191.048 36.9788 191.62 35.8197 192.506 34.979C193.393 34.1383 194.533 33.6734 195.715 33.6711L195.78 33.6716C196.485 33.6816 197.18 33.8569 197.816 34.1853C198.453 34.5137 199.015 34.9873 199.463 35.5732C199.912 36.1591 200.237 36.8432 200.415 37.5779C200.593 38.3126 200.621 39.0803 200.495 39.8275L190.706 98.1286L190.708 98.1314C191.117 98.7319 191.397 99.4231 191.526 100.155C191.656 100.886 191.632 101.64 191.457 102.36C191.282 103.08 190.96 103.75 190.514 104.319C190.068 104.889 189.509 105.344 188.879 105.652C188.287 105.941 187.644 106.09 186.994 106.088C186.204 106.092 185.426 105.882 184.731 105.478C184.036 105.073 183.447 104.488 183.017 103.775Z" fill="#FFB8B8"/>
</g>
<defs>
<clipPath id="clip0">
<rect width="233" height="250" fill="white"/>
</clipPath>
</defs>
</svg>
